999
DXF file: cage_and_flap_holder.dxf
999
Pro/ENGINEER 2015380 by Parametric Technology Corporation
  0
SECTION
  2
HEADER
  9
$ACADVER
  1
AC1027
  9
$DWGCODEPAGE
  3
ANSI_1252
  9
$EXTMAX
 10
1189.0
 20
841.0
 30
0.0
  9
$EXTMIN
 10
0.0
 20
0.0
 30
0.0
  9
$LIMMIN
 10
0.0
 20
0.0
  9
$LIMMAX
 10
1189.0
 20
841.0
  9
$VIEWCTR
 10
594.5
 20
420.5
  9
$VIEWSIZE
 40
841.0
  9
$CLAYER
  8
0
  9
$LTSCALE
 40
65.395
  9
$CELTYPE
  6
BYLAYER
  9
$DIMSCALE
 40
1.0
  9
$DIMASZ
 40
3.5
  9
$DIMEXO
 40
1.0
  9
$DIMDLI
 40
45.182
  9
$DIMEXE
 40
1.5
  9
$DIMCEN
 40
10.701
  9
$DIMLFAC
 40
1.0
  9
$DIMBLK
  1
_FILLED
  9
$DIMALT
 70
0
  9
$DIMALTF
 40
0.0393700787
  9
$DIMTXT
 40
5.0
  9
$DIMTOL
 70
1
  9
$DIMLIM
 70
0
  9
$DIMTFAC
 40
1.0
  9
$DIMTP
 40
0.01
  9
$DIMTM
 40
0.01
  9
$DIMGAP
 40
0.625
  9
$DIMDSEP
 70
44
  9
$AUNITS
 70
0
  9
$PDMODE
 70
3
  9
$PDSIZE
 40
0.3125
  9
$HANDSEED
  5
56D
  9
$TILEMODE
 70
1
  9
$MEASUREMENT
 70
1
  9
$INSUNITS
 70
4
  0
ENDSEC
  0
SECTION
  2
CLASSES
  0
CLASS
  1
ACDBDICTIONARYWDFLT
  2
AcDbDictionaryWithDefault
  3
AutoCAD 2000
 90
0
 91
1
280
0
281
0
  0
CLASS
  1
ACDBPLACEHOLDER
  2
AcDbPlaceHolder
  3
AutoCAD 2000
 90
0
 91
1
280
0
281
0
  0
CLASS
  1
LAYOUT
  2
AcDbLayout
  3
AutoCAD 2000
 90
0
 91
0
280
0
281
0
  0
CLASS
  1
RASTERVARIABLES
  2
AcDbRasterVariables
  3
ISM
 90
0
 91
1
280
0
281
0
  0
CLASS
  1
IMAGEDEF
  2
AcDbRasterImageDef
  3
ISM
 90
0
 91
2
280
0
281
0
  0
CLASS
  1
IMAGEDEF_REACTOR
  2
AcDbRasterImageDefReactor
  3
ISM
 90
0
 91
2
280
0
281
0
  0
CLASS
  1
IMAGE
  2
AcDbRasterImage
  3
ISM
 90
127
 91
2
280
0
281
1
  0
CLASS
  1
TABLESTYLE
  2
AcDbTableStyle
  3
ObjectDBX Classes
 90
2047
 91
1
280
0
281
0
  0
CLASS
  1
ACAD_TABLE
  2
AcDbTable
  3
ObjectDBX Classes
 90
1025
 91
11
280
0
281
1
  0
ENDSEC
  0
SECTION
  2
TABLES
  0
TABLE
  2
VPORT
  5
8
100
AcDbSymbolTable
 70
2
  0
VPORT
  5
1F4
100
AcDbSymbolTableRecord
100
AcDbViewportTableRecord
  2
*ACTIVE
 70
0
 10
0.0
 20
0.0
 11
1.0
 21
1.0
 12
594.5
 22
420.5
 13
0.0
 23
0.0
 14
1.0
 24
1.0
 15
0.0
 25
0.0
 16
0.0
 26
0.0
 36
1.0
 17
0.0
 27
0.0
 37
0.0
 40
841.0
 41
1.4137931034
 42
50.0
 43
0.0
 44
0.0
 50
0.0
 51
0.0
 71
0
 72
100
 73
1
 74
1
 75
0
 76
0
 77
0
 78
0
  0
ENDTAB
  0
TABLE
  2
LTYPE
  5
5
100
AcDbSymbolTable
 70
6
  0
LTYPE
  5
14
100
AcDbSymbolTableRecord
100
AcDbLinetypeTableRecord
  2
BYBLOCK
 70
0
  3

 72
65
 73
0
 40
0.0
  0
LTYPE
  5
15
100
AcDbSymbolTableRecord
100
AcDbLinetypeTableRecord
  2
BYLAYER
 70
0
  3

 72
65
 73
0
 40
0.0
  0
LTYPE
  5
16
100
AcDbSymbolTableRecord
100
AcDbLinetypeTableRecord
  2
CONTINUOUS
 70
64
  3
Solid line
 72
65
 73
0
 40
0.0
  0
LTYPE
  5
1F5
100
AcDbSymbolTableRecord
100
AcDbLinetypeTableRecord
  2
CENTER
 70
64
  3
____ _ ____ _ ____ _ ____ _ ____ _ ____ _ ____
 72
65
 73
4
 40
0.6
 49
0.375
 74
0
 49
-0.075
 74
0
 49
0.075
 74
0
 49
-0.075
 74
0
  0
LTYPE
  5
1F6
100
AcDbSymbolTableRecord
100
AcDbLinetypeTableRecord
  2
HIDDEN
 70
64
  3
- - - - - - - - - - - - - - - - - - - -
 72
65
 73
2
 40
0.2
 49
0.1
 74
0
 49
-0.1
 74
0
  0
LTYPE
  5
1F7
100
AcDbSymbolTableRecord
100
AcDbLinetypeTableRecord
  2
PHANTOM
 70
64
  3
_____ _ _ _____ _ _ _____ _ _ _____
 72
65
 73
6
 40
0.8
 49
0.45
 74
0
 49
-0.05
 74
0
 49
0.1
 74
0
 49
-0.05
 74
0
 49
0.1
 74
0
 49
-0.05
 74
0
  0
LTYPE
  5
1F8
100
AcDbSymbolTableRecord
100
AcDbLinetypeTableRecord
  2
DOT
 70
64
  3
. . . . . . . . . . . . . . . . . . . .
 72
65
 73
2
 40
0.2
 49
0.1
 74
0
 49
-0.1
 74
0
  0
LTYPE
  5
1F9
100
AcDbSymbolTableRecord
100
AcDbLinetypeTableRecord
  2
DASHED
 70
64
  3
- - - - - - - - - - - - - - - - - - - -
 72
65
 73
2
 40
0.2
 49
0.1
 74
0
 49
-0.1
 74
0
  0
ENDTAB
  0
TABLE
  2
LAYER
  5
2
100
AcDbSymbolTable
 70
36
  0
LAYER
  5
10
100
AcDbSymbolTableRecord
100
AcDbLayerTableRecord
  2
0
 70
0
 62
7
  6
CONTINUOUS
370
-3
390
F
  0
LAYER
  5
1FA
100
AcDbSymbolTableRecord
100
AcDbLayerTableRecord
  2
DEFAULT_1
 70
0
 62
7
  6
CENTER
370
-3
390
F
  0
LAYER
  5
1FB
100
AcDbSymbolTableRecord
100
AcDbLayerTableRecord
  2
DEFAULT_2
 70
0
 62
8
  6
HIDDEN
370
-3
390
F
  0
LAYER
  5
1FC
100
AcDbSymbolTableRecord
100
AcDbLayerTableRecord
  2
DEFAULT_3
 70
0
 62
7
  6
PHANTOM
370
-3
390
F
  0
LAYER
  5
1FD
100
AcDbSymbolTableRecord
100
AcDbLayerTableRecord
  2
HOLES
 70
0
 62
7
  6
CONTINUOUS
370
-3
390
F
  0
ENDTAB
  0
TABLE
  2
STYLE
  5
3
100
AcDbSymbolTable
 70
1
  0
STYLE
  5
11
100
AcDbSymbolTableRecord
100
AcDbTextStyleTableRecord
  2
STANDARD
 70
0
 40
0.0
 41
0.85
 50
0.0
 71
0
 42
0.2
  3
txt
  4

  0
STYLE
  5
1FE
100
AcDbSymbolTableRecord
100
AcDbTextStyleTableRecord
  2
TEXTSTYLE_1
 70
0
 40
0.0
 41
0.8
 50
0.0
 71
0
 42
0.2
  3
gdt
  4

  0
STYLE
  5
1FF
100
AcDbSymbolTableRecord
100
AcDbTextStyleTableRecord
  2
TEXTSTYLE_2
 70
0
 40
0.0
 41
0.8
 50
0.0
 71
0
 42
0.2
  3
txt
  4

  0
STYLE
  5
200
100
AcDbSymbolTableRecord
100
AcDbTextStyleTableRecord
  2
TEXTSTYLE_3
 70
0
 40
0.0
 41
0.8
 50
0.0
 71
0
 42
0.2
  3
txt
  4

  0
STYLE
  5
201
100
AcDbSymbolTableRecord
100
AcDbTextStyleTableRecord
  2
TEXTSTYLE_4
 70
0
 40
0.0
 41
0.85
 50
0.0
 71
0
 42
0.2
  3
gdt
  4

  0
ENDTAB
  0
TABLE
  2
VIEW
  5
6
100
AcDbSymbolTable
 70
0
  0
ENDTAB
  0
TABLE
  2
UCS
  5
7
100
AcDbSymbolTable
 70
0
  0
ENDTAB
  0
TABLE
  2
APPID
  5
9
100
AcDbSymbolTable
 70
1
  0
APPID
  5
202
100
AcDbSymbolTableRecord
100
AcDbRegAppTableRecord
  2
ACAD
 70
0
  0
ENDTAB
  0
TABLE
  2
BLOCK_RECORD
  5
1
100
AcDbSymbolTable
 70
0
  0
BLOCK_RECORD
  5
203
100
AcDbSymbolTableRecord
100
AcDbBlockTableRecord
  2
*Model_Space
  0
BLOCK_RECORD
  5
204
100
AcDbSymbolTableRecord
100
AcDbBlockTableRecord
  2
*Paper_Space
  0
BLOCK_RECORD
  5
205
100
AcDbSymbolTableRecord
100
AcDbBlockTableRecord
  2
_FILLED
  0
BLOCK_RECORD
  5
206
100
AcDbSymbolTableRecord
100
AcDbBlockTableRecord
  2
BALLOON_BL6
  0
BLOCK_RECORD
  5
207
100
AcDbSymbolTableRecord
100
AcDbBlockTableRecord
  2
BALLOON_BL5
  0
BLOCK_RECORD
  5
208
100
AcDbSymbolTableRecord
100
AcDbBlockTableRecord
  2
BALLOON_BL4
  0
BLOCK_RECORD
  5
209
100
AcDbSymbolTableRecord
100
AcDbBlockTableRecord
  2
BALLOON_BL3
  0
BLOCK_RECORD
  5
20A
100
AcDbSymbolTableRecord
100
AcDbBlockTableRecord
  2
BALLOON_BL2
  0
BLOCK_RECORD
  5
20B
100
AcDbSymbolTableRecord
100
AcDbBlockTableRecord
  2
BALLOON_BL1
  0
BLOCK_RECORD
  5
20C
100
AcDbSymbolTableRecord
100
AcDbBlockTableRecord
  2
THIRD_ANG_BL0
  0
BLOCK_RECORD
  5
20D
100
AcDbSymbolTableRecord
100
AcDbBlockTableRecord
  2
*T1
  0
BLOCK_RECORD
  5
20E
100
AcDbSymbolTableRecord
100
AcDbBlockTableRecord
  2
*T2
  0
BLOCK_RECORD
  5
20F
100
AcDbSymbolTableRecord
100
AcDbBlockTableRecord
  2
*T3
  0
BLOCK_RECORD
  5
210
100
AcDbSymbolTableRecord
100
AcDbBlockTableRecord
  2
*T4
  0
BLOCK_RECORD
  5
211
100
AcDbSymbolTableRecord
100
AcDbBlockTableRecord
  2
*T5
  0
BLOCK_RECORD
  5
212
100
AcDbSymbolTableRecord
100
AcDbBlockTableRecord
  2
*T6
  0
BLOCK_RECORD
  5
213
100
AcDbSymbolTableRecord
100
AcDbBlockTableRecord
  2
*T7
  0
BLOCK_RECORD
  5
214
100
AcDbSymbolTableRecord
100
AcDbBlockTableRecord
  2
*T8
  0
BLOCK_RECORD
  5
215
100
AcDbSymbolTableRecord
100
AcDbBlockTableRecord
  2
*T9
  0
BLOCK_RECORD
  5
216
100
AcDbSymbolTableRecord
100
AcDbBlockTableRecord
  2
*T10
  0
BLOCK_RECORD
  5
217
100
AcDbSymbolTableRecord
100
AcDbBlockTableRecord
  2
*T11
  0
ENDTAB
  0
TABLE
  2
DIMSTYLE
  5
A
100
AcDbSymbolTable
 70
1
100
AcDbDimStyleTable
 71
0
  0
DIMSTYLE
105
218
100
AcDbSymbolTableRecord
100
AcDbDimStyleTableRecord
  2
STANDARD
 70
0
  3

  4

 40
1.0
 41
3.5
 42
1.0
 43
0.38
 44
1.5
 45
0.0
 46
0.0
 47
0.01
 48
0.01
140
5.0
141
0.09
142
0.0
143
25.4
144
1.0
145
0.0
146
1.0
147
0.625
 71
1.0
 72
0.0
 73
0
 74
0
 75
0
 76
0
 77
1
 78
0
170
0
171
2
172
0
173
0
174
0
175
0
176
0
177
0
178
0
270
2
271
2
272
2
273
2
274
2
275
0
280
0
281
0
282
0
283
1
284
0
285
0
286
0
287
3
288
0
340
11
278
44
341
205
342
205
343
205
344
205
  0
ENDTAB
  0
ENDSEC
  0
SECTION
  2
BLOCKS
  0
BLOCK
  5
20
100
AcDbEntity
  8
0
100
AcDbBlockBegin
  2
*Model_Space
 70
0
 10
0.0
 20
0.0
 30
0.0
  3
*Model_Space
  1

  0
ENDBLK
  5
21
100
AcDbEntity
  8
0
100
AcDbBlockEnd
  0
BLOCK
  5
1C
100
AcDbEntity
  8
0
100
AcDbBlockBegin
  2
*Paper_Space
 70
0
 10
0.0
 20
0.0
 30
0.0
  3
*Paper_Space
  1

  0
ENDBLK
  5
1D
100
AcDbEntity
  8
0
100
AcDbBlockEnd
  0
BLOCK
  5
219
100
AcDbEntity
  8
0
100
AcDbBlockBegin
 62
2
  6
CONTINUOUS
  2
BALLOON_BL6
 70
64
 10
317.1176859459
 20
712.9808115526
  3
BALLOON_BL6
  1

  0
CIRCLE
  5
21A
100
AcDbEntity
  8
0
100
AcDbCircle
 62
2
  6
CONTINUOUS
 10
317.1176859459
 20
712.9808115526
 40
8.0
  0
MTEXT
  5
21B
100
AcDbEntity
  8
0
100
AcDbMText
 62
2
  6
CONTINUOUS
  7
STANDARD
 71
1
 72
1
 10
310.7426859459
 20
715.4808115526
 30
0.0
 11
1.0
 21
0.0
 31
0.0
 44
0.9
  1
 6 
 40
5.0
 41
12.75
  0
ENDBLK
  5
21C
100
AcDbEntity
  8
0
  6
BYBLOCK
 62
0
100
AcDbBlockEnd
  0
BLOCK
  5
21D
100
AcDbEntity
  8
0
100
AcDbBlockBegin
 62
2
  6
CONTINUOUS
  2
BALLOON_BL5
 70
64
 10
425.1253135925
 20
730.8341729694
  3
BALLOON_BL5
  1

  0
CIRCLE
  5
21E
100
AcDbEntity
  8
0
100
AcDbCircle
 62
2
  6
CONTINUOUS
 10
425.1253135925
 20
730.8341729694
 40
8.0
  0
MTEXT
  5
21F
100
AcDbEntity
  8
0
100
AcDbMText
 62
2
  6
CONTINUOUS
  7
STANDARD
 71
1
 72
1
 10
418.7503135925
 20
733.3341729694
 30
0.0
 11
1.0
 21
0.0
 31
0.0
 44
0.9
  1
 5 
 40
5.0
 41
12.75
  0
ENDBLK
  5
220
100
AcDbEntity
  8
0
  6
BYBLOCK
 62
0
100
AcDbBlockEnd
  0
BLOCK
  5
221
100
AcDbEntity
  8
0
100
AcDbBlockBegin
 62
2
  6
CONTINUOUS
  2
BALLOON_BL4
 70
64
 10
40.948419574
 20
522.1931530487
  3
BALLOON_BL4
  1

  0
CIRCLE
  5
222
100
AcDbEntity
  8
0
100
AcDbCircle
 62
2
  6
CONTINUOUS
 10
40.948419574
 20
522.1931530487
 40
8.0
  0
MTEXT
  5
223
100
AcDbEntity
  8
0
100
AcDbMText
 62
2
  6
CONTINUOUS
  7
STANDARD
 71
1
 72
1
 10
34.573419574
 20
524.6931530487
 30
0.0
 11
1.0
 21
0.0
 31
0.0
 44
0.9
  1
 4 
 40
5.0
 41
12.75
  0
ENDBLK
  5
224
100
AcDbEntity
  8
0
  6
BYBLOCK
 62
0
100
AcDbBlockEnd
  0
BLOCK
  5
225
100
AcDbEntity
  8
0
100
AcDbBlockBegin
 62
2
  6
CONTINUOUS
  2
BALLOON_BL3
 70
64
 10
410.0999940843
 20
768.093362013
  3
BALLOON_BL3
  1

  0
CIRCLE
  5
226
100
AcDbEntity
  8
0
100
AcDbCircle
 62
2
  6
CONTINUOUS
 10
410.0999940843
 20
768.093362013
 40
8.0
  0
MTEXT
  5
227
100
AcDbEntity
  8
0
100
AcDbMText
 62
2
  6
CONTINUOUS
  7
STANDARD
 71
1
 72
1
 10
403.7249940843
 20
770.593362013
 30
0.0
 11
1.0
 21
0.0
 31
0.0
 44
0.9
  1
 3 
 40
5.0
 41
12.75
  0
ENDBLK
  5
228
100
AcDbEntity
  8
0
  6
BYBLOCK
 62
0
100
AcDbBlockEnd
  0
BLOCK
  5
229
100
AcDbEntity
  8
0
100
AcDbBlockBegin
 62
2
  6
CONTINUOUS
  2
BALLOON_BL2
 70
64
 10
529.3771187967
 20
501.0555386278
  3
BALLOON_BL2
  1

  0
CIRCLE
  5
22A
100
AcDbEntity
  8
0
100
AcDbCircle
 62
2
  6
CONTINUOUS
 10
529.3771187967
 20
501.0555386278
 40
8.0
  0
MTEXT
  5
22B
100
AcDbEntity
  8
0
100
AcDbMText
 62
2
  6
CONTINUOUS
  7
STANDARD
 71
1
 72
1
 10
523.0021187967
 20
503.5555386278
 30
0.0
 11
1.0
 21
0.0
 31
0.0
 44
0.9
  1
 2 
 40
5.0
 41
12.75
  0
ENDBLK
  5
22C
100
AcDbEntity
  8
0
  6
BYBLOCK
 62
0
100
AcDbBlockEnd
  0
BLOCK
  5
22D
100
AcDbEntity
  8
0
100
AcDbBlockBegin
 62
2
  6
CONTINUOUS
  2
BALLOON_BL1
 70
64
 10
131.6706637299
 20
596.3754829585
  3
BALLOON_BL1
  1

  0
CIRCLE
  5
22E
100
AcDbEntity
  8
0
100
AcDbCircle
 62
2
  6
CONTINUOUS
 10
131.6706637299
 20
596.3754829585
 40
8.0
  0
MTEXT
  5
22F
100
AcDbEntity
  8
0
100
AcDbMText
 62
2
  6
CONTINUOUS
  7
STANDARD
 71
1
 72
1
 10
125.2956637299
 20
598.8754829585
 30
0.0
 11
1.0
 21
0.0
 31
0.0
 44
0.9
  1
 1 
 40
5.0
 41
12.75
  0
ENDBLK
  5
230
100
AcDbEntity
  8
0
  6
BYBLOCK
 62
0
100
AcDbBlockEnd
  0
BLOCK
  5
231
100
AcDbEntity
  8
0
100
AcDbBlockBegin
 62
2
  6
CONTINUOUS
  2
THIRD_ANG_BL0
 70
64
 10
164.7329750005
 20
796.0177490758
  3
THIRD_ANG_BL0
  1

  0
CIRCLE
  5
232
100
AcDbEntity
  8
0
100
AcDbCircle
 62
7
  6
CONTINUOUS
 10
158.4274174228
 20
796.0179029886
 40
2.0000002333
  0
ARC
  5
233
100
AcDbEntity
  8
0
100
AcDbCircle
 62
7
  6
CONTINUOUS
 10
158.4274174228
 20
796.0179029886
 40
4.0000004667
100
AcDbArc
 50
270.0
 51
90.0
  0
ARC
  5
234
100
AcDbEntity
  8
0
100
AcDbCircle
 62
7
  6
CONTINUOUS
 10
158.4274174228
 20
796.0179029886
 40
4.0000004667
100
AcDbArc
 50
90.0
 51
270.0
  0
LINE
  5
235
100
AcDbEntity
  8
0
100
AcDbLine
 62
7
  6
CONTINUOUS
 10
166.4274183561
 20
798.0177493091
 11
166.4274183561
 21
794.0177488425
  0
LINE
  5
236
100
AcDbEntity
  8
0
100
AcDbLine
 62
7
  6
CONTINUOUS
 10
166.4274183561
 20
798.0177493091
 11
173.8915208421
 21
800.0177495425
  0
LINE
  5
237
100
AcDbEntity
  8
0
100
AcDbLine
 62
7
  6
CONTINUOUS
 10
166.4274183561
 20
794.0177488425
 11
173.8915208421
 21
792.0177486091
  0
LINE
  5
238
100
AcDbEntity
  8
0
100
AcDbLine
 62
7
  6
CONTINUOUS
 10
173.8915208421
 20
800.0177495425
 11
173.8915208421
 21
792.0177486091
  0
LINE
  5
239
100
AcDbEntity
  8
0
100
AcDbLine
 62
7
  6
DASHED
 10
176.4650271768
 20
796.0150843791
 11
153.0009228242
 21
796.0150843791
  0
LINE
  5
23A
100
AcDbEntity
  8
0
100
AcDbLine
 62
7
  6
DASHED
 10
158.4274174228
 20
796.0179029886
 11
158.4274174228
 21
790.0177483758
  0
LINE
  5
23B
100
AcDbEntity
  8
0
100
AcDbLine
 62
7
  6
DASHED
 10
158.4274174228
 20
802.0177497758
 11
158.4274174228
 21
796.0179029886
  0
ENDBLK
  5
23C
100
AcDbEntity
  8
0
  6
BYBLOCK
 62
0
100
AcDbBlockEnd
  0
BLOCK
  5
23D
100
AcDbEntity
  8
0
100
AcDbBlockBegin
  2
_FILLED
 70
64
 10
0.0
 20
0.0
  3
_FILLED
  1

  0
SOLID
  5
23E
100
AcDbEntity
  8
0
  6
BYBLOCK
 62
0
100
AcDbTrace
 10
0.0
 20
0.0
 11
-1.0
 21
0.2142857143
 12
-1.0
 22
-0.2142857143
 13
-1.0
 23
-0.2142857143
  0
ENDBLK
  5
23F
100
AcDbEntity
  8
0
  6
BYBLOCK
 62
0
100
AcDbBlockEnd
  0
BLOCK
  5
240
100
AcDbEntity
  8
0
100
AcDbBlockBegin
  2
*T1
 70
1
 10
0.0
 20
0.0
  3
*T1
  1

  0
LINE
  5
241
100
AcDbEntity
  8
0
100
AcDbLine
 62
2
  6
CONTINUOUS
 10
0.0
 20
0.0
 11
238.0
 21
0.0
  0
LINE
  5
242
100
AcDbEntity
  8
0
100
AcDbLine
 62
2
  6
CONTINUOUS
 10
0.0
 20
0.0
 11
0.0
 21
-77.5
  0
LINE
  5
243
100
AcDbEntity
  8
0
100
AcDbLine
 62
2
  6
CONTINUOUS
 10
0.0
 20
-17.5
 11
238.0
 21
-17.5
  0
LINE
  5
244
100
AcDbEntity
  8
0
100
AcDbLine
 62
2
  6
CONTINUOUS
 10
0.0
 20
-27.5
 11
238.0
 21
-27.5
  0
LINE
  5
245
100
AcDbEntity
  8
0
100
AcDbLine
 62
2
  6
CONTINUOUS
 10
0.0
 20
-37.5
 11
238.0
 21
-37.5
  0
LINE
  5
246
100
AcDbEntity
  8
0
100
AcDbLine
 62
2
  6
CONTINUOUS
 10
0.0
 20
-47.5
 11
238.0
 21
-47.5
  0
LINE
  5
247
100
AcDbEntity
  8
0
100
AcDbLine
 62
2
  6
CONTINUOUS
 10
0.0
 20
-57.5
 11
238.0
 21
-57.5
  0
LINE
  5
248
100
AcDbEntity
  8
0
100
AcDbLine
 62
2
  6
CONTINUOUS
 10
0.0
 20
-67.5
 11
238.0
 21
-67.5
  0
LINE
  5
249
100
AcDbEntity
  8
0
100
AcDbLine
 62
2
  6
CONTINUOUS
 10
0.0
 20
-77.5
 11
238.0
 21
-77.5
  0
LINE
  5
24A
100
AcDbEntity
  8
0
100
AcDbLine
 62
2
  6
CONTINUOUS
 10
21.25
 20
0.0
 11
21.25
 21
-77.5
  0
LINE
  5
24B
100
AcDbEntity
  8
0
100
AcDbLine
 62
2
  6
CONTINUOUS
 10
102.0
 20
0.0
 11
102.0
 21
-77.5
  0
LINE
  5
24C
100
AcDbEntity
  8
0
100
AcDbLine
 62
2
  6
CONTINUOUS
 10
178.5
 20
0.0
 11
178.5
 21
-77.5
  0
LINE
  5
24D
100
AcDbEntity
  8
0
100
AcDbLine
 62
2
  6
CONTINUOUS
 10
221.0
 20
0.0
 11
221.0
 21
-77.5
  0
LINE
  5
24E
100
AcDbEntity
  8
0
100
AcDbLine
 62
2
  6
CONTINUOUS
 10
238.0
 20
0.0
 11
238.0
 21
-77.5
  0
MTEXT
  5
24F
100
AcDbEntity
  8
0
100
AcDbMText
 62
2
  6
CONTINUOUS
  7
STANDARD
 71
1
 72
1
 10
2.125
 20
-2.5
 30
0.0
 11
1.0
 21
0.0
 31
0.0
 44
0.9
  1
ITEM
 40
5.0
 41
34.0
  0
MTEXT
  5
250
100
AcDbEntity
  8
0
100
AcDbMText
 62
2
  6
CONTINUOUS
  7
STANDARD
 71
1
 72
1
 10
23.375
 20
-2.5
 30
0.0
 11
1.0
 21
0.0
 31
0.0
 44
0.9
  1
DESCRIPTION
 40
5.0
 41
93.5
  0
MTEXT
  5
251
100
AcDbEntity
  8
0
100
AcDbMText
 62
2
  6
CONTINUOUS
  7
STANDARD
 71
1
 72
1
 10
104.125
 20
-2.5
 30
0.0
 11
1.0
 21
0.0
 31
0.0
 44
0.9
  1
PART NO
 40
5.0
 41
59.5
  0
MTEXT
  5
252
100
AcDbEntity
  8
0
100
AcDbMText
 62
2
  6
CONTINUOUS
  7
STANDARD
 71
1
 72
1
 10
180.625
 20
-2.5
 30
0.0
 11
1.0
 21
0.0
 31
0.0
 44
0.9
  1
MATL
 40
5.0
 41
34.0
  0
MTEXT
  5
253
100
AcDbEntity
  8
0
100
AcDbMText
 62
2
  6
CONTINUOUS
  7
STANDARD
 71
1
 72
1
 10
223.125
 20
-2.5
 30
0.0
 11
1.0
 21
0.0
 31
0.0
 44
0.9
  1
QTY
 40
5.0
 41
25.5
  0
MTEXT
  5
254
100
AcDbEntity
  8
0
100
AcDbMText
 62
2
  6
CONTINUOUS
  7
STANDARD
 71
1
 72
1
 10
2.125
 20
-20.0
 30
0.0
 11
1.0
 21
0.0
 31
0.0
 44
0.9
  1
1
 40
5.0
 41
8.5
  0
MTEXT
  5
255
100
AcDbEntity
  8
0
100
AcDbMText
 62
2
  6
CONTINUOUS
  7
STANDARD
 71
1
 72
1
 10
104.125
 20
-20.0
 30
0.0
 11
1.0
 21
0.0
 31
0.0
 44
0.9
  1
CENTRE_SHAFT
 40
5.0
 41
102.0
  0
MTEXT
  5
256
100
AcDbEntity
  8
0
100
AcDbMText
 62
2
  6
CONTINUOUS
  7
STANDARD
 71
1
 72
1
 10
180.625
 20
-20.0
 30
0.0
 11
1.0
 21
0.0
 31
0.0
 44
0.9
  1
220M07
 40
5.0
 41
51.0
  0
MTEXT
  5
257
100
AcDbEntity
  8
0
100
AcDbMText
 62
2
  6
CONTINUOUS
  7
STANDARD
 71
1
 72
1
 10
223.125
 20
-20.0
 30
0.0
 11
1.0
 21
0.0
 31
0.0
 44
0.9
  1
1
 40
5.0
 41
8.5
  0
MTEXT
  5
258
100
AcDbEntity
  8
0
100
AcDbMText
 62
2
  6
CONTINUOUS
  7
STANDARD
 71
1
 72
1
 10
2.125
 20
-30.0
 30
0.0
 11
1.0
 21
0.0
 31
0.0
 44
0.9
  1
2
 40
5.0
 41
8.5
  0
MTEXT
  5
259
100
AcDbEntity
  8
0
100
AcDbMText
 62
2
  6
CONTINUOUS
  7
STANDARD
 71
1
 72
1
 10
104.125
 20
-30.0
 30
0.0
 11
1.0
 21
0.0
 31
0.0
 44
0.9
  1
FLAP
 40
5.0
 41
34.0
  0
MTEXT
  5
25A
100
AcDbEntity
  8
0
100
AcDbMText
 62
2
  6
CONTINUOUS
  7
STANDARD
 71
1
 72
1
 10
180.625
 20
-30.0
 30
0.0
 11
1.0
 21
0.0
 31
0.0
 44
0.9
  1
220M07
 40
5.0
 41
51.0
  0
MTEXT
  5
25B
100
AcDbEntity
  8
0
100
AcDbMText
 62
2
  6
CONTINUOUS
  7
STANDARD
 71
1
 72
1
 10
223.125
 20
-30.0
 30
0.0
 11
1.0
 21
0.0
 31
0.0
 44
0.9
  1
1
 40
5.0
 41
8.5
  0
MTEXT
  5
25C
100
AcDbEntity
  8
0
100
AcDbMText
 62
2
  6
CONTINUOUS
  7
STANDARD
 71
1
 72
1
 10
2.125
 20
-40.0
 30
0.0
 11
1.0
 21
0.0
 31
0.0
 44
0.9
  1
3
 40
5.0
 41
8.5
  0
MTEXT
  5
25D
100
AcDbEntity
  8
0
100
AcDbMText
 62
2
  6
CONTINUOUS
  7
STANDARD
 71
1
 72
1
 10
104.125
 20
-40.0
 30
0.0
 11
1.0
 21
0.0
 31
0.0
 44
0.9
  1
RADIUS_ARM
 40
5.0
 41
85.0
  0
MTEXT
  5
25E
100
AcDbEntity
  8
0
100
AcDbMText
 62
2
  6
CONTINUOUS
  7
STANDARD
 71
1
 72
1
 10
180.625
 20
-40.0
 30
0.0
 11
1.0
 21
0.0
 31
0.0
 44
0.9
  1
220M07
 40
5.0
 41
51.0
  0
MTEXT
  5
25F
100
AcDbEntity
  8
0
100
AcDbMText
 62
2
  6
CONTINUOUS
  7
STANDARD
 71
1
 72
1
 10
223.125
 20
-40.0
 30
0.0
 11
1.0
 21
0.0
 31
0.0
 44
0.9
  1
1
 40
5.0
 41
8.5
  0
MTEXT
  5
260
100
AcDbEntity
  8
0
100
AcDbMText
 62
2
  6
CONTINUOUS
  7
STANDARD
 71
1
 72
1
 10
2.125
 20
-50.0
 30
0.0
 11
1.0
 21
0.0
 31
0.0
 44
0.9
  1
4
 40
5.0
 41
8.5
  0
MTEXT
  5
261
100
AcDbEntity
  8
0
100
AcDbMText
 62
2
  6
CONTINUOUS
  7
STANDARD
 71
1
 72
1
 10
104.125
 20
-50.0
 30
0.0
 11
1.0
 21
0.0
 31
0.0
 44
0.9
  1
RADIUS_ARM_OH
 40
5.0
 41
110.5
  0
MTEXT
  5
262
100
AcDbEntity
  8
0
100
AcDbMText
 62
2
  6
CONTINUOUS
  7
STANDARD
 71
1
 72
1
 10
180.625
 20
-50.0
 30
0.0
 11
1.0
 21
0.0
 31
0.0
 44
0.9
  1
220M07
 40
5.0
 41
51.0
  0
MTEXT
  5
263
100
AcDbEntity
  8
0
100
AcDbMText
 62
2
  6
CONTINUOUS
  7
STANDARD
 71
1
 72
1
 10
223.125
 20
-50.0
 30
0.0
 11
1.0
 21
0.0
 31
0.0
 44
0.9
  1
1
 40
5.0
 41
8.5
  0
MTEXT
  5
264
100
AcDbEntity
  8
0
100
AcDbMText
 62
2
  6
CONTINUOUS
  7
STANDARD
 71
1
 72
1
 10
2.125
 20
-60.0
 30
0.0
 11
1.0
 21
0.0
 31
0.0
 44
0.9
  1
5
 40
5.0
 41
8.5
  0
MTEXT
  5
265
100
AcDbEntity
  8
0
100
AcDbMText
 62
2
  6
CONTINUOUS
  7
STANDARD
 71
1
 72
1
 10
104.125
 20
-60.0
 30
0.0
 11
1.0
 21
0.0
 31
0.0
 44
0.9
  1
A500FM_1012_07_3
 40
5.0
 41
136.0
  0
MTEXT
  5
266
100
AcDbEntity
  8
0
100
AcDbMText
 62
2
  6
CONTINUOUS
  7
STANDARD
 71
1
 72
1
 10
223.125
 20
-60.0
 30
0.0
 11
1.0
 21
0.0
 31
0.0
 44
0.9
  1
2
 40
5.0
 41
8.5
  0
MTEXT
  5
267
100
AcDbEntity
  8
0
100
AcDbMText
 62
2
  6
CONTINUOUS
  7
STANDARD
 71
1
 72
1
 10
2.125
 20
-70.0
 30
0.0
 11
1.0
 21
0.0
 31
0.0
 44
0.9
  1
6
 40
5.0
 41
8.5
  0
MTEXT
  5
268
100
AcDbEntity
  8
0
100
AcDbMText
 62
2
  6
CONTINUOUS
  7
STANDARD
 71
1
 72
1
 10
104.125
 20
-70.0
 30
0.0
 11
1.0
 21
0.0
 31
0.0
 44
0.9
  1
A500FM_1012_07_3_SHORT
 40
5.0
 41
187.0
  0
MTEXT
  5
269
100
AcDbEntity
  8
0
100
AcDbMText
 62
2
  6
CONTINUOUS
  7
STANDARD
 71
1
 72
1
 10
223.125
 20
-70.0
 30
0.0
 11
1.0
 21
0.0
 31
0.0
 44
0.9
  1
2
 40
5.0
 41
8.5
  0
ENDBLK
  5
26A
100
AcDbEntity
  8
0
  6
BYBLOCK
 62
0
100
AcDbBlockEnd
  0
BLOCK
  5
26B
100
AcDbEntity
  8
0
100
AcDbBlockBegin
  2
*T2
 70
1
 10
0.0
 20
0.0
  3
*T2
  1

  0
LINE
  5
26C
100
AcDbEntity
  8
0
100
AcDbLine
 62
2
  6
CONTINUOUS
 10
0.0
 20
0.0
 11
1129.0
 21
0.0
  0
LINE
  5
26D
100
AcDbEntity
  8
0
100
AcDbLine
 62
2
  6
CONTINUOUS
 10
0.0
 20
0.0
 11
0.0
 21
-10.0
  0
LINE
  5
26E
100
AcDbEntity
  8
0
100
AcDbLine
 62
2
  6
CONTINUOUS
 10
0.0
 20
-10.0
 11
1129.0
 21
-10.0
  0
LINE
  5
26F
100
AcDbEntity
  8
0
100
AcDbLine
 62
2
  6
CONTINUOUS
 10
56.45
 20
0.0
 11
56.45
 21
-10.0
  0
LINE
  5
270
100
AcDbEntity
  8
0
100
AcDbLine
 62
2
  6
CONTINUOUS
 10
112.9
 20
0.0
 11
112.9
 21
-10.0
  0
LINE
  5
271
100
AcDbEntity
  8
0
100
AcDbLine
 62
2
  6
CONTINUOUS
 10
169.35
 20
0.0
 11
169.35
 21
-10.0
  0
LINE
  5
272
100
AcDbEntity
  8
0
100
AcDbLine
 62
2
  6
CONTINUOUS
 10
225.8
 20
0.0
 11
225.8
 21
-10.0
  0
LINE
  5
273
100
AcDbEntity
  8
0
100
AcDbLine
 62
2
  6
CONTINUOUS
 10
282.25
 20
0.0
 11
282.25
 21
-10.0
  0
LINE
  5
274
100
AcDbEntity
  8
0
100
AcDbLine
 62
2
  6
CONTINUOUS
 10
338.7
 20
0.0
 11
338.7
 21
-10.0
  0
LINE
  5
275
100
AcDbEntity
  8
0
100
AcDbLine
 62
2
  6
CONTINUOUS
 10
395.15
 20
0.0
 11
395.15
 21
-10.0
  0
LINE
  5
276
100
AcDbEntity
  8
0
100
AcDbLine
 62
2
  6
CONTINUOUS
 10
451.6
 20
0.0
 11
451.6
 21
-10.0
  0
LINE
  5
277
100
AcDbEntity
  8
0
100
AcDbLine
 62
2
  6
CONTINUOUS
 10
508.05
 20
0.0
 11
508.05
 21
-10.0
  0
LINE
  5
278
100
AcDbEntity
  8
0
100
AcDbLine
 62
2
  6
CONTINUOUS
 10
564.5
 20
0.0
 11
564.5
 21
-10.0
  0
LINE
  5
279
100
AcDbEntity
  8
0
100
AcDbLine
 62
2
  6
CONTINUOUS
 10
620.95
 20
0.0
 11
620.95
 21
-10.0
  0
LINE
  5
27A
100
AcDbEntity
  8
0
100
AcDbLine
 62
2
  6
CONTINUOUS
 10
677.4
 20
0.0
 11
677.4
 21
-10.0
  0
LINE
  5
27B
100
AcDbEntity
  8
0
100
AcDbLine
 62
2
  6
CONTINUOUS
 10
733.85
 20
0.0
 11
733.85
 21
-10.0
  0
LINE
  5
27C
100
AcDbEntity
  8
0
100
AcDbLine
 62
2
  6
CONTINUOUS
 10
790.3
 20
0.0
 11
790.3
 21
-10.0
  0
LINE
  5
27D
100
AcDbEntity
  8
0
100
AcDbLine
 62
2
  6
CONTINUOUS
 10
846.75
 20
0.0
 11
846.75
 21
-10.0
  0
LINE
  5
27E
100
AcDbEntity
  8
0
100
AcDbLine
 62
2
  6
CONTINUOUS
 10
903.2
 20
0.0
 11
903.2
 21
-10.0
  0
LINE
  5
27F
100
AcDbEntity
  8
0
100
AcDbLine
 62
2
  6
CONTINUOUS
 10
959.65
 20
0.0
 11
959.65
 21
-10.0
  0
LINE
  5
280
100
AcDbEntity
  8
0
100
AcDbLine
 62
2
  6
CONTINUOUS
 10
1016.1
 20
0.0
 11
1016.1
 21
-10.0
  0
LINE
  5
281
100
AcDbEntity
  8
0
100
AcDbLine
 62
2
  6
CONTINUOUS
 10
1072.55
 20
0.0
 11
1072.55
 21
-10.0
  0
LINE
  5
282
100
AcDbEntity
  8
0
100
AcDbLine
 62
2
  6
CONTINUOUS
 10
1129.0
 20
0.0
 11
1129.0
 21
-10.0
  0
MTEXT
  5
283
100
AcDbEntity
  8
0
100
AcDbMText
 62
2
  6
CONTINUOUS
  7
TEXTSTYLE_2
 71
2
 72
1
 10
28.225
 20
-3.5
 30
0.0
 11
1.0
 21
0.0
 31
0.0
 44
0.9
  1
1
 40
3.0
 41
4.8
  0
MTEXT
  5
284
100
AcDbEntity
  8
0
100
AcDbMText
 62
2
  6
CONTINUOUS
  7
TEXTSTYLE_2
 71
2
 72
1
 10
84.675
 20
-3.5
 30
0.0
 11
1.0
 21
0.0
 31
0.0
 44
0.9
  1
2
 40
3.0
 41
4.8
  0
MTEXT
  5
285
100
AcDbEntity
  8
0
100
AcDbMText
 62
2
  6
CONTINUOUS
  7
TEXTSTYLE_2
 71
2
 72
1
 10
141.125
 20
-3.5
 30
0.0
 11
1.0
 21
0.0
 31
0.0
 44
0.9
  1
3
 40
3.0
 41
4.8
  0
MTEXT
  5
286
100
AcDbEntity
  8
0
100
AcDbMText
 62
2
  6
CONTINUOUS
  7
TEXTSTYLE_2
 71
2
 72
1
 10
197.575
 20
-3.5
 30
0.0
 11
1.0
 21
0.0
 31
0.0
 44
0.9
  1
4
 40
3.0
 41
4.8
  0
MTEXT
  5
287
100
AcDbEntity
  8
0
100
AcDbMText
 62
2
  6
CONTINUOUS
  7
TEXTSTYLE_2
 71
2
 72
1
 10
254.025
 20
-3.5
 30
0.0
 11
1.0
 21
0.0
 31
0.0
 44
0.9
  1
5
 40
3.0
 41
4.8
  0
MTEXT
  5
288
100
AcDbEntity
  8
0
100
AcDbMText
 62
2
  6
CONTINUOUS
  7
TEXTSTYLE_2
 71
2
 72
1
 10
310.475
 20
-3.5
 30
0.0
 11
1.0
 21
0.0
 31
0.0
 44
0.9
  1
6
 40
3.0
 41
4.8
  0
MTEXT
  5
289
100
AcDbEntity
  8
0
100
AcDbMText
 62
2
  6
CONTINUOUS
  7
TEXTSTYLE_2
 71
2
 72
1
 10
366.925
 20
-3.5
 30
0.0
 11
1.0
 21
0.0
 31
0.0
 44
0.9
  1
7
 40
3.0
 41
4.8
  0
MTEXT
  5
28A
100
AcDbEntity
  8
0
100
AcDbMText
 62
2
  6
CONTINUOUS
  7
TEXTSTYLE_2
 71
2
 72
1
 10
423.375
 20
-3.5
 30
0.0
 11
1.0
 21
0.0
 31
0.0
 44
0.9
  1
8
 40
3.0
 41
4.8
  0
MTEXT
  5
28B
100
AcDbEntity
  8
0
100
AcDbMText
 62
2
  6
CONTINUOUS
  7
TEXTSTYLE_2
 71
2
 72
1
 10
479.825
 20
-3.5
 30
0.0
 11
1.0
 21
0.0
 31
0.0
 44
0.9
  1
9
 40
3.0
 41
4.8
  0
MTEXT
  5
28C
100
AcDbEntity
  8
0
100
AcDbMText
 62
2
  6
CONTINUOUS
  7
TEXTSTYLE_2
 71
2
 72
1
 10
536.275
 20
-3.5
 30
0.0
 11
1.0
 21
0.0
 31
0.0
 44
0.9
  1
10
 40
3.0
 41
9.6
  0
MTEXT
  5
28D
100
AcDbEntity
  8
0
100
AcDbMText
 62
2
  6
CONTINUOUS
  7
TEXTSTYLE_2
 71
2
 72
1
 10
592.725
 20
-3.5
 30
0.0
 11
1.0
 21
0.0
 31
0.0
 44
0.9
  1
11
 40
3.0
 41
9.6
  0
MTEXT
  5
28E
100
AcDbEntity
  8
0
100
AcDbMText
 62
2
  6
CONTINUOUS
  7
TEXTSTYLE_2
 71
2
 72
1
 10
649.175
 20
-3.5
 30
0.0
 11
1.0
 21
0.0
 31
0.0
 44
0.9
  1
12
 40
3.0
 41
9.6
  0
MTEXT
  5
28F
100
AcDbEntity
  8
0
100
AcDbMText
 62
2
  6
CONTINUOUS
  7
TEXTSTYLE_2
 71
2
 72
1
 10
705.625
 20
-3.5
 30
0.0
 11
1.0
 21
0.0
 31
0.0
 44
0.9
  1
13
 40
3.0
 41
9.6
  0
MTEXT
  5
290
100
AcDbEntity
  8
0
100
AcDbMText
 62
2
  6
CONTINUOUS
  7
TEXTSTYLE_2
 71
2
 72
1
 10
762.075
 20
-3.5
 30
0.0
 11
1.0
 21
0.0
 31
0.0
 44
0.9
  1
14
 40
3.0
 41
9.6
  0
MTEXT
  5
291
100
AcDbEntity
  8
0
100
AcDbMText
 62
2
  6
CONTINUOUS
  7
TEXTSTYLE_2
 71
2
 72
1
 10
818.525
 20
-3.5
 30
0.0
 11
1.0
 21
0.0
 31
0.0
 44
0.9
  1
15
 40
3.0
 41
9.6
  0
MTEXT
  5
292
100
AcDbEntity
  8
0
100
AcDbMText
 62
2
  6
CONTINUOUS
  7
TEXTSTYLE_2
 71
2
 72
1
 10
874.975
 20
-3.5
 30
0.0
 11
1.0
 21
0.0
 31
0.0
 44
0.9
  1
16
 40
3.0
 41
9.6
  0
MTEXT
  5
293
100
AcDbEntity
  8
0
100
AcDbMText
 62
2
  6
CONTINUOUS
  7
TEXTSTYLE_2
 71
2
 72
1
 10
931.425
 20
-3.5
 30
0.0
 11
1.0
 21
0.0
 31
0.0
 44
0.9
  1
17
 40
3.0
 41
9.6
  0
MTEXT
  5
294
100
AcDbEntity
  8
0
100
AcDbMText
 62
2
  6
CONTINUOUS
  7
TEXTSTYLE_2
 71
2
 72
1
 10
987.875
 20
-3.5
 30
0.0
 11
1.0
 21
0.0
 31
0.0
 44
0.9
  1
18
 40
3.0
 41
9.6
  0
MTEXT
  5
295
100
AcDbEntity
  8
0
100
AcDbMText
 62
2
  6
CONTINUOUS
  7
TEXTSTYLE_2
 71
2
 72
1
 10
1044.325
 20
-3.5
 30
0.0
 11
1.0
 21
0.0
 31
0.0
 44
0.9
  1
19
 40
3.0
 41
9.6
  0
MTEXT
  5
296
100
AcDbEntity
  8
0
100
AcDbMText
 62
2
  6
CONTINUOUS
  7
TEXTSTYLE_2
 71
2
 72
1
 10
1100.775
 20
-3.5
 30
0.0
 11
1.0
 21
0.0
 31
0.0
 44
0.9
  1
20
 40
3.0
 41
9.6
  0
ENDBLK
  5
297
100
AcDbEntity
  8
0
  6
BYBLOCK
 62
0
100
AcDbBlockEnd
  0
BLOCK
  5
298
100
AcDbEntity
  8
0
100
AcDbBlockBegin
  2
*T3
 70
1
 10
0.0
 20
0.0
  3
*T3
  1

  0
LINE
  5
299
100
AcDbEntity
  8
0
100
AcDbLine
 62
2
  6
CONTINUOUS
 10
0.0
 20
0.0
 11
10.0
 21
0.0
  0
LINE
  5
29A
100
AcDbEntity
  8
0
100
AcDbLine
 62
2
  6
CONTINUOUS
 10
0.0
 20
0.0
 11
0.0
 21
-781.004
  0
LINE
  5
29B
100
AcDbEntity
  8
0
100
AcDbLine
 62
2
  6
CONTINUOUS
 10
0.0
 20
-55.786
 11
10.0
 21
-55.786
  0
LINE
  5
29C
100
AcDbEntity
  8
0
100
AcDbLine
 62
2
  6
CONTINUOUS
 10
0.0
 20
-111.572
 11
10.0
 21
-111.572
  0
LINE
  5
29D
100
AcDbEntity
  8
0
100
AcDbLine
 62
2
  6
CONTINUOUS
 10
0.0
 20
-167.358
 11
10.0
 21
-167.358
  0
LINE
  5
29E
100
AcDbEntity
  8
0
100
AcDbLine
 62
2
  6
CONTINUOUS
 10
0.0
 20
-223.144
 11
10.0
 21
-223.144
  0
LINE
  5
29F
100
AcDbEntity
  8
0
100
AcDbLine
 62
2
  6
CONTINUOUS
 10
0.0
 20
-278.93
 11
10.0
 21
-278.93
  0
LINE
  5
2A0
100
AcDbEntity
  8
0
100
AcDbLine
 62
2
  6
CONTINUOUS
 10
0.0
 20
-334.716
 11
10.0
 21
-334.716
  0
LINE
  5
2A1
100
AcDbEntity
  8
0
100
AcDbLine
 62
2
  6
CONTINUOUS
 10
0.0
 20
-390.502
 11
10.0
 21
-390.502
  0
LINE
  5
2A2
100
AcDbEntity
  8
0
100
AcDbLine
 62
2
  6
CONTINUOUS
 10
0.0
 20
-446.288
 11
10.0
 21
-446.288
  0
LINE
  5
2A3
100
AcDbEntity
  8
0
100
AcDbLine
 62
2
  6
CONTINUOUS
 10
0.0
 20
-502.074
 11
10.0
 21
-502.074
  0
LINE
  5
2A4
100
AcDbEntity
  8
0
100
AcDbLine
 62
2
  6
CONTINUOUS
 10
0.0
 20
-557.86
 11
10.0
 21
-557.86
  0
LINE
  5
2A5
100
AcDbEntity
  8
0
100
AcDbLine
 62
2
  6
CONTINUOUS
 10
0.0
 20
-613.646
 11
10.0
 21
-613.646
  0
LINE
  5
2A6
100
AcDbEntity
  8
0
100
AcDbLine
 62
2
  6
CONTINUOUS
 10
0.0
 20
-669.432
 11
10.0
 21
-669.432
  0
LINE
  5
2A7
100
AcDbEntity
  8
0
100
AcDbLine
 62
2
  6
CONTINUOUS
 10
0.0
 20
-725.218
 11
10.0
 21
-725.218
  0
LINE
  5
2A8
100
AcDbEntity
  8
0
100
AcDbLine
 62
2
  6
CONTINUOUS
 10
0.0
 20
-781.004
 11
10.0
 21
-781.004
  0
LINE
  5
2A9
100
AcDbEntity
  8
0
100
AcDbLine
 62
2
  6
CONTINUOUS
 10
10.0
 20
0.0
 11
10.0
 21
-781.004
  0
MTEXT
  5
2AA
100
AcDbEntity
  8
0
100
AcDbMText
 62
2
  6
CONTINUOUS
  7
TEXTSTYLE_2
 71
2
 72
1
 10
5.0
 20
-26.393
 30
0.0
 11
1.0
 21
0.0
 31
0.0
 44
0.9
  1
A
 40
3.0
 41
4.8
  0
MTEXT
  5
2AB
100
AcDbEntity
  8
0
100
AcDbMText
 62
2
  6
CONTINUOUS
  7
TEXTSTYLE_2
 71
2
 72
1
 10
5.0
 20
-82.179
 30
0.0
 11
1.0
 21
0.0
 31
0.0
 44
0.9
  1
B
 40
3.0
 41
4.8
  0
MTEXT
  5
2AC
100
AcDbEntity
  8
0
100
AcDbMText
 62
2
  6
CONTINUOUS
  7
TEXTSTYLE_2
 71
2
 72
1
 10
5.0
 20
-137.965
 30
0.0
 11
1.0
 21
0.0
 31
0.0
 44
0.9
  1
C
 40
3.0
 41
4.8
  0
MTEXT
  5
2AD
100
AcDbEntity
  8
0
100
AcDbMText
 62
2
  6
CONTINUOUS
  7
TEXTSTYLE_2
 71
2
 72
1
 10
5.0
 20
-193.751
 30
0.0
 11
1.0
 21
0.0
 31
0.0
 44
0.9
  1
D
 40
3.0
 41
4.8
  0
MTEXT
  5
2AE
100
AcDbEntity
  8
0
100
AcDbMText
 62
2
  6
CONTINUOUS
  7
TEXTSTYLE_2
 71
2
 72
1
 10
5.0
 20
-249.537
 30
0.0
 11
1.0
 21
0.0
 31
0.0
 44
0.9
  1
E
 40
3.0
 41
4.8
  0
MTEXT
  5
2AF
100
AcDbEntity
  8
0
100
AcDbMText
 62
2
  6
CONTINUOUS
  7
TEXTSTYLE_2
 71
2
 72
1
 10
5.0
 20
-305.323
 30
0.0
 11
1.0
 21
0.0
 31
0.0
 44
0.9
  1
F
 40
3.0
 41
4.8
  0
MTEXT
  5
2B0
100
AcDbEntity
  8
0
100
AcDbMText
 62
2
  6
CONTINUOUS
  7
TEXTSTYLE_2
 71
2
 72
1
 10
5.0
 20
-361.109
 30
0.0
 11
1.0
 21
0.0
 31
0.0
 44
0.9
  1
G
 40
3.0
 41
4.8
  0
MTEXT
  5
2B1
100
AcDbEntity
  8
0
100
AcDbMText
 62
2
  6
CONTINUOUS
  7
TEXTSTYLE_2
 71
2
 72
1
 10
5.0
 20
-416.895
 30
0.0
 11
1.0
 21
0.0
 31
0.0
 44
0.9
  1
H
 40
3.0
 41
4.8
  0
MTEXT
  5
2B2
100
AcDbEntity
  8
0
100
AcDbMText
 62
2
  6
CONTINUOUS
  7
TEXTSTYLE_2
 71
2
 72
1
 10
5.0
 20
-472.681
 30
0.0
 11
1.0
 21
0.0
 31
0.0
 44
0.9
  1
J
 40
3.0
 41
4.8
  0
MTEXT
  5
2B3
100
AcDbEntity
  8
0
100
AcDbMText
 62
2
  6
CONTINUOUS
  7
TEXTSTYLE_2
 71
2
 72
1
 10
5.0
 20
-528.467
 30
0.0
 11
1.0
 21
0.0
 31
0.0
 44
0.9
  1
K
 40
3.0
 41
4.8
  0
MTEXT
  5
2B4
100
AcDbEntity
  8
0
100
AcDbMText
 62
2
  6
CONTINUOUS
  7
TEXTSTYLE_2
 71
2
 72
1
 10
5.0
 20
-584.253
 30
0.0
 11
1.0
 21
0.0
 31
0.0
 44
0.9
  1
L
 40
3.0
 41
4.8
  0
MTEXT
  5
2B5
100
AcDbEntity
  8
0
100
AcDbMText
 62
2
  6
CONTINUOUS
  7
TEXTSTYLE_2
 71
2
 72
1
 10
5.0
 20
-640.039
 30
0.0
 11
1.0
 21
0.0
 31
0.0
 44
0.9
  1
M
 40
3.0
 41
4.8
  0
MTEXT
  5
2B6
100
AcDbEntity
  8
0
100
AcDbMText
 62
2
  6
CONTINUOUS
  7
TEXTSTYLE_2
 71
2
 72
1
 10
5.0
 20
-695.825
 30
0.0
 11
1.0
 21
0.0
 31
0.0
 44
0.9
  1
N
 40
3.0
 41
4.8
  0
MTEXT
  5
2B7
100
AcDbEntity
  8
0
100
AcDbMText
 62
2
  6
CONTINUOUS
  7
TEXTSTYLE_2
 71
2
 72
1
 10
5.0
 20
-751.611
 30
0.0
 11
1.0
 21
0.0
 31
0.0
 44
0.9
  1
P
 40
3.0
 41
4.8
  0
ENDBLK
  5
2B8
100
AcDbEntity
  8
0
  6
BYBLOCK
 62
0
100
AcDbBlockEnd
  0
BLOCK
  5
2B9
100
AcDbEntity
  8
0
100
AcDbBlockBegin
  2
*T4
 70
1
 10
0.0
 20
0.0
  3
*T4
  1

  0
LINE
  5
2BA
100
AcDbEntity
  8
0
100
AcDbLine
 62
2
  6
CONTINUOUS
 10
0.0
 20
0.0
 11
1129.0
 21
0.0
  0
LINE
  5
2BB
100
AcDbEntity
  8
0
100
AcDbLine
 62
2
  6
CONTINUOUS
 10
0.0
 20
0.0
 11
0.0
 21
-10.0
  0
LINE
  5
2BC
100
AcDbEntity
  8
0
100
AcDbLine
 62
2
  6
CONTINUOUS
 10
0.0
 20
-10.0
 11
1129.0
 21
-10.0
  0
LINE
  5
2BD
100
AcDbEntity
  8
0
100
AcDbLine
 62
2
  6
CONTINUOUS
 10
56.45
 20
0.0
 11
56.45
 21
-10.0
  0
LINE
  5
2BE
100
AcDbEntity
  8
0
100
AcDbLine
 62
2
  6
CONTINUOUS
 10
112.9
 20
0.0
 11
112.9
 21
-10.0
  0
LINE
  5
2BF
100
AcDbEntity
  8
0
100
AcDbLine
 62
2
  6
CONTINUOUS
 10
169.35
 20
0.0
 11
169.35
 21
-10.0
  0
LINE
  5
2C0
100
AcDbEntity
  8
0
100
AcDbLine
 62
2
  6
CONTINUOUS
 10
225.8
 20
0.0
 11
225.8
 21
-10.0
  0
LINE
  5
2C1
100
AcDbEntity
  8
0
100
AcDbLine
 62
2
  6
CONTINUOUS
 10
282.25
 20
0.0
 11
282.25
 21
-10.0
  0
LINE
  5
2C2
100
AcDbEntity
  8
0
100
AcDbLine
 62
2
  6
CONTINUOUS
 10
338.7
 20
0.0
 11
338.7
 21
-10.0
  0
LINE
  5
2C3
100
AcDbEntity
  8
0
100
AcDbLine
 62
2
  6
CONTINUOUS
 10
395.15
 20
0.0
 11
395.15
 21
-10.0
  0
LINE
  5
2C4
100
AcDbEntity
  8
0
100
AcDbLine
 62
2
  6
CONTINUOUS
 10
451.6
 20
0.0
 11
451.6
 21
-10.0
  0
LINE
  5
2C5
100
AcDbEntity
  8
0
100
AcDbLine
 62
2
  6
CONTINUOUS
 10
508.05
 20
0.0
 11
508.05
 21
-10.0
  0
LINE
  5
2C6
100
AcDbEntity
  8
0
100
AcDbLine
 62
2
  6
CONTINUOUS
 10
564.5
 20
0.0
 11
564.5
 21
-10.0
  0
LINE
  5
2C7
100
AcDbEntity
  8
0
100
AcDbLine
 62
2
  6
CONTINUOUS
 10
620.95
 20
0.0
 11
620.95
 21
-10.0
  0
LINE
  5
2C8
100
AcDbEntity
  8
0
100
AcDbLine
 62
2
  6
CONTINUOUS
 10
677.4
 20
0.0
 11
677.4
 21
-10.0
  0
LINE
  5
2C9
100
AcDbEntity
  8
0
100
AcDbLine
 62
2
  6
CONTINUOUS
 10
733.85
 20
0.0
 11
733.85
 21
-10.0
  0
LINE
  5
2CA
100
AcDbEntity
  8
0
100
AcDbLine
 62
2
  6
CONTINUOUS
 10
790.3
 20
0.0
 11
790.3
 21
-10.0
  0
LINE
  5
2CB
100
AcDbEntity
  8
0
100
AcDbLine
 62
2
  6
CONTINUOUS
 10
846.75
 20
0.0
 11
846.75
 21
-10.0
  0
LINE
  5
2CC
100
AcDbEntity
  8
0
100
AcDbLine
 62
2
  6
CONTINUOUS
 10
903.2
 20
0.0
 11
903.2
 21
-10.0
  0
LINE
  5
2CD
100
AcDbEntity
  8
0
100
AcDbLine
 62
2
  6
CONTINUOUS
 10
959.65
 20
0.0
 11
959.65
 21
-10.0
  0
LINE
  5
2CE
100
AcDbEntity
  8
0
100
AcDbLine
 62
2
  6
CONTINUOUS
 10
1016.1
 20
0.0
 11
1016.1
 21
-10.0
  0
LINE
  5
2CF
100
AcDbEntity
  8
0
100
AcDbLine
 62
2
  6
CONTINUOUS
 10
1072.55
 20
0.0
 11
1072.55
 21
-10.0
  0
LINE
  5
2D0
100
AcDbEntity
  8
0
100
AcDbLine
 62
2
  6
CONTINUOUS
 10
1129.0
 20
0.0
 11
1129.0
 21
-10.0
  0
MTEXT
  5
2D1
100
AcDbEntity
  8
0
100
AcDbMText
 62
2
  6
CONTINUOUS
  7
TEXTSTYLE_2
 71
2
 72
1
 10
28.225
 20
-3.5
 30
0.0
 11
1.0
 21
0.0
 31
0.0
 44
0.9
  1
1
 40
3.0
 41
4.8
  0
MTEXT
  5
2D2
100
AcDbEntity
  8
0
100
AcDbMText
 62
2
  6
CONTINUOUS
  7
TEXTSTYLE_2
 71
2
 72
1
 10
84.675
 20
-3.5
 30
0.0
 11
1.0
 21
0.0
 31
0.0
 44
0.9
  1
2
 40
3.0
 41
4.8
  0
MTEXT
  5
2D3
100
AcDbEntity
  8
0
100
AcDbMText
 62
2
  6
CONTINUOUS
  7
TEXTSTYLE_2
 71
2
 72
1
 10
141.125
 20
-3.5
 30
0.0
 11
1.0
 21
0.0
 31
0.0
 44
0.9
  1
3
 40
3.0
 41
4.8
  0
MTEXT
  5
2D4
100
AcDbEntity
  8
0
100
AcDbMText
 62
2
  6
CONTINUOUS
  7
TEXTSTYLE_2
 71
2
 72
1
 10
197.575
 20
-3.5
 30
0.0
 11
1.0
 21
0.0
 31
0.0
 44
0.9
  1
4
 40
3.0
 41
4.8
  0
MTEXT
  5
2D5
100
AcDbEntity
  8
0
100
AcDbMText
 62
2
  6
CONTINUOUS
  7
TEXTSTYLE_2
 71
2
 72
1
 10
254.025
 20
-3.5
 30
0.0
 11
1.0
 21
0.0
 31
0.0
 44
0.9
  1
5
 40
3.0
 41
4.8
  0
MTEXT
  5
2D6
100
AcDbEntity
  8
0
100
AcDbMText
 62
2
  6
CONTINUOUS
  7
TEXTSTYLE_2
 71
2
 72
1
 10
310.475
 20
-3.5
 30
0.0
 11
1.0
 21
0.0
 31
0.0
 44
0.9
  1
6
 40
3.0
 41
4.8
  0
MTEXT
  5
2D7
100
AcDbEntity
  8
0
100
AcDbMText
 62
2
  6
CONTINUOUS
  7
TEXTSTYLE_2
 71
2
 72
1
 10
366.925
 20
-3.5
 30
0.0
 11
1.0
 21
0.0
 31
0.0
 44
0.9
  1
7
 40
3.0
 41
4.8
  0
MTEXT
  5
2D8
100
AcDbEntity
  8
0
100
AcDbMText
 62
2
  6
CONTINUOUS
  7
TEXTSTYLE_2
 71
2
 72
1
 10
423.375
 20
-3.5
 30
0.0
 11
1.0
 21
0.0
 31
0.0
 44
0.9
  1
8
 40
3.0
 41
4.8
  0
MTEXT
  5
2D9
100
AcDbEntity
  8
0
100
AcDbMText
 62
2
  6
CONTINUOUS
  7
TEXTSTYLE_2
 71
2
 72
1
 10
479.825
 20
-3.5
 30
0.0
 11
1.0
 21
0.0
 31
0.0
 44
0.9
  1
9
 40
3.0
 41
4.8
  0
MTEXT
  5
2DA
100
AcDbEntity
  8
0
100
AcDbMText
 62
2
  6
CONTINUOUS
  7
TEXTSTYLE_2
 71
2
 72
1
 10
536.275
 20
-3.5
 30
0.0
 11
1.0
 21
0.0
 31
0.0
 44
0.9
  1
10
 40
3.0
 41
9.6
  0
MTEXT
  5
2DB
100
AcDbEntity
  8
0
100
AcDbMText
 62
2
  6
CONTINUOUS
  7
TEXTSTYLE_2
 71
2
 72
1
 10
592.725
 20
-3.5
 30
0.0
 11
1.0
 21
0.0
 31
0.0
 44
0.9
  1
11
 40
3.0
 41
9.6
  0
MTEXT
  5
2DC
100
AcDbEntity
  8
0
100
AcDbMText
 62
2
  6
CONTINUOUS
  7
TEXTSTYLE_2
 71
2
 72
1
 10
649.175
 20
-3.5
 30
0.0
 11
1.0
 21
0.0
 31
0.0
 44
0.9
  1
12
 40
3.0
 41
9.6
  0
MTEXT
  5
2DD
100
AcDbEntity
  8
0
100
AcDbMText
 62
2
  6
CONTINUOUS
  7
TEXTSTYLE_2
 71
2
 72
1
 10
705.625
 20
-3.5
 30
0.0
 11
1.0
 21
0.0
 31
0.0
 44
0.9
  1
13
 40
3.0
 41
9.6
  0
MTEXT
  5
2DE
100
AcDbEntity
  8
0
100
AcDbMText
 62
2
  6
CONTINUOUS
  7
TEXTSTYLE_2
 71
2
 72
1
 10
762.075
 20
-3.5
 30
0.0
 11
1.0
 21
0.0
 31
0.0
 44
0.9
  1
14
 40
3.0
 41
9.6
  0
MTEXT
  5
2DF
100
AcDbEntity
  8
0
100
AcDbMText
 62
2
  6
CONTINUOUS
  7
TEXTSTYLE_2
 71
2
 72
1
 10
818.525
 20
-3.5
 30
0.0
 11
1.0
 21
0.0
 31
0.0
 44
0.9
  1
15
 40
3.0
 41
9.6
  0
MTEXT
  5
2E0
100
AcDbEntity
  8
0
100
AcDbMText
 62
2
  6
CONTINUOUS
  7
TEXTSTYLE_2
 71
2
 72
1
 10
874.975
 20
-3.5
 30
0.0
 11
1.0
 21
0.0
 31
0.0
 44
0.9
  1
16
 40
3.0
 41
9.6
  0
MTEXT
  5
2E1
100
AcDbEntity
  8
0
100
AcDbMText
 62
2
  6
CONTINUOUS
  7
TEXTSTYLE_2
 71
2
 72
1
 10
931.425
 20
-3.5
 30
0.0
 11
1.0
 21
0.0
 31
0.0
 44
0.9
  1
17
 40
3.0
 41
9.6
  0
MTEXT
  5
2E2
100
AcDbEntity
  8
0
100
AcDbMText
 62
2
  6
CONTINUOUS
  7
TEXTSTYLE_2
 71
2
 72
1
 10
987.875
 20
-3.5
 30
0.0
 11
1.0
 21
0.0
 31
0.0
 44
0.9
  1
18
 40
3.0
 41
9.6
  0
MTEXT
  5
2E3
100
AcDbEntity
  8
0
100
AcDbMText
 62
2
  6
CONTINUOUS
  7
TEXTSTYLE_2
 71
2
 72
1
 10
1044.325
 20
-3.5
 30
0.0
 11
1.0
 21
0.0
 31
0.0
 44
0.9
  1
19
 40
3.0
 41
9.6
  0
MTEXT
  5
2E4
100
AcDbEntity
  8
0
100
AcDbMText
 62
2
  6
CONTINUOUS
  7
TEXTSTYLE_2
 71
2
 72
1
 10
1100.775
 20
-3.5
 30
0.0
 11
1.0
 21
0.0
 31
0.0
 44
0.9
  1
20
 40
3.0
 41
9.6
  0
ENDBLK
  5
2E5
100
AcDbEntity
  8
0
  6
BYBLOCK
 62
0
100
AcDbBlockEnd
  0
BLOCK
  5
2E6
100
AcDbEntity
  8
0
100
AcDbBlockBegin
  2
*T5
 70
1
 10
0.0
 20
0.0
  3
*T5
  1

  0
LINE
  5
2E7
100
AcDbEntity
  8
0
100
AcDbLine
 62
2
  6
CONTINUOUS
 10
0.0
 20
0.0
 11
10.0
 21
0.0
  0
LINE
  5
2E8
100
AcDbEntity
  8
0
100
AcDbLine
 62
2
  6
CONTINUOUS
 10
0.0
 20
0.0
 11
0.0
 21
-781.004
  0
LINE
  5
2E9
100
AcDbEntity
  8
0
100
AcDbLine
 62
2
  6
CONTINUOUS
 10
0.0
 20
-55.786
 11
10.0
 21
-55.786
  0
LINE
  5
2EA
100
AcDbEntity
  8
0
100
AcDbLine
 62
2
  6
CONTINUOUS
 10
0.0
 20
-111.572
 11
10.0
 21
-111.572
  0
LINE
  5
2EB
100
AcDbEntity
  8
0
100
AcDbLine
 62
2
  6
CONTINUOUS
 10
0.0
 20
-167.358
 11
10.0
 21
-167.358
  0
LINE
  5
2EC
100
AcDbEntity
  8
0
100
AcDbLine
 62
2
  6
CONTINUOUS
 10
0.0
 20
-223.144
 11
10.0
 21
-223.144
  0
LINE
  5
2ED
100
AcDbEntity
  8
0
100
AcDbLine
 62
2
  6
CONTINUOUS
 10
0.0
 20
-278.93
 11
10.0
 21
-278.93
  0
LINE
  5
2EE
100
AcDbEntity
  8
0
100
AcDbLine
 62
2
  6
CONTINUOUS
 10
0.0
 20
-334.716
 11
10.0
 21
-334.716
  0
LINE
  5
2EF
100
AcDbEntity
  8
0
100
AcDbLine
 62
2
  6
CONTINUOUS
 10
0.0
 20
-390.502
 11
10.0
 21
-390.502
  0
LINE
  5
2F0
100
AcDbEntity
  8
0
100
AcDbLine
 62
2
  6
CONTINUOUS
 10
0.0
 20
-446.288
 11
10.0
 21
-446.288
  0
LINE
  5
2F1
100
AcDbEntity
  8
0
100
AcDbLine
 62
2
  6
CONTINUOUS
 10
0.0
 20
-502.074
 11
10.0
 21
-502.074
  0
LINE
  5
2F2
100
AcDbEntity
  8
0
100
AcDbLine
 62
2
  6
CONTINUOUS
 10
0.0
 20
-557.86
 11
10.0
 21
-557.86
  0
LINE
  5
2F3
100
AcDbEntity
  8
0
100
AcDbLine
 62
2
  6
CONTINUOUS
 10
0.0
 20
-613.646
 11
10.0
 21
-613.646
  0
LINE
  5
2F4
100
AcDbEntity
  8
0
100
AcDbLine
 62
2
  6
CONTINUOUS
 10
0.0
 20
-669.432
 11
10.0
 21
-669.432
  0
LINE
  5
2F5
100
AcDbEntity
  8
0
100
AcDbLine
 62
2
  6
CONTINUOUS
 10
0.0
 20
-725.218
 11
10.0
 21
-725.218
  0
LINE
  5
2F6
100
AcDbEntity
  8
0
100
AcDbLine
 62
2
  6
CONTINUOUS
 10
0.0
 20
-781.004
 11
10.0
 21
-781.004
  0
LINE
  5
2F7
100
AcDbEntity
  8
0
100
AcDbLine
 62
2
  6
CONTINUOUS
 10
10.0
 20
0.0
 11
10.0
 21
-781.004
  0
MTEXT
  5
2F8
100
AcDbEntity
  8
0
100
AcDbMText
 62
2
  6
CONTINUOUS
  7
TEXTSTYLE_2
 71
2
 72
1
 10
5.0
 20
-26.393
 30
0.0
 11
1.0
 21
0.0
 31
0.0
 44
0.9
  1
A
 40
3.0
 41
4.8
  0
MTEXT
  5
2F9
100
AcDbEntity
  8
0
100
AcDbMText
 62
2
  6
CONTINUOUS
  7
TEXTSTYLE_2
 71
2
 72
1
 10
5.0
 20
-82.179
 30
0.0
 11
1.0
 21
0.0
 31
0.0
 44
0.9
  1
B
 40
3.0
 41
4.8
  0
MTEXT
  5
2FA
100
AcDbEntity
  8
0
100
AcDbMText
 62
2
  6
CONTINUOUS
  7
TEXTSTYLE_2
 71
2
 72
1
 10
5.0
 20
-137.965
 30
0.0
 11
1.0
 21
0.0
 31
0.0
 44
0.9
  1
C
 40
3.0
 41
4.8
  0
MTEXT
  5
2FB
100
AcDbEntity
  8
0
100
AcDbMText
 62
2
  6
CONTINUOUS
  7
TEXTSTYLE_2
 71
2
 72
1
 10
5.0
 20
-193.751
 30
0.0
 11
1.0
 21
0.0
 31
0.0
 44
0.9
  1
D
 40
3.0
 41
4.8
  0
MTEXT
  5
2FC
100
AcDbEntity
  8
0
100
AcDbMText
 62
2
  6
CONTINUOUS
  7
TEXTSTYLE_2
 71
2
 72
1
 10
5.0
 20
-249.537
 30
0.0
 11
1.0
 21
0.0
 31
0.0
 44
0.9
  1
E
 40
3.0
 41
4.8
  0
MTEXT
  5
2FD
100
AcDbEntity
  8
0
100
AcDbMText
 62
2
  6
CONTINUOUS
  7
TEXTSTYLE_2
 71
2
 72
1
 10
5.0
 20
-305.323
 30
0.0
 11
1.0
 21
0.0
 31
0.0
 44
0.9
  1
F
 40
3.0
 41
4.8
  0
MTEXT
  5
2FE
100
AcDbEntity
  8
0
100
AcDbMText
 62
2
  6
CONTINUOUS
  7
TEXTSTYLE_2
 71
2
 72
1
 10
5.0
 20
-361.109
 30
0.0
 11
1.0
 21
0.0
 31
0.0
 44
0.9
  1
G
 40
3.0
 41
4.8
  0
MTEXT
  5
2FF
100
AcDbEntity
  8
0
100
AcDbMText
 62
2
  6
CONTINUOUS
  7
TEXTSTYLE_2
 71
2
 72
1
 10
5.0
 20
-416.895
 30
0.0
 11
1.0
 21
0.0
 31
0.0
 44
0.9
  1
H
 40
3.0
 41
4.8
  0
MTEXT
  5
300
100
AcDbEntity
  8
0
100
AcDbMText
 62
2
  6
CONTINUOUS
  7
TEXTSTYLE_2
 71
2
 72
1
 10
5.0
 20
-472.681
 30
0.0
 11
1.0
 21
0.0
 31
0.0
 44
0.9
  1
J
 40
3.0
 41
4.8
  0
MTEXT
  5
301
100
AcDbEntity
  8
0
100
AcDbMText
 62
2
  6
CONTINUOUS
  7
TEXTSTYLE_2
 71
2
 72
1
 10
5.0
 20
-528.467
 30
0.0
 11
1.0
 21
0.0
 31
0.0
 44
0.9
  1
K
 40
3.0
 41
4.8
  0
MTEXT
  5
302
100
AcDbEntity
  8
0
100
AcDbMText
 62
2
  6
CONTINUOUS
  7
TEXTSTYLE_2
 71
2
 72
1
 10
5.0
 20
-584.253
 30
0.0
 11
1.0
 21
0.0
 31
0.0
 44
0.9
  1
L
 40
3.0
 41
4.8
  0
MTEXT
  5
303
100
AcDbEntity
  8
0
100
AcDbMText
 62
2
  6
CONTINUOUS
  7
TEXTSTYLE_2
 71
2
 72
1
 10
5.0
 20
-640.039
 30
0.0
 11
1.0
 21
0.0
 31
0.0
 44
0.9
  1
M
 40
3.0
 41
4.8
  0
MTEXT
  5
304
100
AcDbEntity
  8
0
100
AcDbMText
 62
2
  6
CONTINUOUS
  7
TEXTSTYLE_2
 71
2
 72
1
 10
5.0
 20
-695.825
 30
0.0
 11
1.0
 21
0.0
 31
0.0
 44
0.9
  1
N
 40
3.0
 41
4.8
  0
MTEXT
  5
305
100
AcDbEntity
  8
0
100
AcDbMText
 62
2
  6
CONTINUOUS
  7
TEXTSTYLE_2
 71
2
 72
1
 10
5.0
 20
-751.611
 30
0.0
 11
1.0
 21
0.0
 31
0.0
 44
0.9
  1
P
 40
3.0
 41
4.8
  0
ENDBLK
  5
306
100
AcDbEntity
  8
0
  6
BYBLOCK
 62
0
100
AcDbBlockEnd
  0
BLOCK
  5
307
100
AcDbEntity
  8
0
100
AcDbBlockBegin
  2
*T6
 70
1
 10
0.0
 20
0.0
  3
*T6
  1

  0
LINE
  5
308
100
AcDbEntity
  8
0
100
AcDbLine
 62
2
  6
CONTINUOUS
 10
0.0
 20
0.0
 11
10.0
 21
0.0
  0
LINE
  5
309
100
AcDbEntity
  8
0
100
AcDbLine
 62
2
  6
CONTINUOUS
 10
0.0
 20
0.0
 11
0.0
 21
-781.004
  0
LINE
  5
30A
100
AcDbEntity
  8
0
100
AcDbLine
 62
2
  6
CONTINUOUS
 10
0.0
 20
-55.786
 11
10.0
 21
-55.786
  0
LINE
  5
30B
100
AcDbEntity
  8
0
100
AcDbLine
 62
2
  6
CONTINUOUS
 10
0.0
 20
-111.572
 11
10.0
 21
-111.572
  0
LINE
  5
30C
100
AcDbEntity
  8
0
100
AcDbLine
 62
2
  6
CONTINUOUS
 10
0.0
 20
-167.358
 11
10.0
 21
-167.358
  0
LINE
  5
30D
100
AcDbEntity
  8
0
100
AcDbLine
 62
2
  6
CONTINUOUS
 10
0.0
 20
-223.144
 11
10.0
 21
-223.144
  0
LINE
  5
30E
100
AcDbEntity
  8
0
100
AcDbLine
 62
2
  6
CONTINUOUS
 10
0.0
 20
-278.93
 11
10.0
 21
-278.93
  0
LINE
  5
30F
100
AcDbEntity
  8
0
100
AcDbLine
 62
2
  6
CONTINUOUS
 10
0.0
 20
-334.716
 11
10.0
 21
-334.716
  0
LINE
  5
310
100
AcDbEntity
  8
0
100
AcDbLine
 62
2
  6
CONTINUOUS
 10
0.0
 20
-390.502
 11
10.0
 21
-390.502
  0
LINE
  5
311
100
AcDbEntity
  8
0
100
AcDbLine
 62
2
  6
CONTINUOUS
 10
0.0
 20
-446.288
 11
10.0
 21
-446.288
  0
LINE
  5
312
100
AcDbEntity
  8
0
100
AcDbLine
 62
2
  6
CONTINUOUS
 10
0.0
 20
-502.074
 11
10.0
 21
-502.074
  0
LINE
  5
313
100
AcDbEntity
  8
0
100
AcDbLine
 62
2
  6
CONTINUOUS
 10
0.0
 20
-557.86
 11
10.0
 21
-557.86
  0
LINE
  5
314
100
AcDbEntity
  8
0
100
AcDbLine
 62
2
  6
CONTINUOUS
 10
0.0
 20
-613.646
 11
10.0
 21
-613.646
  0
LINE
  5
315
100
AcDbEntity
  8
0
100
AcDbLine
 62
2
  6
CONTINUOUS
 10
0.0
 20
-669.432
 11
10.0
 21
-669.432
  0
LINE
  5
316
100
AcDbEntity
  8
0
100
AcDbLine
 62
2
  6
CONTINUOUS
 10
0.0
 20
-725.218
 11
10.0
 21
-725.218
  0
LINE
  5
317
100
AcDbEntity
  8
0
100
AcDbLine
 62
2
  6
CONTINUOUS
 10
0.0
 20
-781.004
 11
10.0
 21
-781.004
  0
LINE
  5
318
100
AcDbEntity
  8
0
100
AcDbLine
 62
2
  6
CONTINUOUS
 10
10.0
 20
0.0
 11
10.0
 21
-781.004
  0
MTEXT
  5
319
100
AcDbEntity
  8
0
100
AcDbMText
 62
2
  6
CONTINUOUS
  7
TEXTSTYLE_2
 71
2
 72
1
 10
5.0
 20
-26.393
 30
0.0
 11
1.0
 21
0.0
 31
0.0
 44
0.9
  1
A
 40
3.0
 41
4.8
  0
MTEXT
  5
31A
100
AcDbEntity
  8
0
100
AcDbMText
 62
2
  6
CONTINUOUS
  7
TEXTSTYLE_2
 71
2
 72
1
 10
5.0
 20
-82.179
 30
0.0
 11
1.0
 21
0.0
 31
0.0
 44
0.9
  1
B
 40
3.0
 41
4.8
  0
MTEXT
  5
31B
100
AcDbEntity
  8
0
100
AcDbMText
 62
2
  6
CONTINUOUS
  7
TEXTSTYLE_2
 71
2
 72
1
 10
5.0
 20
-137.965
 30
0.0
 11
1.0
 21
0.0
 31
0.0
 44
0.9
  1
C
 40
3.0
 41
4.8
  0
MTEXT
  5
31C
100
AcDbEntity
  8
0
100
AcDbMText
 62
2
  6
CONTINUOUS
  7
TEXTSTYLE_2
 71
2
 72
1
 10
5.0
 20
-193.751
 30
0.0
 11
1.0
 21
0.0
 31
0.0
 44
0.9
  1
D
 40
3.0
 41
4.8
  0
MTEXT
  5
31D
100
AcDbEntity
  8
0
100
AcDbMText
 62
2
  6
CONTINUOUS
  7
TEXTSTYLE_2
 71
2
 72
1
 10
5.0
 20
-249.537
 30
0.0
 11
1.0
 21
0.0
 31
0.0
 44
0.9
  1
E
 40
3.0
 41
4.8
  0
MTEXT
  5
31E
100
AcDbEntity
  8
0
100
AcDbMText
 62
2
  6
CONTINUOUS
  7
TEXTSTYLE_2
 71
2
 72
1
 10
5.0
 20
-305.323
 30
0.0
 11
1.0
 21
0.0
 31
0.0
 44
0.9
  1
F
 40
3.0
 41
4.8
  0
MTEXT
  5
31F
100
AcDbEntity
  8
0
100
AcDbMText
 62
2
  6
CONTINUOUS
  7
TEXTSTYLE_2
 71
2
 72
1
 10
5.0
 20
-361.109
 30
0.0
 11
1.0
 21
0.0
 31
0.0
 44
0.9
  1
G
 40
3.0
 41
4.8
  0
MTEXT
  5
320
100
AcDbEntity
  8
0
100
AcDbMText
 62
2
  6
CONTINUOUS
  7
TEXTSTYLE_2
 71
2
 72
1
 10
5.0
 20
-416.895
 30
0.0
 11
1.0
 21
0.0
 31
0.0
 44
0.9
  1
H
 40
3.0
 41
4.8
  0
MTEXT
  5
321
100
AcDbEntity
  8
0
100
AcDbMText
 62
2
  6
CONTINUOUS
  7
TEXTSTYLE_2
 71
2
 72
1
 10
5.0
 20
-472.681
 30
0.0
 11
1.0
 21
0.0
 31
0.0
 44
0.9
  1
J
 40
3.0
 41
4.8
  0
MTEXT
  5
322
100
AcDbEntity
  8
0
100
AcDbMText
 62
2
  6
CONTINUOUS
  7
TEXTSTYLE_2
 71
2
 72
1
 10
5.0
 20
-528.467
 30
0.0
 11
1.0
 21
0.0
 31
0.0
 44
0.9
  1
K
 40
3.0
 41
4.8
  0
MTEXT
  5
323
100
AcDbEntity
  8
0
100
AcDbMText
 62
2
  6
CONTINUOUS
  7
TEXTSTYLE_2
 71
2
 72
1
 10
5.0
 20
-584.253
 30
0.0
 11
1.0
 21
0.0
 31
0.0
 44
0.9
  1
L
 40
3.0
 41
4.8
  0
MTEXT
  5
324
100
AcDbEntity
  8
0
100
AcDbMText
 62
2
  6
CONTINUOUS
  7
TEXTSTYLE_2
 71
2
 72
1
 10
5.0
 20
-640.039
 30
0.0
 11
1.0
 21
0.0
 31
0.0
 44
0.9
  1
M
 40
3.0
 41
4.8
  0
MTEXT
  5
325
100
AcDbEntity
  8
0
100
AcDbMText
 62
2
  6
CONTINUOUS
  7
TEXTSTYLE_2
 71
2
 72
1
 10
5.0
 20
-695.825
 30
0.0
 11
1.0
 21
0.0
 31
0.0
 44
0.9
  1
N
 40
3.0
 41
4.8
  0
MTEXT
  5
326
100
AcDbEntity
  8
0
100
AcDbMText
 62
2
  6
CONTINUOUS
  7
TEXTSTYLE_2
 71
2
 72
1
 10
5.0
 20
-751.611
 30
0.0
 11
1.0
 21
0.0
 31
0.0
 44
0.9
  1
P
 40
3.0
 41
4.8
  0
ENDBLK
  5
327
100
AcDbEntity
  8
0
  6
BYBLOCK
 62
0
100
AcDbBlockEnd
  0
BLOCK
  5
328
100
AcDbEntity
  8
0
100
AcDbBlockBegin
  2
*T7
 70
1
 10
0.0
 20
0.0
  3
*T7
  1

  0
LINE
  5
329
100
AcDbEntity
  8
0
100
AcDbLine
 62
2
  6
CONTINUOUS
 10
180.0
 20
0.0
 11
-0.0
 21
0.0
  0
LINE
  5
32A
100
AcDbEntity
  8
0
100
AcDbLine
 62
2
  6
CONTINUOUS
 10
180.0
 20
0.0
 11
180.0
 21
105.0
  0
LINE
  5
32B
100
AcDbEntity
  8
0
100
AcDbLine
 62
2
  6
CONTINUOUS
 10
180.0
 20
25.0
 11
-0.0
 21
25.0
  0
LINE
  5
32C
100
AcDbEntity
  8
0
100
AcDbLine
 62
2
  6
CONTINUOUS
 10
180.0
 20
32.5
 11
-0.0
 21
32.5
  0
LINE
  5
32D
100
AcDbEntity
  8
0
100
AcDbLine
 62
2
  6
CONTINUOUS
 10
180.0
 20
40.0
 11
-0.0
 21
40.0
  0
LINE
  5
32E
100
AcDbEntity
  8
0
100
AcDbLine
 62
2
  6
CONTINUOUS
 10
180.0
 20
47.5
 11
-0.0
 21
47.5
  0
LINE
  5
32F
100
AcDbEntity
  8
0
100
AcDbLine
 62
2
  6
CONTINUOUS
 10
180.0
 20
72.5
 11
-0.0
 21
72.5
  0
LINE
  5
330
100
AcDbEntity
  8
0
100
AcDbLine
 62
2
  6
CONTINUOUS
 10
180.0
 20
80.0
 11
-0.0
 21
80.0
  0
LINE
  5
331
100
AcDbEntity
  8
0
100
AcDbLine
 62
2
  6
CONTINUOUS
 10
180.0
 20
105.0
 11
-0.0
 21
105.0
  0
LINE
  5
332
100
AcDbEntity
  8
0
100
AcDbLine
 62
2
  6
CONTINUOUS
 10
150.0
 20
40.0
 11
150.0
 21
47.5
  0
LINE
  5
333
100
AcDbEntity
  8
0
100
AcDbLine
 62
2
  6
CONTINUOUS
 10
120.0
 20
0.0
 11
120.0
 21
47.5
  0
LINE
  5
334
100
AcDbEntity
  8
0
100
AcDbLine
 62
2
  6
CONTINUOUS
 10
120.0
 20
72.5
 11
120.0
 21
80.0
  0
LINE
  5
335
100
AcDbEntity
  8
0
100
AcDbLine
 62
2
  6
CONTINUOUS
 10
90.0
 20
0.0
 11
90.0
 21
47.5
  0
LINE
  5
336
100
AcDbEntity
  8
0
100
AcDbLine
 62
2
  6
CONTINUOUS
 10
90.0
 20
72.5
 11
90.0
 21
80.0
  0
LINE
  5
337
100
AcDbEntity
  8
0
100
AcDbLine
 62
2
  6
CONTINUOUS
 10
60.0
 20
40.0
 11
60.0
 21
47.5
  0
LINE
  5
338
100
AcDbEntity
  8
0
100
AcDbLine
 62
2
  6
CONTINUOUS
 10
30.0
 20
25.0
 11
30.0
 21
80.0
  0
LINE
  5
339
100
AcDbEntity
  8
0
100
AcDbLine
 62
2
  6
CONTINUOUS
 10
-0.0
 20
0.0
 11
-0.0
 21
105.0
  0
MTEXT
  5
33A
100
AcDbEntity
  8
0
100
AcDbMText
 62
2
  6
CONTINUOUS
  7
TEXTSTYLE_3
 71
2
 72
1
 10
150.0
 20
15.0
 30
0.0
 11
1.0
 21
0.0
 31
0.0
 44
0.9
  1
CAGE_AND_FLAP_HOLDER
 40
5.0
 41
147.6666666667
  0
MTEXT
  5
33B
100
AcDbEntity
  8
0
100
AcDbMText
 62
2
  6
CONTINUOUS
  7
TEXTSTYLE_3
 71
1
 72
1
 10
90.0625
 20
13.5
 30
0.0
 11
1.0
 21
0.0
 31
0.0
 44
0.9
  1
 DRAWING NUMBER
 40
2.0
 41
45.8666666667
  0
MTEXT
  5
33C
100
AcDbEntity
  8
0
100
AcDbMText
 62
2
  6
CONTINUOUS
  7
TEXTSTYLE_2
 71
2
 72
1
 10
45.0
 20
22.5
 30
0.0
 11
1.0
 21
0.0
 31
0.0
 44
0.9
  3
THIS DRAWING IS THE PROPERTY OF DANN ENGINEERING LTD.\PCOPYRIGHT IS RESERVED BY THEM AND THE DRAWING ISSUED\PON THE CONDITION THAT IT IS NOT COPIED, REPRODUCED,\PRETAINED BY OR DISCLOSED TO ANY UNAUTHORISED PERSON\PEITHER WHOLLY OR IN PART WITHOUT TH
  1
E CONSENT, IN\PWRITING, OF DANN ENGINEERING LTD.\P 
 40
2.0
 41
169.6
  0
MTEXT
  5
33D
100
AcDbEntity
  8
0
100
AcDbMText
 62
2
  6
CONTINUOUS
  7
TEXTSTYLE_3
 71
1
 72
1
 10
90.0625
 20
29.75
 30
0.0
 11
1.0
 21
0.0
 31
0.0
 44
0.9
  1
 DATE
 40
2.0
 41
15.6
  0
MTEXT
  5
33E
100
AcDbEntity
  8
0
100
AcDbMText
 62
2
  6
CONTINUOUS
  7
TEXTSTYLE_3
 71
1
 72
1
 10
0.0625
 20
29.75
 30
0.0
 11
1.0
 21
0.0
 31
0.0
 44
0.9
  1
 DATE
 40
2.0
 41
15.6
  0
MTEXT
  5
33F
100
AcDbEntity
  8
0
100
AcDbMText
 62
2
  6
CONTINUOUS
  7
TEXTSTYLE_3
 71
1
 72
1
 10
90.0625
 20
37.25
 30
0.0
 11
1.0
 21
0.0
 31
0.0
 44
0.9
  1
 AUTHORISED BY
 40
2.0
 41
41.2
  0
MTEXT
  5
340
100
AcDbEntity
  8
0
100
AcDbMText
 62
2
  6
CONTINUOUS
  7
TEXTSTYLE_3
 71
1
 72
1
 10
0.0625
 20
37.25
 30
0.0
 11
1.0
 21
0.0
 31
0.0
 44
0.9
  1
 DWG BY
 40
2.0
 41
22.5333333333
  0
MTEXT
  5
341
100
AcDbEntity
  8
0
100
AcDbMText
 62
2
  6
CONTINUOUS
  7
TEXTSTYLE_3
 71
2
 72
1
 10
165.0
 20
44.75
 30
0.0
 11
1.0
 21
0.0
 31
0.0
 44
0.9
  1
 ORIGINAL SIZE A0
 40
2.0
 41
46.8
  0
MTEXT
  5
342
100
AcDbEntity
  8
0
100
AcDbMText
 62
2
  6
CONTINUOUS
  7
TEXTSTYLE_2
 71
2
 72
1
 10
135.0
 20
45.25
 30
0.0
 11
1.0
 21
0.0
 31
0.0
 44
0.9
  1
SHEET 1 OF 1
 40
3.0
 41
57.6
  0
MTEXT
  5
343
100
AcDbEntity
  8
0
100
AcDbMText
 62
2
  6
CONTINUOUS
  7
TEXTSTYLE_3
 71
1
 72
1
 10
90.0625
 20
44.75
 30
0.0
 11
1.0
 21
0.0
 31
0.0
 44
0.9
  1
 SHEET NUMBER / OF
 40
2.0
 41
55.4666666667
  0
MTEXT
  5
344
100
AcDbEntity
  8
0
100
AcDbMText
 62
2
  6
CONTINUOUS
  7
TEXTSTYLE_3
 71
1
 72
1
 10
60.0625
 20
44.75
 30
0.0
 11
1.0
 21
0.0
 31
0.0
 44
0.9
  1
 ALL DIMENSIONS MM
 40
2.0
 41
53.6
  0
MTEXT
  5
345
100
AcDbEntity
  8
0
100
AcDbMText
 62
2
  6
CONTINUOUS
  7
TEXTSTYLE_2
 71
2
 72
1
 10
45.0
 20
45.25
 30
0.0
 11
1.0
 21
0.0
 31
0.0
 44
0.9
  1
1:1
 40
3.0
 41
14.4
  0
MTEXT
  5
346
100
AcDbEntity
  8
0
100
AcDbMText
 62
2
  6
CONTINUOUS
  7
TEXTSTYLE_3
 71
1
 72
1
 10
0.0625
 20
44.75
 30
0.0
 11
1.0
 21
0.0
 31
0.0
 44
0.9
  1
 SCALE
 40
2.0
 41
18.4
  0
MTEXT
  5
347
100
AcDbEntity
  8
0
100
AcDbMText
 62
2
  6
CONTINUOUS
  7
TEXTSTYLE_3
 71
1
 72
1
 10
0.0625
 20
61.0
 30
0.0
 11
1.0
 21
0.0
 31
0.0
 44
0.9
  1
 TITLE
 40
2.0
 41
16.2666666667
  0
MTEXT
  5
348
100
AcDbEntity
  8
0
100
AcDbMText
 62
2
  6
CONTINUOUS
  7
TEXTSTYLE_3
 71
1
 72
1
 10
90.0625
 20
77.25
 30
0.0
 11
1.0
 21
0.0
 31
0.0
 44
0.9
  1
 PRODUCT
 40
2.0
 41
24.8
  0
MTEXT
  5
349
100
AcDbEntity
  8
0
100
AcDbMText
 62
2
  6
CONTINUOUS
  7
TEXTSTYLE_3
 71
1
 72
1
 10
0.0625
 20
77.25
 30
0.0
 11
1.0
 21
0.0
 31
0.0
 44
0.9
  1
 PROJECT
 40
2.0
 41
24.5333333333
  0
ENDBLK
  5
34A
100
AcDbEntity
  8
0
  6
BYBLOCK
 62
0
100
AcDbBlockEnd
  0
BLOCK
  5
34B
100
AcDbEntity
  8
0
100
AcDbBlockBegin
  2
*T8
 70
1
 10
0.0
 20
0.0
  3
*T8
  1

  0
LINE
  5
34C
100
AcDbEntity
  8
0
100
AcDbLine
 62
2
  6
CONTINUOUS
 10
120.0
 20
0.0
 11
0.0
 21
0.0
  0
LINE
  5
34D
100
AcDbEntity
  8
0
100
AcDbLine
 62
2
  6
CONTINUOUS
 10
120.0
 20
0.0
 11
120.0
 21
25.0
  0
LINE
  5
34E
100
AcDbEntity
  8
0
100
AcDbLine
 62
2
  6
CONTINUOUS
 10
120.0
 20
5.0
 11
0.0
 21
5.0
  0
LINE
  5
34F
100
AcDbEntity
  8
0
100
AcDbLine
 62
2
  6
CONTINUOUS
 10
120.0
 20
10.0
 11
0.0
 21
10.0
  0
LINE
  5
350
100
AcDbEntity
  8
0
100
AcDbLine
 62
2
  6
CONTINUOUS
 10
120.0
 20
15.0
 11
0.0
 21
15.0
  0
LINE
  5
351
100
AcDbEntity
  8
0
100
AcDbLine
 62
2
  6
CONTINUOUS
 10
120.0
 20
20.0
 11
0.0
 21
20.0
  0
LINE
  5
352
100
AcDbEntity
  8
0
100
AcDbLine
 62
2
  6
CONTINUOUS
 10
120.0
 20
25.0
 11
0.0
 21
25.0
  0
LINE
  5
353
100
AcDbEntity
  8
0
100
AcDbLine
 62
2
  6
CONTINUOUS
 10
105.0
 20
0.0
 11
105.0
 21
25.0
  0
LINE
  5
354
100
AcDbEntity
  8
0
100
AcDbLine
 62
2
  6
CONTINUOUS
 10
90.0
 20
0.0
 11
90.0
 21
25.0
  0
LINE
  5
355
100
AcDbEntity
  8
0
100
AcDbLine
 62
2
  6
CONTINUOUS
 10
30.0
 20
0.0
 11
30.0
 21
25.0
  0
LINE
  5
356
100
AcDbEntity
  8
0
100
AcDbLine
 62
2
  6
CONTINUOUS
 10
0.0
 20
0.0
 11
0.0
 21
25.0
  0
MTEXT
  5
357
100
AcDbEntity
  8
0
100
AcDbMText
 62
2
  6
CONTINUOUS
  7
TEXTSTYLE_3
 71
1
 72
1
 10
105.0625
 20
3.5
 30
0.0
 11
1.0
 21
0.0
 31
0.0
 44
0.9
  1
 ISSUE
 40
2.0
 41
16.0
  0
MTEXT
  5
358
100
AcDbEntity
  8
0
100
AcDbMText
 62
2
  6
CONTINUOUS
  7
TEXTSTYLE_3
 71
1
 72
1
 10
90.0625
 20
3.5
 30
0.0
 11
1.0
 21
0.0
 31
0.0
 44
0.9
  1
 INITIAL
 40
2.0
 41
18.8
  0
MTEXT
  5
359
100
AcDbEntity
  8
0
100
AcDbMText
 62
2
  6
CONTINUOUS
  7
TEXTSTYLE_3
 71
1
 72
1
 10
30.0625
 20
3.5
 30
0.0
 11
1.0
 21
0.0
 31
0.0
 44
0.9
  1
 ENGINEERING CHANGE RECORD NUMBER
 40
2.0
 41
99.2
  0
MTEXT
  5
35A
100
AcDbEntity
  8
0
100
AcDbMText
 62
2
  6
CONTINUOUS
  7
TEXTSTYLE_3
 71
1
 72
1
 10
0.0625
 20
3.5
 30
0.0
 11
1.0
 21
0.0
 31
0.0
 44
0.9
  1
 DATE
 40
2.0
 41
15.6
  0
MTEXT
  5
35B
100
AcDbEntity
  8
0
100
AcDbMText
 62
2
  6
CONTINUOUS
  7
TEXTSTYLE_2
 71
2
 72
1
 10
112.5
 20
9.0
 30
0.0
 11
1.0
 21
0.0
 31
0.0
 44
0.9
  1
*
 40
3.0
 41
4.8
  0
MTEXT
  5
35C
100
AcDbEntity
  8
0
100
AcDbMText
 62
2
  6
CONTINUOUS
  7
TEXTSTYLE_2
 71
2
 72
1
 10
97.5
 20
9.0
 30
0.0
 11
1.0
 21
0.0
 31
0.0
 44
0.9
  1
*
 40
3.0
 41
4.8
  0
MTEXT
  5
35D
100
AcDbEntity
  8
0
100
AcDbMText
 62
2
  6
CONTINUOUS
  7
TEXTSTYLE_2
 71
2
 72
1
 10
60.0
 20
9.0
 30
0.0
 11
1.0
 21
0.0
 31
0.0
 44
0.9
  1
*
 40
3.0
 41
4.8
  0
MTEXT
  5
35E
100
AcDbEntity
  8
0
100
AcDbMText
 62
2
  6
CONTINUOUS
  7
TEXTSTYLE_2
 71
2
 72
1
 10
15.0
 20
9.0
 30
0.0
 11
1.0
 21
0.0
 31
0.0
 44
0.9
  1
*
 40
3.0
 41
4.8
  0
ENDBLK
  5
35F
100
AcDbEntity
  8
0
  6
BYBLOCK
 62
0
100
AcDbBlockEnd
  0
BLOCK
  5
360
100
AcDbEntity
  8
0
100
AcDbBlockBegin
  2
*T9
 70
1
 10
0.0
 20
0.0
  3
*T9
  1

  0
LINE
  5
361
100
AcDbEntity
  8
0
100
AcDbLine
 62
2
  6
CONTINUOUS
 10
0.0
 20
0.0
 11
150.0
 21
0.0
  0
LINE
  5
362
100
AcDbEntity
  8
0
100
AcDbLine
 62
2
  6
CONTINUOUS
 10
0.0
 20
0.0
 11
0.0
 21
-22.5
  0
LINE
  5
363
100
AcDbEntity
  8
0
100
AcDbLine
 62
2
  6
CONTINUOUS
 10
0.0
 20
-15.0
 11
120.0
 21
-15.0
  0
LINE
  5
364
100
AcDbEntity
  8
0
100
AcDbLine
 62
2
  6
CONTINUOUS
 10
0.0
 20
-22.5
 11
150.0
 21
-22.5
  0
LINE
  5
365
100
AcDbEntity
  8
0
100
AcDbLine
 62
2
  6
CONTINUOUS
 10
30.0
 20
0.0
 11
30.0
 21
-22.5
  0
LINE
  5
366
100
AcDbEntity
  8
0
100
AcDbLine
 62
2
  6
CONTINUOUS
 10
120.0
 20
0.0
 11
120.0
 21
-22.5
  0
LINE
  5
367
100
AcDbEntity
  8
0
100
AcDbLine
 62
2
  6
CONTINUOUS
 10
150.0
 20
0.0
 11
150.0
 21
-22.5
  0
MTEXT
  5
368
100
AcDbEntity
  8
0
100
AcDbMText
 62
2
  6
CONTINUOUS
  7
TEXTSTYLE_3
 71
1
 72
1
 10
0.0625
 20
-6.5
 30
0.0
 11
1.0
 21
0.0
 31
0.0
 44
0.9
  1
 DRAWING NUMBER
 40
2.0
 41
45.8666666667
  0
MTEXT
  5
369
100
AcDbEntity
  8
0
100
AcDbMText
 62
2
  6
CONTINUOUS
  7
TEXTSTYLE_3
 71
2
 72
1
 10
75.0
 20
-5.0
 30
0.0
 11
1.0
 21
0.0
 31
0.0
 44
0.9
  1
CAGE_AND_FLAP_HOLDER
 40
5.0
 41
147.6666666667
  0
MTEXT
  5
36A
100
AcDbEntity
  8
0
100
AcDbMText
 62
2
  6
CONTINUOUS
  7
TEXTSTYLE_2
 71
1
 72
1
 10
120.0625
 20
-0.078125
 30
0.0
 11
1.0
 21
0.0
 31
0.0
 44
0.9
  1
 \P PROJECTION
 40
2.0
 41
32.0
  0
MTEXT
  5
36B
100
AcDbEntity
  8
0
100
AcDbMText
 62
2
  6
CONTINUOUS
  7
TEXTSTYLE_3
 71
1
 72
1
 10
0.0625
 20
-17.75
 30
0.0
 11
1.0
 21
0.0
 31
0.0
 44
0.9
  1
 SHEET / OF
 40
2.0
 41
33.4666666667
  0
MTEXT
  5
36C
100
AcDbEntity
  8
0
100
AcDbMText
 62
2
  6
CONTINUOUS
  7
TEXTSTYLE_2
 71
2
 72
1
 10
75.0
 20
-17.25
 30
0.0
 11
1.0
 21
0.0
 31
0.0
 44
0.9
  1
SHEET 1 OF 1
 40
3.0
 41
57.6
  0
ENDBLK
  5
36D
100
AcDbEntity
  8
0
  6
BYBLOCK
 62
0
100
AcDbBlockEnd
  0
BLOCK
  5
36E
100
AcDbEntity
  8
0
100
AcDbBlockBegin
  2
*T10
 70
1
 10
0.0
 20
0.0
  3
*T10
  1

  0
LINE
  5
36F
100
AcDbEntity
  8
0
100
AcDbLine
 62
2
  6
CONTINUOUS
 10
0.0
 20
0.0
 11
238.0
 21
0.0
  0
LINE
  5
370
100
AcDbEntity
  8
0
100
AcDbLine
 62
2
  6
CONTINUOUS
 10
0.0
 20
0.0
 11
0.0
 21
-77.5
  0
LINE
  5
371
100
AcDbEntity
  8
0
100
AcDbLine
 62
2
  6
CONTINUOUS
 10
0.0
 20
-17.5
 11
238.0
 21
-17.5
  0
LINE
  5
372
100
AcDbEntity
  8
0
100
AcDbLine
 62
2
  6
CONTINUOUS
 10
0.0
 20
-27.5
 11
238.0
 21
-27.5
  0
LINE
  5
373
100
AcDbEntity
  8
0
100
AcDbLine
 62
2
  6
CONTINUOUS
 10
0.0
 20
-37.5
 11
238.0
 21
-37.5
  0
LINE
  5
374
100
AcDbEntity
  8
0
100
AcDbLine
 62
2
  6
CONTINUOUS
 10
0.0
 20
-47.5
 11
238.0
 21
-47.5
  0
LINE
  5
375
100
AcDbEntity
  8
0
100
AcDbLine
 62
2
  6
CONTINUOUS
 10
0.0
 20
-57.5
 11
238.0
 21
-57.5
  0
LINE
  5
376
100
AcDbEntity
  8
0
100
AcDbLine
 62
2
  6
CONTINUOUS
 10
0.0
 20
-67.5
 11
238.0
 21
-67.5
  0
LINE
  5
377
100
AcDbEntity
  8
0
100
AcDbLine
 62
2
  6
CONTINUOUS
 10
0.0
 20
-77.5
 11
238.0
 21
-77.5
  0
LINE
  5
378
100
AcDbEntity
  8
0
100
AcDbLine
 62
2
  6
CONTINUOUS
 10
21.25
 20
0.0
 11
21.25
 21
-77.5
  0
LINE
  5
379
100
AcDbEntity
  8
0
100
AcDbLine
 62
2
  6
CONTINUOUS
 10
102.0
 20
0.0
 11
102.0
 21
-77.5
  0
LINE
  5
37A
100
AcDbEntity
  8
0
100
AcDbLine
 62
2
  6
CONTINUOUS
 10
178.5
 20
0.0
 11
178.5
 21
-77.5
  0
LINE
  5
37B
100
AcDbEntity
  8
0
100
AcDbLine
 62
2
  6
CONTINUOUS
 10
221.0
 20
0.0
 11
221.0
 21
-77.5
  0
LINE
  5
37C
100
AcDbEntity
  8
0
100
AcDbLine
 62
2
  6
CONTINUOUS
 10
238.0
 20
0.0
 11
238.0
 21
-77.5
  0
MTEXT
  5
37D
100
AcDbEntity
  8
0
100
AcDbMText
 62
2
  6
CONTINUOUS
  7
STANDARD
 71
1
 72
1
 10
2.125
 20
-2.5
 30
0.0
 11
1.0
 21
0.0
 31
0.0
 44
0.9
  1
ITEM
 40
5.0
 41
34.0
  0
MTEXT
  5
37E
100
AcDbEntity
  8
0
100
AcDbMText
 62
2
  6
CONTINUOUS
  7
STANDARD
 71
1
 72
1
 10
23.375
 20
-2.5
 30
0.0
 11
1.0
 21
0.0
 31
0.0
 44
0.9
  1
DESCRIPTION
 40
5.0
 41
93.5
  0
MTEXT
  5
37F
100
AcDbEntity
  8
0
100
AcDbMText
 62
2
  6
CONTINUOUS
  7
STANDARD
 71
1
 72
1
 10
104.125
 20
-2.5
 30
0.0
 11
1.0
 21
0.0
 31
0.0
 44
0.9
  1
PART NO
 40
5.0
 41
59.5
  0
MTEXT
  5
380
100
AcDbEntity
  8
0
100
AcDbMText
 62
2
  6
CONTINUOUS
  7
STANDARD
 71
1
 72
1
 10
180.625
 20
-2.5
 30
0.0
 11
1.0
 21
0.0
 31
0.0
 44
0.9
  1
MATL
 40
5.0
 41
34.0
  0
MTEXT
  5
381
100
AcDbEntity
  8
0
100
AcDbMText
 62
2
  6
CONTINUOUS
  7
STANDARD
 71
1
 72
1
 10
223.125
 20
-2.5
 30
0.0
 11
1.0
 21
0.0
 31
0.0
 44
0.9
  1
QTY
 40
5.0
 41
25.5
  0
MTEXT
  5
382
100
AcDbEntity
  8
0
100
AcDbMText
 62
2
  6
CONTINUOUS
  7
STANDARD
 71
1
 72
1
 10
2.125
 20
-20.0
 30
0.0
 11
1.0
 21
0.0
 31
0.0
 44
0.9
  1
1
 40
5.0
 41
8.5
  0
MTEXT
  5
383
100
AcDbEntity
  8
0
100
AcDbMText
 62
2
  6
CONTINUOUS
  7
STANDARD
 71
1
 72
1
 10
104.125
 20
-20.0
 30
0.0
 11
1.0
 21
0.0
 31
0.0
 44
0.9
  1
CENTRE_SHAFT
 40
5.0
 41
102.0
  0
MTEXT
  5
384
100
AcDbEntity
  8
0
100
AcDbMText
 62
2
  6
CONTINUOUS
  7
STANDARD
 71
1
 72
1
 10
180.625
 20
-20.0
 30
0.0
 11
1.0
 21
0.0
 31
0.0
 44
0.9
  1
220M07
 40
5.0
 41
51.0
  0
MTEXT
  5
385
100
AcDbEntity
  8
0
100
AcDbMText
 62
2
  6
CONTINUOUS
  7
STANDARD
 71
1
 72
1
 10
223.125
 20
-20.0
 30
0.0
 11
1.0
 21
0.0
 31
0.0
 44
0.9
  1
1
 40
5.0
 41
8.5
  0
MTEXT
  5
386
100
AcDbEntity
  8
0
100
AcDbMText
 62
2
  6
CONTINUOUS
  7
STANDARD
 71
1
 72
1
 10
2.125
 20
-30.0
 30
0.0
 11
1.0
 21
0.0
 31
0.0
 44
0.9
  1
2
 40
5.0
 41
8.5
  0
MTEXT
  5
387
100
AcDbEntity
  8
0
100
AcDbMText
 62
2
  6
CONTINUOUS
  7
STANDARD
 71
1
 72
1
 10
104.125
 20
-30.0
 30
0.0
 11
1.0
 21
0.0
 31
0.0
 44
0.9
  1
FLAP
 40
5.0
 41
34.0
  0
MTEXT
  5
388
100
AcDbEntity
  8
0
100
AcDbMText
 62
2
  6
CONTINUOUS
  7
STANDARD
 71
1
 72
1
 10
180.625
 20
-30.0
 30
0.0
 11
1.0
 21
0.0
 31
0.0
 44
0.9
  1
220M07
 40
5.0
 41
51.0
  0
MTEXT
  5
389
100
AcDbEntity
  8
0
100
AcDbMText
 62
2
  6
CONTINUOUS
  7
STANDARD
 71
1
 72
1
 10
223.125
 20
-30.0
 30
0.0
 11
1.0
 21
0.0
 31
0.0
 44
0.9
  1
1
 40
5.0
 41
8.5
  0
MTEXT
  5
38A
100
AcDbEntity
  8
0
100
AcDbMText
 62
2
  6
CONTINUOUS
  7
STANDARD
 71
1
 72
1
 10
2.125
 20
-40.0
 30
0.0
 11
1.0
 21
0.0
 31
0.0
 44
0.9
  1
3
 40
5.0
 41
8.5
  0
MTEXT
  5
38B
100
AcDbEntity
  8
0
100
AcDbMText
 62
2
  6
CONTINUOUS
  7
STANDARD
 71
1
 72
1
 10
104.125
 20
-40.0
 30
0.0
 11
1.0
 21
0.0
 31
0.0
 44
0.9
  1
RADIUS_ARM
 40
5.0
 41
85.0
  0
MTEXT
  5
38C
100
AcDbEntity
  8
0
100
AcDbMText
 62
2
  6
CONTINUOUS
  7
STANDARD
 71
1
 72
1
 10
180.625
 20
-40.0
 30
0.0
 11
1.0
 21
0.0
 31
0.0
 44
0.9
  1
220M07
 40
5.0
 41
51.0
  0
MTEXT
  5
38D
100
AcDbEntity
  8
0
100
AcDbMText
 62
2
  6
CONTINUOUS
  7
STANDARD
 71
1
 72
1
 10
223.125
 20
-40.0
 30
0.0
 11
1.0
 21
0.0
 31
0.0
 44
0.9
  1
1
 40
5.0
 41
8.5
  0
MTEXT
  5
38E
100
AcDbEntity
  8
0
100
AcDbMText
 62
2
  6
CONTINUOUS
  7
STANDARD
 71
1
 72
1
 10
2.125
 20
-50.0
 30
0.0
 11
1.0
 21
0.0
 31
0.0
 44
0.9
  1
4
 40
5.0
 41
8.5
  0
MTEXT
  5
38F
100
AcDbEntity
  8
0
100
AcDbMText
 62
2
  6
CONTINUOUS
  7
STANDARD
 71
1
 72
1
 10
104.125
 20
-50.0
 30
0.0
 11
1.0
 21
0.0
 31
0.0
 44
0.9
  1
RADIUS_ARM_OH
 40
5.0
 41
110.5
  0
MTEXT
  5
390
100
AcDbEntity
  8
0
100
AcDbMText
 62
2
  6
CONTINUOUS
  7
STANDARD
 71
1
 72
1
 10
180.625
 20
-50.0
 30
0.0
 11
1.0
 21
0.0
 31
0.0
 44
0.9
  1
220M07
 40
5.0
 41
51.0
  0
MTEXT
  5
391
100
AcDbEntity
  8
0
100
AcDbMText
 62
2
  6
CONTINUOUS
  7
STANDARD
 71
1
 72
1
 10
223.125
 20
-50.0
 30
0.0
 11
1.0
 21
0.0
 31
0.0
 44
0.9
  1
1
 40
5.0
 41
8.5
  0
MTEXT
  5
392
100
AcDbEntity
  8
0
100
AcDbMText
 62
2
  6
CONTINUOUS
  7
STANDARD
 71
1
 72
1
 10
2.125
 20
-60.0
 30
0.0
 11
1.0
 21
0.0
 31
0.0
 44
0.9
  1
5
 40
5.0
 41
8.5
  0
MTEXT
  5
393
100
AcDbEntity
  8
0
100
AcDbMText
 62
2
  6
CONTINUOUS
  7
STANDARD
 71
1
 72
1
 10
104.125
 20
-60.0
 30
0.0
 11
1.0
 21
0.0
 31
0.0
 44
0.9
  1
A500FM_1012_07_3
 40
5.0
 41
136.0
  0
MTEXT
  5
394
100
AcDbEntity
  8
0
100
AcDbMText
 62
2
  6
CONTINUOUS
  7
STANDARD
 71
1
 72
1
 10
223.125
 20
-60.0
 30
0.0
 11
1.0
 21
0.0
 31
0.0
 44
0.9
  1
2
 40
5.0
 41
8.5
  0
MTEXT
  5
395
100
AcDbEntity
  8
0
100
AcDbMText
 62
2
  6
CONTINUOUS
  7
STANDARD
 71
1
 72
1
 10
2.125
 20
-70.0
 30
0.0
 11
1.0
 21
0.0
 31
0.0
 44
0.9
  1
6
 40
5.0
 41
8.5
  0
MTEXT
  5
396
100
AcDbEntity
  8
0
100
AcDbMText
 62
2
  6
CONTINUOUS
  7
STANDARD
 71
1
 72
1
 10
104.125
 20
-70.0
 30
0.0
 11
1.0
 21
0.0
 31
0.0
 44
0.9
  1
A500FM_1012_07_3_SHORT
 40
5.0
 41
187.0
  0
MTEXT
  5
397
100
AcDbEntity
  8
0
100
AcDbMText
 62
2
  6
CONTINUOUS
  7
STANDARD
 71
1
 72
1
 10
223.125
 20
-70.0
 30
0.0
 11
1.0
 21
0.0
 31
0.0
 44
0.9
  1
2
 40
5.0
 41
8.5
  0
ENDBLK
  5
398
100
AcDbEntity
  8
0
  6
BYBLOCK
 62
0
100
AcDbBlockEnd
  0
BLOCK
  5
399
100
AcDbEntity
  8
0
100
AcDbBlockBegin
  2
*T11
 70
1
 10
0.0
 20
0.0
  3
*T11
  1

  0
LINE
  5
39A
100
AcDbEntity
  8
0
100
AcDbLine
 62
2
  6
CONTINUOUS
 10
0.0
 20
0.0
 11
57.0
 21
0.0
  0
LINE
  5
39B
100
AcDbEntity
  8
0
100
AcDbLine
 62
2
  6
CONTINUOUS
 10
0.0
 20
0.0
 11
0.0
 21
-61.25
  0
LINE
  5
39C
100
AcDbEntity
  8
0
100
AcDbLine
 62
2
  6
CONTINUOUS
 10
0.0
 20
-12.25
 11
57.0
 21
-12.25
  0
LINE
  5
39D
100
AcDbEntity
  8
0
100
AcDbLine
 62
2
  6
CONTINUOUS
 10
0.0
 20
-19.25
 11
57.0
 21
-19.25
  0
LINE
  5
39E
100
AcDbEntity
  8
0
100
AcDbLine
 62
2
  6
CONTINUOUS
 10
0.0
 20
-26.25
 11
57.0
 21
-26.25
  0
LINE
  5
39F
100
AcDbEntity
  8
0
100
AcDbLine
 62
2
  6
CONTINUOUS
 10
0.0
 20
-33.25
 11
57.0
 21
-33.25
  0
LINE
  5
3A0
100
AcDbEntity
  8
0
100
AcDbLine
 62
2
  6
CONTINUOUS
 10
0.0
 20
-40.25
 11
57.0
 21
-40.25
  0
LINE
  5
3A1
100
AcDbEntity
  8
0
100
AcDbLine
 62
2
  6
CONTINUOUS
 10
0.0
 20
-47.25
 11
57.0
 21
-47.25
  0
LINE
  5
3A2
100
AcDbEntity
  8
0
100
AcDbLine
 62
2
  6
CONTINUOUS
 10
0.0
 20
-54.25
 11
57.0
 21
-54.25
  0
LINE
  5
3A3
100
AcDbEntity
  8
0
100
AcDbLine
 62
2
  6
CONTINUOUS
 10
0.0
 20
-61.25
 11
57.0
 21
-61.25
  0
LINE
  5
3A4
100
AcDbEntity
  8
0
100
AcDbLine
 62
2
  6
CONTINUOUS
 10
20.0
 20
-12.25
 11
20.0
 21
-33.25
  0
LINE
  5
3A5
100
AcDbEntity
  8
0
100
AcDbLine
 62
2
  6
CONTINUOUS
 10
20.0
 20
-40.25
 11
20.0
 21
-61.25
  0
LINE
  5
3A6
100
AcDbEntity
  8
0
100
AcDbLine
 62
2
  6
CONTINUOUS
 10
57.0
 20
0.0
 11
57.0
 21
-61.25
  0
MTEXT
  5
3A7
100
AcDbEntity
  8
0
100
AcDbMText
 62
2
  6
CONTINUOUS
  7
STANDARD
 71
2
 72
1
 10
28.5
 20
-1.75
 30
0.0
 11
1.0
 21
0.0
 31
0.0
 44
0.9
  1
TOLERANCES UNLESS\POTHERWISE STATED
 40
3.5
 41
101.15
  0
MTEXT
  5
3A8
100
AcDbEntity
  8
0
100
AcDbMText
 62
2
  6
CONTINUOUS
  7
STANDARD
 71
2
 72
1
 10
10.0
 20
-14.0
 30
0.0
 11
1.0
 21
0.0
 31
0.0
 44
0.9
  1
X
 40
3.5
 41
5.95
  0
MTEXT
  5
3A9
100
AcDbEntity
  8
0
100
AcDbMText
 62
2
  6
CONTINUOUS
  7
TEXTSTYLE_4
 71
2
 72
1
 10
38.5
 20
-14.0
 30
0.0
 11
1.0
 21
0.0
 31
0.0
 44
0.9
  1
{\Fgdt;`}\Ftxt;1
 40
3.5
 41
15.2833333333
  0
MTEXT
  5
3AA
100
AcDbEntity
  8
0
100
AcDbMText
 62
2
  6
CONTINUOUS
  7
STANDARD
 71
2
 72
1
 10
10.0
 20
-21.0
 30
0.0
 11
1.0
 21
0.0
 31
0.0
 44
0.9
  1
X.X
 40
3.5
 41
17.85
  0
MTEXT
  5
3AB
100
AcDbEntity
  8
0
100
AcDbMText
 62
2
  6
CONTINUOUS
  7
TEXTSTYLE_4
 71
2
 72
1
 10
38.5
 20
-21.0
 30
0.0
 11
1.0
 21
0.0
 31
0.0
 44
0.9
  1
{\Fgdt;`}\Ftxt;0.5
 40
3.5
 41
27.1833333333
  0
MTEXT
  5
3AC
100
AcDbEntity
  8
0
100
AcDbMText
 62
2
  6
CONTINUOUS
  7
STANDARD
 71
2
 72
1
 10
10.0
 20
-28.0
 30
0.0
 11
1.0
 21
0.0
 31
0.0
 44
0.9
  1
X.XX
 40
3.5
 41
23.8
  0
MTEXT
  5
3AD
100
AcDbEntity
  8
0
100
AcDbMText
 62
2
  6
CONTINUOUS
  7
TEXTSTYLE_4
 71
2
 72
1
 10
38.5
 20
-28.0
 30
0.0
 11
1.0
 21
0.0
 31
0.0
 44
0.9
  1
{\Fgdt;`}\Ftxt;0.15
 40
3.5
 41
33.1333333333
  0
MTEXT
  5
3AE
100
AcDbEntity
  8
0
100
AcDbMText
 62
2
  6
CONTINUOUS
  7
STANDARD
 71
2
 72
1
 10
28.5
 20
-35.0
 30
0.0
 11
1.0
 21
0.0
 31
0.0
 44
0.9
  1
ANGULAR TOLERANCES
 40
3.5
 41
107.1
  0
MTEXT
  5
3AF
100
AcDbEntity
  8
0
100
AcDbMText
 62
2
  6
CONTINUOUS
  7
STANDARD
 71
2
 72
1
 10
10.0
 20
-42.0
 30
0.0
 11
1.0
 21
0.0
 31
0.0
 44
0.9
  1
X
 40
3.5
 41
5.95
  0
MTEXT
  5
3B0
100
AcDbEntity
  8
0
100
AcDbMText
 62
2
  6
CONTINUOUS
  7
TEXTSTYLE_4
 71
2
 72
1
 10
38.5
 20
-42.0
 30
0.0
 11
1.0
 21
0.0
 31
0.0
 44
0.9
  1
{\Fgdt;`}\Ftxt;1\Fgdt;{\Fgdt;~}
 40
3.5
 41
19.95
  0
MTEXT
  5
3B1
100
AcDbEntity
  8
0
100
AcDbMText
 62
2
  6
CONTINUOUS
  7
STANDARD
 71
2
 72
1
 10
10.0
 20
-49.0
 30
0.0
 11
1.0
 21
0.0
 31
0.0
 44
0.9
  1
X.X
 40
3.5
 41
17.85
  0
MTEXT
  5
3B2
100
AcDbEntity
  8
0
100
AcDbMText
 62
2
  6
CONTINUOUS
  7
TEXTSTYLE_4
 71
2
 72
1
 10
38.5
 20
-49.0
 30
0.0
 11
1.0
 21
0.0
 31
0.0
 44
0.9
  1
{\Fgdt;`}\Ftxt;0.5\Fgdt;{\Fgdt;~}
 40
3.5
 41
31.85
  0
MTEXT
  5
3B3
100
AcDbEntity
  8
0
100
AcDbMText
 62
2
  6
CONTINUOUS
  7
STANDARD
 71
2
 72
1
 10
10.0
 20
-56.0
 30
0.0
 11
1.0
 21
0.0
 31
0.0
 44
0.9
  1
X.XX
 40
3.5
 41
23.8
  0
MTEXT
  5
3B4
100
AcDbEntity
  8
0
100
AcDbMText
 62
2
  6
CONTINUOUS
  7
TEXTSTYLE_4
 71
2
 72
1
 10
38.5
 20
-56.0
 30
0.0
 11
1.0
 21
0.0
 31
0.0
 44
0.9
  1
{\Fgdt;`}\Ftxt;0.15\Fgdt;{\Fgdt;~}
 40
3.5
 41
37.8
  0
ENDBLK
  5
3B5
100
AcDbEntity
  8
0
  6
BYBLOCK
 62
0
100
AcDbBlockEnd
  0
ENDSEC
  0
SECTION
  2
ENTITIES
  0
IMAGE
  5
3B6
100
AcDbEntity
  8
0
100
AcDbRasterImage
 62
7
  6
CONTINUOUS
 10
974.9931703398
 20
107.1813283208
 30
0.0
 11
0.1693333333
 21
0.0
 31
0.0
 12
0.0
 22
0.1693333333
 32
0.0
 13
1162.0
 23
164.0
340
       569
 70
9
280
0
281
50
282
50
283
0
360
       562
 71
1
 91
2
 14
-0.5
 24
-0.5
 14
1161.5
 24
163.5
  0
MTEXT
  5
3B7
100
AcDbEntity
  8
0
100
AcDbMText
 62
2
  6
CONTINUOUS
  7
STANDARD
 71
1
 72
1
 10
189.7428825279
 20
802.8481220945
 30
0.0
 11
1.0
 21
0.0
 31
0.0
 44
0.9
  1
DO NOT SCALE. IF IN DOUBT ASK.
 40
5.0
 41
127.5
  0
INSERT
  5
3B8
100
AcDbEntity
  8
0
100
AcDbBlockReference
 62
2
  6
CONTINUOUS
  2
THIRD_ANG_BL0
 10
164.7329750005
 20
796.0177490758
  0
IMAGE
  5
3B9
100
AcDbEntity
  8
0
100
AcDbRasterImage
 62
7
  6
CONTINUOUS
 10
58.7468156868
 20
367.3825450273
 30
0.0
 11
0.1693333333
 21
0.0
 31
0.0
 12
0.0
 22
0.1693333333
 32
0.0
 13
2775.0
 23
2226.0
340
       56A
 70
9
280
0
281
50
282
50
283
0
360
       563
 71
1
 91
2
 14
-0.5
 24
-0.5
 14
2774.5
 24
2225.5
  0
ACAD_TABLE
  5
3BA
100
AcDbEntity
  8
0
 62
2
  6
CONTINUOUS
100
AcDbBlockReference
  2
*T1
 10
30.0138707438
 20
788.5019594786
 30
0.0
100
AcDbTable
342
       56B
343
20D
 11
1.0
 21
0.0
 31
0.0
 90
22
 91
7
 92
5
 93
0
 94
0
 95
0
 96
0
141
17.5
141
10.0
141
10.0
141
10.0
141
10.0
141
10.0
141
10.0
142
21.25
142
80.75
142
76.5
142
42.5
142
17.0
171
1
172
0
173
0
174
0
175
1
176
1
 91
33
178
0
145
0.0
301
CELL_VALUE
 90
4
  1
ITEM
304
ACVALUE_END
170
1
140
5.0
171
1
172
0
173
0
174
0
175
1
176
1
 91
33
178
0
145
0.0
301
CELL_VALUE
 90
4
  1
DESCRIPTION
304
ACVALUE_END
170
1
140
5.0
171
1
172
0
173
0
174
0
175
1
176
1
 91
33
178
0
145
0.0
301
CELL_VALUE
 90
4
  1
PART NO
304
ACVALUE_END
170
1
140
5.0
171
1
172
0
173
0
174
0
175
1
176
1
 91
33
178
0
145
0.0
301
CELL_VALUE
 90
4
  1
MATL
304
ACVALUE_END
170
1
140
5.0
171
1
172
0
173
0
174
0
175
1
176
1
 91
33
178
0
145
0.0
301
CELL_VALUE
 90
4
  1
QTY
304
ACVALUE_END
170
1
140
5.0
171
1
172
0
173
0
174
0
175
1
176
1
 91
33
178
0
145
0.0
301
CELL_VALUE
 90
4
  1
1
304
ACVALUE_END
170
1
140
5.0
171
1
172
0
173
0
174
0
175
1
176
1
 91
33
178
0
145
0.0
301
CELL_VALUE
 90
4
  1
 
304
ACVALUE_END
170
1
140
5.0
171
1
172
0
173
0
174
0
175
1
176
1
 91
33
178
0
145
0.0
301
CELL_VALUE
 90
4
  1
CENTRE_SHAFT
304
ACVALUE_END
170
1
140
5.0
171
1
172
0
173
0
174
0
175
1
176
1
 91
33
178
0
145
0.0
301
CELL_VALUE
 90
4
  1
220M07
304
ACVALUE_END
170
1
140
5.0
171
1
172
0
173
0
174
0
175
1
176
1
 91
33
178
0
145
0.0
301
CELL_VALUE
 90
4
  1
1
304
ACVALUE_END
170
1
140
5.0
171
1
172
0
173
0
174
0
175
1
176
1
 91
33
178
0
145
0.0
301
CELL_VALUE
 90
4
  1
2
304
ACVALUE_END
170
1
140
5.0
171
1
172
0
173
0
174
0
175
1
176
1
 91
33
178
0
145
0.0
301
CELL_VALUE
 90
4
  1
 
304
ACVALUE_END
170
1
140
5.0
171
1
172
0
173
0
174
0
175
1
176
1
 91
33
178
0
145
0.0
301
CELL_VALUE
 90
4
  1
FLAP
304
ACVALUE_END
170
1
140
5.0
171
1
172
0
173
0
174
0
175
1
176
1
 91
33
178
0
145
0.0
301
CELL_VALUE
 90
4
  1
220M07
304
ACVALUE_END
170
1
140
5.0
171
1
172
0
173
0
174
0
175
1
176
1
 91
33
178
0
145
0.0
301
CELL_VALUE
 90
4
  1
1
304
ACVALUE_END
170
1
140
5.0
171
1
172
0
173
0
174
0
175
1
176
1
 91
33
178
0
145
0.0
301
CELL_VALUE
 90
4
  1
3
304
ACVALUE_END
170
1
140
5.0
171
1
172
0
173
0
174
0
175
1
176
1
 91
33
178
0
145
0.0
301
CELL_VALUE
 90
4
  1
 
304
ACVALUE_END
170
1
140
5.0
171
1
172
0
173
0
174
0
175
1
176
1
 91
33
178
0
145
0.0
301
CELL_VALUE
 90
4
  1
RADIUS_ARM
304
ACVALUE_END
170
1
140
5.0
171
1
172
0
173
0
174
0
175
1
176
1
 91
33
178
0
145
0.0
301
CELL_VALUE
 90
4
  1
220M07
304
ACVALUE_END
170
1
140
5.0
171
1
172
0
173
0
174
0
175
1
176
1
 91
33
178
0
145
0.0
301
CELL_VALUE
 90
4
  1
1
304
ACVALUE_END
170
1
140
5.0
171
1
172
0
173
0
174
0
175
1
176
1
 91
33
178
0
145
0.0
301
CELL_VALUE
 90
4
  1
4
304
ACVALUE_END
170
1
140
5.0
171
1
172
0
173
0
174
0
175
1
176
1
 91
33
178
0
145
0.0
301
CELL_VALUE
 90
4
  1
 
304
ACVALUE_END
170
1
140
5.0
171
1
172
0
173
0
174
0
175
1
176
1
 91
33
178
0
145
0.0
301
CELL_VALUE
 90
4
  1
RADIUS_ARM_OH
304
ACVALUE_END
170
1
140
5.0
171
1
172
0
173
0
174
0
175
1
176
1
 91
33
178
0
145
0.0
301
CELL_VALUE
 90
4
  1
220M07
304
ACVALUE_END
170
1
140
5.0
171
1
172
0
173
0
174
0
175
1
176
1
 91
33
178
0
145
0.0
301
CELL_VALUE
 90
4
  1
1
304
ACVALUE_END
170
1
140
5.0
171
1
172
0
173
0
174
0
175
1
176
1
 91
33
178
0
145
0.0
301
CELL_VALUE
 90
4
  1
5
304
ACVALUE_END
170
1
140
5.0
171
1
172
0
173
0
174
0
175
1
176
1
 91
33
178
0
145
0.0
301
CELL_VALUE
 90
4
  1
 
304
ACVALUE_END
170
1
140
5.0
171
1
172
0
173
0
174
0
175
1
176
1
 91
33
178
0
145
0.0
301
CELL_VALUE
 90
4
  1
A500FM_1012_07_3
304
ACVALUE_END
170
1
140
5.0
171
1
172
0
173
0
174
0
175
1
176
1
 91
33
178
0
145
0.0
301
CELL_VALUE
 90
4
  1
 
304
ACVALUE_END
170
1
140
5.0
171
1
172
0
173
0
174
0
175
1
176
1
 91
33
178
0
145
0.0
301
CELL_VALUE
 90
4
  1
2
304
ACVALUE_END
170
1
140
5.0
171
1
172
0
173
0
174
0
175
1
176
1
 91
33
178
0
145
0.0
301
CELL_VALUE
 90
4
  1
6
304
ACVALUE_END
170
1
140
5.0
171
1
172
0
173
0
174
0
175
1
176
1
 91
33
178
0
145
0.0
301
CELL_VALUE
 90
4
  1
 
304
ACVALUE_END
170
1
140
5.0
171
1
172
0
173
0
174
0
175
1
176
1
 91
33
178
0
145
0.0
301
CELL_VALUE
 90
4
  1
A500FM_1012_07_3_SHORT
304
ACVALUE_END
170
1
140
5.0
171
1
172
0
173
0
174
0
175
1
176
1
 91
33
178
0
145
0.0
301
CELL_VALUE
 90
4
  1
 
304
ACVALUE_END
170
1
140
5.0
171
1
172
0
173
0
174
0
175
1
176
1
 91
33
178
0
145
0.0
301
CELL_VALUE
 90
4
  1
2
304
ACVALUE_END
170
1
140
5.0
  0
ACAD_TABLE
  5
3BB
100
AcDbEntity
  8
0
 62
2
  6
CONTINUOUS
100
AcDbBlockReference
  2
*T2
 10
30.0
 20
821.0
 30
0.0
100
AcDbTable
342
       56B
343
20E
 11
1.0
 21
0.0
 31
0.0
 90
22
 91
1
 92
20
 93
0
 94
0
 95
0
 96
0
141
10.0
142
56.45
142
56.45
142
56.45
142
56.45
142
56.45
142
56.45
142
56.45
142
56.45
142
56.45
142
56.45
142
56.45
142
56.45
142
56.45
142
56.45
142
56.45
142
56.45
142
56.45
142
56.45
142
56.45
142
56.45
171
1
172
0
173
0
174
0
175
1
176
1
 91
49
178
0
145
0.0
  7
TEXTSTYLE_2
301
CELL_VALUE
 90
4
  1
1
304
ACVALUE_END
170
5
140
3.0
171
1
172
0
173
0
174
0
175
1
176
1
 91
49
178
0
145
0.0
  7
TEXTSTYLE_2
301
CELL_VALUE
 90
4
  1
2
304
ACVALUE_END
170
5
140
3.0
171
1
172
0
173
0
174
0
175
1
176
1
 91
49
178
0
145
0.0
  7
TEXTSTYLE_2
301
CELL_VALUE
 90
4
  1
3
304
ACVALUE_END
170
5
140
3.0
171
1
172
0
173
0
174
0
175
1
176
1
 91
49
178
0
145
0.0
  7
TEXTSTYLE_2
301
CELL_VALUE
 90
4
  1
4
304
ACVALUE_END
170
5
140
3.0
171
1
172
0
173
0
174
0
175
1
176
1
 91
49
178
0
145
0.0
  7
TEXTSTYLE_2
301
CELL_VALUE
 90
4
  1
5
304
ACVALUE_END
170
5
140
3.0
171
1
172
0
173
0
174
0
175
1
176
1
 91
49
178
0
145
0.0
  7
TEXTSTYLE_2
301
CELL_VALUE
 90
4
  1
6
304
ACVALUE_END
170
5
140
3.0
171
1
172
0
173
0
174
0
175
1
176
1
 91
49
178
0
145
0.0
  7
TEXTSTYLE_2
301
CELL_VALUE
 90
4
  1
7
304
ACVALUE_END
170
5
140
3.0
171
1
172
0
173
0
174
0
175
1
176
1
 91
49
178
0
145
0.0
  7
TEXTSTYLE_2
301
CELL_VALUE
 90
4
  1
8
304
ACVALUE_END
170
5
140
3.0
171
1
172
0
173
0
174
0
175
1
176
1
 91
49
178
0
145
0.0
  7
TEXTSTYLE_2
301
CELL_VALUE
 90
4
  1
9
304
ACVALUE_END
170
5
140
3.0
171
1
172
0
173
0
174
0
175
1
176
1
 91
49
178
0
145
0.0
  7
TEXTSTYLE_2
301
CELL_VALUE
 90
4
  1
10
304
ACVALUE_END
170
5
140
3.0
171
1
172
0
173
0
174
0
175
1
176
1
 91
49
178
0
145
0.0
  7
TEXTSTYLE_2
301
CELL_VALUE
 90
4
  1
11
304
ACVALUE_END
170
5
140
3.0
171
1
172
0
173
0
174
0
175
1
176
1
 91
49
178
0
145
0.0
  7
TEXTSTYLE_2
301
CELL_VALUE
 90
4
  1
12
304
ACVALUE_END
170
5
140
3.0
171
1
172
0
173
0
174
0
175
1
176
1
 91
49
178
0
145
0.0
  7
TEXTSTYLE_2
301
CELL_VALUE
 90
4
  1
13
304
ACVALUE_END
170
5
140
3.0
171
1
172
0
173
0
174
0
175
1
176
1
 91
49
178
0
145
0.0
  7
TEXTSTYLE_2
301
CELL_VALUE
 90
4
  1
14
304
ACVALUE_END
170
5
140
3.0
171
1
172
0
173
0
174
0
175
1
176
1
 91
49
178
0
145
0.0
  7
TEXTSTYLE_2
301
CELL_VALUE
 90
4
  1
15
304
ACVALUE_END
170
5
140
3.0
171
1
172
0
173
0
174
0
175
1
176
1
 91
49
178
0
145
0.0
  7
TEXTSTYLE_2
301
CELL_VALUE
 90
4
  1
16
304
ACVALUE_END
170
5
140
3.0
171
1
172
0
173
0
174
0
175
1
176
1
 91
49
178
0
145
0.0
  7
TEXTSTYLE_2
301
CELL_VALUE
 90
4
  1
17
304
ACVALUE_END
170
5
140
3.0
171
1
172
0
173
0
174
0
175
1
176
1
 91
49
178
0
145
0.0
  7
TEXTSTYLE_2
301
CELL_VALUE
 90
4
  1
18
304
ACVALUE_END
170
5
140
3.0
171
1
172
0
173
0
174
0
175
1
176
1
 91
49
178
0
145
0.0
  7
TEXTSTYLE_2
301
CELL_VALUE
 90
4
  1
19
304
ACVALUE_END
170
5
140
3.0
171
1
172
0
173
0
174
0
175
1
176
1
 91
49
178
0
145
0.0
  7
TEXTSTYLE_2
301
CELL_VALUE
 90
4
  1
20
304
ACVALUE_END
170
5
140
3.0
  0
ACAD_TABLE
  5
3BC
100
AcDbEntity
  8
0
 62
2
  6
CONTINUOUS
100
AcDbBlockReference
  2
*T3
 10
20.0
 20
811.0
 30
0.0
100
AcDbTable
342
       56B
343
20F
 11
1.0
 21
0.0
 31
0.0
 90
22
 91
14
 92
1
 93
0
 94
0
 95
0
 96
0
141
55.786
141
55.786
141
55.786
141
55.786
141
55.786
141
55.786
141
55.786
141
55.786
141
55.786
141
55.786
141
55.786
141
55.786
141
55.786
141
55.786
142
10.0
171
1
172
0
173
0
174
0
175
1
176
1
 91
49
178
0
145
0.0
  7
TEXTSTYLE_2
301
CELL_VALUE
 90
4
  1
A
304
ACVALUE_END
170
5
140
3.0
171
1
172
0
173
0
174
0
175
1
176
1
 91
49
178
0
145
0.0
  7
TEXTSTYLE_2
301
CELL_VALUE
 90
4
  1
B
304
ACVALUE_END
170
5
140
3.0
171
1
172
0
173
0
174
0
175
1
176
1
 91
49
178
0
145
0.0
  7
TEXTSTYLE_2
301
CELL_VALUE
 90
4
  1
C
304
ACVALUE_END
170
5
140
3.0
171
1
172
0
173
0
174
0
175
1
176
1
 91
49
178
0
145
0.0
  7
TEXTSTYLE_2
301
CELL_VALUE
 90
4
  1
D
304
ACVALUE_END
170
5
140
3.0
171
1
172
0
173
0
174
0
175
1
176
1
 91
49
178
0
145
0.0
  7
TEXTSTYLE_2
301
CELL_VALUE
 90
4
  1
E
304
ACVALUE_END
170
5
140
3.0
171
1
172
0
173
0
174
0
175
1
176
1
 91
49
178
0
145
0.0
  7
TEXTSTYLE_2
301
CELL_VALUE
 90
4
  1
F
304
ACVALUE_END
170
5
140
3.0
171
1
172
0
173
0
174
0
175
1
176
1
 91
49
178
0
145
0.0
  7
TEXTSTYLE_2
301
CELL_VALUE
 90
4
  1
G
304
ACVALUE_END
170
5
140
3.0
171
1
172
0
173
0
174
0
175
1
176
1
 91
49
178
0
145
0.0
  7
TEXTSTYLE_2
301
CELL_VALUE
 90
4
  1
H
304
ACVALUE_END
170
5
140
3.0
171
1
172
0
173
0
174
0
175
1
176
1
 91
49
178
0
145
0.0
  7
TEXTSTYLE_2
301
CELL_VALUE
 90
4
  1
J
304
ACVALUE_END
170
5
140
3.0
171
1
172
0
173
0
174
0
175
1
176
1
 91
49
178
0
145
0.0
  7
TEXTSTYLE_2
301
CELL_VALUE
 90
4
  1
K
304
ACVALUE_END
170
5
140
3.0
171
1
172
0
173
0
174
0
175
1
176
1
 91
49
178
0
145
0.0
  7
TEXTSTYLE_2
301
CELL_VALUE
 90
4
  1
L
304
ACVALUE_END
170
5
140
3.0
171
1
172
0
173
0
174
0
175
1
176
1
 91
49
178
0
145
0.0
  7
TEXTSTYLE_2
301
CELL_VALUE
 90
4
  1
M
304
ACVALUE_END
170
5
140
3.0
171
1
172
0
173
0
174
0
175
1
176
1
 91
49
178
0
145
0.0
  7
TEXTSTYLE_2
301
CELL_VALUE
 90
4
  1
N
304
ACVALUE_END
170
5
140
3.0
171
1
172
0
173
0
174
0
175
1
176
1
 91
49
178
0
145
0.0
  7
TEXTSTYLE_2
301
CELL_VALUE
 90
4
  1
P
304
ACVALUE_END
170
5
140
3.0
  0
ACAD_TABLE
  5
3BD
100
AcDbEntity
  8
0
 62
2
  6
CONTINUOUS
100
AcDbBlockReference
  2
*T4
 10
30.0
 20
30.0
 30
0.0
100
AcDbTable
342
       56B
343
210
 11
1.0
 21
0.0
 31
0.0
 90
22
 91
1
 92
20
 93
0
 94
0
 95
0
 96
0
141
10.0
142
56.45
142
56.45
142
56.45
142
56.45
142
56.45
142
56.45
142
56.45
142
56.45
142
56.45
142
56.45
142
56.45
142
56.45
142
56.45
142
56.45
142
56.45
142
56.45
142
56.45
142
56.45
142
56.45
142
56.45
171
1
172
0
173
0
174
0
175
1
176
1
 91
49
178
0
145
0.0
  7
TEXTSTYLE_2
301
CELL_VALUE
 90
4
  1
1
304
ACVALUE_END
170
5
140
3.0
171
1
172
0
173
0
174
0
175
1
176
1
 91
49
178
0
145
0.0
  7
TEXTSTYLE_2
301
CELL_VALUE
 90
4
  1
2
304
ACVALUE_END
170
5
140
3.0
171
1
172
0
173
0
174
0
175
1
176
1
 91
49
178
0
145
0.0
  7
TEXTSTYLE_2
301
CELL_VALUE
 90
4
  1
3
304
ACVALUE_END
170
5
140
3.0
171
1
172
0
173
0
174
0
175
1
176
1
 91
49
178
0
145
0.0
  7
TEXTSTYLE_2
301
CELL_VALUE
 90
4
  1
4
304
ACVALUE_END
170
5
140
3.0
171
1
172
0
173
0
174
0
175
1
176
1
 91
49
178
0
145
0.0
  7
TEXTSTYLE_2
301
CELL_VALUE
 90
4
  1
5
304
ACVALUE_END
170
5
140
3.0
171
1
172
0
173
0
174
0
175
1
176
1
 91
49
178
0
145
0.0
  7
TEXTSTYLE_2
301
CELL_VALUE
 90
4
  1
6
304
ACVALUE_END
170
5
140
3.0
171
1
172
0
173
0
174
0
175
1
176
1
 91
49
178
0
145
0.0
  7
TEXTSTYLE_2
301
CELL_VALUE
 90
4
  1
7
304
ACVALUE_END
170
5
140
3.0
171
1
172
0
173
0
174
0
175
1
176
1
 91
49
178
0
145
0.0
  7
TEXTSTYLE_2
301
CELL_VALUE
 90
4
  1
8
304
ACVALUE_END
170
5
140
3.0
171
1
172
0
173
0
174
0
175
1
176
1
 91
49
178
0
145
0.0
  7
TEXTSTYLE_2
301
CELL_VALUE
 90
4
  1
9
304
ACVALUE_END
170
5
140
3.0
171
1
172
0
173
0
174
0
175
1
176
1
 91
49
178
0
145
0.0
  7
TEXTSTYLE_2
301
CELL_VALUE
 90
4
  1
10
304
ACVALUE_END
170
5
140
3.0
171
1
172
0
173
0
174
0
175
1
176
1
 91
49
178
0
145
0.0
  7
TEXTSTYLE_2
301
CELL_VALUE
 90
4
  1
11
304
ACVALUE_END
170
5
140
3.0
171
1
172
0
173
0
174
0
175
1
176
1
 91
49
178
0
145
0.0
  7
TEXTSTYLE_2
301
CELL_VALUE
 90
4
  1
12
304
ACVALUE_END
170
5
140
3.0
171
1
172
0
173
0
174
0
175
1
176
1
 91
49
178
0
145
0.0
  7
TEXTSTYLE_2
301
CELL_VALUE
 90
4
  1
13
304
ACVALUE_END
170
5
140
3.0
171
1
172
0
173
0
174
0
175
1
176
1
 91
49
178
0
145
0.0
  7
TEXTSTYLE_2
301
CELL_VALUE
 90
4
  1
14
304
ACVALUE_END
170
5
140
3.0
171
1
172
0
173
0
174
0
175
1
176
1
 91
49
178
0
145
0.0
  7
TEXTSTYLE_2
301
CELL_VALUE
 90
4
  1
15
304
ACVALUE_END
170
5
140
3.0
171
1
172
0
173
0
174
0
175
1
176
1
 91
49
178
0
145
0.0
  7
TEXTSTYLE_2
301
CELL_VALUE
 90
4
  1
16
304
ACVALUE_END
170
5
140
3.0
171
1
172
0
173
0
174
0
175
1
176
1
 91
49
178
0
145
0.0
  7
TEXTSTYLE_2
301
CELL_VALUE
 90
4
  1
17
304
ACVALUE_END
170
5
140
3.0
171
1
172
0
173
0
174
0
175
1
176
1
 91
49
178
0
145
0.0
  7
TEXTSTYLE_2
301
CELL_VALUE
 90
4
  1
18
304
ACVALUE_END
170
5
140
3.0
171
1
172
0
173
0
174
0
175
1
176
1
 91
49
178
0
145
0.0
  7
TEXTSTYLE_2
301
CELL_VALUE
 90
4
  1
19
304
ACVALUE_END
170
5
140
3.0
171
1
172
0
173
0
174
0
175
1
176
1
 91
49
178
0
145
0.0
  7
TEXTSTYLE_2
301
CELL_VALUE
 90
4
  1
20
304
ACVALUE_END
170
5
140
3.0
  0
ACAD_TABLE
  5
3BE
100
AcDbEntity
  8
0
 62
2
  6
CONTINUOUS
100
AcDbBlockReference
  2
*T5
 10
20.0
 20
811.0
 30
0.0
100
AcDbTable
342
       56B
343
211
 11
1.0
 21
0.0
 31
0.0
 90
22
 91
14
 92
1
 93
0
 94
0
 95
0
 96
0
141
55.786
141
55.786
141
55.786
141
55.786
141
55.786
141
55.786
141
55.786
141
55.786
141
55.786
141
55.786
141
55.786
141
55.786
141
55.786
141
55.786
142
10.0
171
1
172
0
173
0
174
0
175
1
176
1
 91
49
178
0
145
0.0
  7
TEXTSTYLE_2
301
CELL_VALUE
 90
4
  1
A
304
ACVALUE_END
170
5
140
3.0
171
1
172
0
173
0
174
0
175
1
176
1
 91
49
178
0
145
0.0
  7
TEXTSTYLE_2
301
CELL_VALUE
 90
4
  1
B
304
ACVALUE_END
170
5
140
3.0
171
1
172
0
173
0
174
0
175
1
176
1
 91
49
178
0
145
0.0
  7
TEXTSTYLE_2
301
CELL_VALUE
 90
4
  1
C
304
ACVALUE_END
170
5
140
3.0
171
1
172
0
173
0
174
0
175
1
176
1
 91
49
178
0
145
0.0
  7
TEXTSTYLE_2
301
CELL_VALUE
 90
4
  1
D
304
ACVALUE_END
170
5
140
3.0
171
1
172
0
173
0
174
0
175
1
176
1
 91
49
178
0
145
0.0
  7
TEXTSTYLE_2
301
CELL_VALUE
 90
4
  1
E
304
ACVALUE_END
170
5
140
3.0
171
1
172
0
173
0
174
0
175
1
176
1
 91
49
178
0
145
0.0
  7
TEXTSTYLE_2
301
CELL_VALUE
 90
4
  1
F
304
ACVALUE_END
170
5
140
3.0
171
1
172
0
173
0
174
0
175
1
176
1
 91
49
178
0
145
0.0
  7
TEXTSTYLE_2
301
CELL_VALUE
 90
4
  1
G
304
ACVALUE_END
170
5
140
3.0
171
1
172
0
173
0
174
0
175
1
176
1
 91
49
178
0
145
0.0
  7
TEXTSTYLE_2
301
CELL_VALUE
 90
4
  1
H
304
ACVALUE_END
170
5
140
3.0
171
1
172
0
173
0
174
0
175
1
176
1
 91
49
178
0
145
0.0
  7
TEXTSTYLE_2
301
CELL_VALUE
 90
4
  1
J
304
ACVALUE_END
170
5
140
3.0
171
1
172
0
173
0
174
0
175
1
176
1
 91
49
178
0
145
0.0
  7
TEXTSTYLE_2
301
CELL_VALUE
 90
4
  1
K
304
ACVALUE_END
170
5
140
3.0
171
1
172
0
173
0
174
0
175
1
176
1
 91
49
178
0
145
0.0
  7
TEXTSTYLE_2
301
CELL_VALUE
 90
4
  1
L
304
ACVALUE_END
170
5
140
3.0
171
1
172
0
173
0
174
0
175
1
176
1
 91
49
178
0
145
0.0
  7
TEXTSTYLE_2
301
CELL_VALUE
 90
4
  1
M
304
ACVALUE_END
170
5
140
3.0
171
1
172
0
173
0
174
0
175
1
176
1
 91
49
178
0
145
0.0
  7
TEXTSTYLE_2
301
CELL_VALUE
 90
4
  1
N
304
ACVALUE_END
170
5
140
3.0
171
1
172
0
173
0
174
0
175
1
176
1
 91
49
178
0
145
0.0
  7
TEXTSTYLE_2
301
CELL_VALUE
 90
4
  1
P
304
ACVALUE_END
170
5
140
3.0
  0
ACAD_TABLE
  5
3BF
100
AcDbEntity
  8
0
 62
2
  6
CONTINUOUS
100
AcDbBlockReference
  2
*T6
 10
1159.0
 20
811.0
 30
0.0
100
AcDbTable
342
       56B
343
212
 11
1.0
 21
0.0
 31
0.0
 90
22
 91
14
 92
1
 93
0
 94
0
 95
0
 96
0
141
55.786
141
55.786
141
55.786
141
55.786
141
55.786
141
55.786
141
55.786
141
55.786
141
55.786
141
55.786
141
55.786
141
55.786
141
55.786
141
55.786
142
10.0
171
1
172
0
173
0
174
0
175
1
176
1
 91
49
178
0
145
0.0
  7
TEXTSTYLE_2
301
CELL_VALUE
 90
4
  1
A
304
ACVALUE_END
170
5
140
3.0
171
1
172
0
173
0
174
0
175
1
176
1
 91
49
178
0
145
0.0
  7
TEXTSTYLE_2
301
CELL_VALUE
 90
4
  1
B
304
ACVALUE_END
170
5
140
3.0
171
1
172
0
173
0
174
0
175
1
176
1
 91
49
178
0
145
0.0
  7
TEXTSTYLE_2
301
CELL_VALUE
 90
4
  1
C
304
ACVALUE_END
170
5
140
3.0
171
1
172
0
173
0
174
0
175
1
176
1
 91
49
178
0
145
0.0
  7
TEXTSTYLE_2
301
CELL_VALUE
 90
4
  1
D
304
ACVALUE_END
170
5
140
3.0
171
1
172
0
173
0
174
0
175
1
176
1
 91
49
178
0
145
0.0
  7
TEXTSTYLE_2
301
CELL_VALUE
 90
4
  1
E
304
ACVALUE_END
170
5
140
3.0
171
1
172
0
173
0
174
0
175
1
176
1
 91
49
178
0
145
0.0
  7
TEXTSTYLE_2
301
CELL_VALUE
 90
4
  1
F
304
ACVALUE_END
170
5
140
3.0
171
1
172
0
173
0
174
0
175
1
176
1
 91
49
178
0
145
0.0
  7
TEXTSTYLE_2
301
CELL_VALUE
 90
4
  1
G
304
ACVALUE_END
170
5
140
3.0
171
1
172
0
173
0
174
0
175
1
176
1
 91
49
178
0
145
0.0
  7
TEXTSTYLE_2
301
CELL_VALUE
 90
4
  1
H
304
ACVALUE_END
170
5
140
3.0
171
1
172
0
173
0
174
0
175
1
176
1
 91
49
178
0
145
0.0
  7
TEXTSTYLE_2
301
CELL_VALUE
 90
4
  1
J
304
ACVALUE_END
170
5
140
3.0
171
1
172
0
173
0
174
0
175
1
176
1
 91
49
178
0
145
0.0
  7
TEXTSTYLE_2
301
CELL_VALUE
 90
4
  1
K
304
ACVALUE_END
170
5
140
3.0
171
1
172
0
173
0
174
0
175
1
176
1
 91
49
178
0
145
0.0
  7
TEXTSTYLE_2
301
CELL_VALUE
 90
4
  1
L
304
ACVALUE_END
170
5
140
3.0
171
1
172
0
173
0
174
0
175
1
176
1
 91
49
178
0
145
0.0
  7
TEXTSTYLE_2
301
CELL_VALUE
 90
4
  1
M
304
ACVALUE_END
170
5
140
3.0
171
1
172
0
173
0
174
0
175
1
176
1
 91
49
178
0
145
0.0
  7
TEXTSTYLE_2
301
CELL_VALUE
 90
4
  1
N
304
ACVALUE_END
170
5
140
3.0
171
1
172
0
173
0
174
0
175
1
176
1
 91
49
178
0
145
0.0
  7
TEXTSTYLE_2
301
CELL_VALUE
 90
4
  1
P
304
ACVALUE_END
170
5
140
3.0
  0
ACAD_TABLE
  5
3C0
100
AcDbEntity
  8
0
 62
2
  6
CONTINUOUS
100
AcDbBlockReference
  2
*T7
 10
979.0
 20
30.0
 30
0.0
100
AcDbTable
342
       56C
343
213
 11
1.0
 21
0.0
 31
0.0
 90
6
 91
7
 92
6
 93
4
 94
0
 95
0
 96
0
 70
1
141
25.0
141
7.5
141
7.5
141
7.5
141
25.0
141
7.5
141
25.0
142
30.0
142
30.0
142
30.0
142
30.0
142
30.0
142
30.0
171
1
172
0
173
0
174
0
175
3
176
1
 91
49
178
0
145
0.0
  7
TEXTSTYLE_2
301
CELL_VALUE
 90
4
  2
THIS DRAWING IS THE PROPERTY OF DANN ENGINEERING LTD.\PCOPYRIGHT IS RESERVED BY THEM AND THE DRAWING ISSUED\PON THE CONDITION THAT IT IS NOT COPIED, REPRODUCED,\PRETAINED BY OR DISCLOSED TO ANY UNAUTHORISED PERSON\PEITHER WHOLLY OR IN PART WITHOUT TH
  1
E CONSENT, IN\PWRITING, OF DANN ENGINEERING LTD.\P 
304
ACVALUE_END
170
5
140
2.0
171
1
172
0
173
1
174
0
175
1
176
1
 91
1
178
0
145
0.0
170
1
171
1
172
0
173
1
174
0
175
1
176
1
 91
1
178
0
145
0.0
170
5
171
1
172
0
173
0
174
0
175
1
176
1
 91
49
178
0
145
0.0
  7
TEXTSTYLE_3
301
CELL_VALUE
 90
4
  1
 DRAWING NUMBER
304
ACVALUE_END
170
4
140
2.0
171
1
172
0
173
0
174
0
175
2
176
1
 91
49
178
0
145
0.0
  7
TEXTSTYLE_3
301
CELL_VALUE
 90
4
  1
CAGE_AND_FLAP_HOLDER
304
ACVALUE_END
170
5
140
5.0
171
1
172
0
173
1
174
0
175
1
176
1
 91
1
178
0
145
0.0
170
5
171
1
172
0
173
0
174
0
175
1
176
1
 91
49
178
0
145
0.0
  7
TEXTSTYLE_3
301
CELL_VALUE
 90
4
  1
 DATE
304
ACVALUE_END
170
4
140
2.0
171
1
172
0
173
0
174
0
175
2
176
1
 91
49
178
0
145
0.0
  7
TEXTSTYLE_2
301
CELL_VALUE
 90
4
  1
 
304
ACVALUE_END
170
5
140
3.0
171
1
172
0
173
1
174
0
175
1
176
1
 91
1
178
0
145
0.0
170
5
171
1
172
0
173
0
174
0
175
1
176
1
 91
49
178
0
145
0.0
  7
TEXTSTYLE_3
301
CELL_VALUE
 90
4
  1
 DATE
304
ACVALUE_END
170
4
140
2.0
171
1
172
0
173
0
174
0
175
2
176
1
 91
49
178
0
145
0.0
  7
TEXTSTYLE_2
301
CELL_VALUE
 90
4
  1
 
304
ACVALUE_END
170
5
140
3.0
171
1
172
0
173
1
174
0
175
1
176
1
 91
1
178
0
145
0.0
170
5
171
1
172
0
173
0
174
0
175
1
176
1
 91
49
178
0
145
0.0
  7
TEXTSTYLE_3
301
CELL_VALUE
 90
4
  1
 DWG BY
304
ACVALUE_END
170
4
140
2.0
171
1
172
0
173
0
174
0
175
2
176
1
 91
49
178
0
145
0.0
  7
TEXTSTYLE_2
301
CELL_VALUE
 90
4
  1
 
304
ACVALUE_END
170
5
140
3.0
171
1
172
0
173
1
174
0
175
1
176
1
 91
1
178
0
145
0.0
170
5
171
1
172
0
173
0
174
0
175
1
176
1
 91
49
178
0
145
0.0
  7
TEXTSTYLE_3
301
CELL_VALUE
 90
4
  1
 AUTHORISED BY
304
ACVALUE_END
170
4
140
2.0
171
1
172
0
173
0
174
0
175
2
176
1
 91
49
178
0
145
0.0
  7
TEXTSTYLE_2
301
CELL_VALUE
 90
4
  1
 
304
ACVALUE_END
170
5
140
3.0
171
1
172
0
173
1
174
0
175
1
176
1
 91
1
178
0
145
0.0
170
5
171
1
172
0
173
0
174
0
175
1
176
1
 91
49
178
0
145
0.0
  7
TEXTSTYLE_3
301
CELL_VALUE
 90
4
  1
 SCALE
304
ACVALUE_END
170
4
140
2.0
171
1
172
0
173
0
174
0
175
1
176
1
 91
49
178
0
145
0.0
  7
TEXTSTYLE_2
301
CELL_VALUE
 90
4
  1
1:1
304
ACVALUE_END
170
5
140
3.0
171
1
172
0
173
0
174
0
175
1
176
1
 91
49
178
0
145
0.0
  7
TEXTSTYLE_3
301
CELL_VALUE
 90
4
  1
 ALL DIMENSIONS MM
304
ACVALUE_END
170
4
140
2.0
171
1
172
0
173
0
174
0
175
1
176
1
 91
49
178
0
145
0.0
  7
TEXTSTYLE_3
301
CELL_VALUE
 90
4
  1
 SHEET NUMBER / OF
304
ACVALUE_END
170
4
140
2.0
171
1
172
0
173
0
174
0
175
1
176
1
 91
49
178
0
145
0.0
  7
TEXTSTYLE_2
301
CELL_VALUE
 90
4
  1
SHEET 1 OF 1
304
ACVALUE_END
170
5
140
3.0
171
1
172
0
173
0
174
0
175
1
176
1
 91
49
178
0
145
0.0
  7
TEXTSTYLE_3
301
CELL_VALUE
 90
4
  1
 ORIGINAL SIZE A0
304
ACVALUE_END
170
5
140
2.0
171
1
172
0
173
0
174
0
175
1
176
1
 91
49
178
0
145
0.0
  7
TEXTSTYLE_3
301
CELL_VALUE
 90
4
  1
 TITLE
304
ACVALUE_END
170
4
140
2.0
171
1
172
0
173
0
174
0
175
5
176
1
 91
33
178
0
145
0.0
301
CELL_VALUE
 90
4
  1
 
304
ACVALUE_END
170
1
140
0.15625
171
1
172
0
173
1
174
0
175
1
176
1
 91
1
178
0
145
0.0
170
1
171
1
172
0
173
1
174
0
175
1
176
1
 91
1
178
0
145
0.0
170
1
171
1
172
0
173
1
174
0
175
1
176
1
 91
1
178
0
145
0.0
170
1
171
1
172
0
173
1
174
0
175
1
176
1
 91
1
178
0
145
0.0
170
5
171
1
172
0
173
0
174
0
175
1
176
1
 91
49
178
0
145
0.0
  7
TEXTSTYLE_3
301
CELL_VALUE
 90
4
  1
 PROJECT
304
ACVALUE_END
170
4
140
2.0
171
1
172
0
173
0
174
0
175
2
176
1
 91
49
178
0
145
0.0
  7
TEXTSTYLE_2
301
CELL_VALUE
 90
4
  1
 
304
ACVALUE_END
170
5
140
3.0
171
1
172
0
173
1
174
0
175
1
176
1
 91
1
178
0
145
0.0
170
5
171
1
172
0
173
0
174
0
175
1
176
1
 91
49
178
0
145
0.0
  7
TEXTSTYLE_3
301
CELL_VALUE
 90
4
  1
 PRODUCT
304
ACVALUE_END
170
4
140
2.0
171
1
172
0
173
0
174
0
175
2
176
1
 91
49
178
0
145
0.0
  7
TEXTSTYLE_2
301
CELL_VALUE
 90
4
  1
 
304
ACVALUE_END
170
5
140
3.0
171
1
172
0
173
1
174
0
175
1
176
1
 91
1
178
0
145
0.0
170
5
171
1
172
0
173
0
174
0
175
6
176
1
 91
33
178
0
145
0.0
301
CELL_VALUE
 90
4
  1
 
304
ACVALUE_END
170
1
140
0.15625
171
1
172
0
173
1
174
0
175
1
176
1
 91
1
178
0
145
0.0
170
1
171
1
172
0
173
1
174
0
175
1
176
1
 91
1
178
0
145
0.0
170
1
171
1
172
0
173
1
174
0
175
1
176
1
 91
1
178
0
145
0.0
170
1
171
1
172
0
173
1
174
0
175
1
176
1
 91
1
178
0
145
0.0
170
1
171
1
172
0
173
1
174
0
175
1
176
1
 91
1
178
0
145
0.0
170
1
  0
ACAD_TABLE
  5
3C1
100
AcDbEntity
  8
0
 62
2
  6
CONTINUOUS
100
AcDbBlockReference
  2
*T8
 10
1039.0
 20
135.0
 30
0.0
100
AcDbTable
342
       56C
343
214
 11
1.0
 21
0.0
 31
0.0
 90
6
 91
5
 92
4
 93
4
 94
0
 95
0
 96
0
 70
1
141
5.0
141
5.0
141
5.0
141
5.0
141
5.0
142
30.0
142
60.0
142
15.0
142
15.0
171
1
172
0
173
0
174
0
175
1
176
1
 91
49
178
0
145
0.0
  7
TEXTSTYLE_3
301
CELL_VALUE
 90
4
  1
 DATE
304
ACVALUE_END
170
4
140
2.0
171
1
172
0
173
0
174
0
175
1
176
1
 91
49
178
0
145
0.0
  7
TEXTSTYLE_3
301
CELL_VALUE
 90
4
  1
 ENGINEERING CHANGE RECORD NUMBER
304
ACVALUE_END
170
4
140
2.0
171
1
172
0
173
0
174
0
175
1
176
1
 91
49
178
0
145
0.0
  7
TEXTSTYLE_3
301
CELL_VALUE
 90
4
  1
 INITIAL
304
ACVALUE_END
170
4
140
2.0
171
1
172
0
173
0
174
0
175
1
176
1
 91
49
178
0
145
0.0
  7
TEXTSTYLE_3
301
CELL_VALUE
 90
4
  1
 ISSUE
304
ACVALUE_END
170
4
140
2.0
171
1
172
0
173
0
174
0
175
1
176
1
 91
49
178
0
145
0.0
  7
TEXTSTYLE_2
301
CELL_VALUE
 90
4
  1
*
304
ACVALUE_END
170
5
140
3.0
171
1
172
0
173
0
174
0
175
1
176
1
 91
49
178
0
145
0.0
  7
TEXTSTYLE_2
301
CELL_VALUE
 90
4
  1
*
304
ACVALUE_END
170
5
140
3.0
171
1
172
0
173
0
174
0
175
1
176
1
 91
49
178
0
145
0.0
  7
TEXTSTYLE_2
301
CELL_VALUE
 90
4
  1
*
304
ACVALUE_END
170
5
140
3.0
171
1
172
0
173
0
174
0
175
1
176
1
 91
49
178
0
145
0.0
  7
TEXTSTYLE_2
301
CELL_VALUE
 90
4
  1
*
304
ACVALUE_END
170
5
140
3.0
171
1
172
0
173
0
174
0
175
1
176
1
 91
33
178
0
145
0.0
301
CELL_VALUE
 90
4
  1
 
304
ACVALUE_END
170
1
140
0.15625
171
1
172
0
173
0
174
0
175
1
176
1
 91
33
178
0
145
0.0
301
CELL_VALUE
 90
4
  1
 
304
ACVALUE_END
170
1
140
0.15625
171
1
172
0
173
0
174
0
175
1
176
1
 91
33
178
0
145
0.0
301
CELL_VALUE
 90
4
  1
 
304
ACVALUE_END
170
1
140
0.15625
171
1
172
0
173
0
174
0
175
1
176
1
 91
33
178
0
145
0.0
301
CELL_VALUE
 90
4
  1
 
304
ACVALUE_END
170
1
140
0.15625
171
1
172
0
173
0
174
0
175
1
176
1
 91
33
178
0
145
0.0
301
CELL_VALUE
 90
4
  1
 
304
ACVALUE_END
170
1
140
0.15625
171
1
172
0
173
0
174
0
175
1
176
1
 91
33
178
0
145
0.0
301
CELL_VALUE
 90
4
  1
 
304
ACVALUE_END
170
1
140
0.15625
171
1
172
0
173
0
174
0
175
1
176
1
 91
33
178
0
145
0.0
301
CELL_VALUE
 90
4
  1
 
304
ACVALUE_END
170
1
140
0.15625
171
1
172
0
173
0
174
0
175
1
176
1
 91
33
178
0
145
0.0
301
CELL_VALUE
 90
4
  1
 
304
ACVALUE_END
170
1
140
0.15625
171
1
172
0
173
0
174
0
175
1
176
1
 91
33
178
0
145
0.0
301
CELL_VALUE
 90
4
  1
 
304
ACVALUE_END
170
1
140
0.15625
171
1
172
0
173
0
174
0
175
1
176
1
 91
33
178
0
145
0.0
301
CELL_VALUE
 90
4
  1
 
304
ACVALUE_END
170
1
140
0.15625
171
1
172
0
173
0
174
0
175
1
176
1
 91
33
178
0
145
0.0
301
CELL_VALUE
 90
4
  1
 
304
ACVALUE_END
170
1
140
0.15625
171
1
172
0
173
0
174
0
175
1
176
1
 91
33
178
0
145
0.0
301
CELL_VALUE
 90
4
  1
 
304
ACVALUE_END
170
1
140
0.15625
  0
ACAD_TABLE
  5
3C2
100
AcDbEntity
  8
0
 62
2
  6
CONTINUOUS
100
AcDbBlockReference
  2
*T9
 10
30.0
 20
811.0
 30
0.0
100
AcDbTable
342
       56B
343
215
 11
1.0
 21
0.0
 31
0.0
 90
22
 91
2
 92
3
 93
0
 94
0
 95
0
 96
0
141
15.0
141
7.5
142
30.0
142
90.0
142
30.0
171
1
172
0
173
0
174
0
175
1
176
1
 91
49
178
0
145
0.0
  7
TEXTSTYLE_3
301
CELL_VALUE
 90
4
  1
 DRAWING NUMBER
304
ACVALUE_END
170
4
140
2.0
171
1
172
0
173
0
174
0
175
1
176
1
 91
49
178
0
145
0.0
  7
TEXTSTYLE_3
301
CELL_VALUE
 90
4
  1
CAGE_AND_FLAP_HOLDER
304
ACVALUE_END
170
5
140
5.0
171
1
172
0
173
0
174
0
175
1
176
2
 91
49
178
0
145
0.0
  7
TEXTSTYLE_2
301
CELL_VALUE
 90
4
  1
 \P PROJECTION
304
ACVALUE_END
170
1
140
2.0
171
1
172
0
173
0
174
0
175
1
176
1
 91
49
178
0
145
0.0
  7
TEXTSTYLE_3
301
CELL_VALUE
 90
4
  1
 SHEET / OF
304
ACVALUE_END
170
4
140
2.0
171
1
172
0
173
0
174
0
175
1
176
1
 91
49
178
0
145
0.0
  7
TEXTSTYLE_2
301
CELL_VALUE
 90
4
  1
SHEET 1 OF 1
304
ACVALUE_END
170
5
140
3.0
171
1
172
0
173
1
174
0
175
1
176
1
 91
1
178
0
145
0.0
170
1
  0
ACAD_TABLE
  5
3C3
100
AcDbEntity
  8
0
 62
2
  6
CONTINUOUS
100
AcDbBlockReference
  2
*T10
 10
30.0138707438
 20
788.5019594786
 30
0.0
100
AcDbTable
342
       56B
343
216
 11
1.0
 21
0.0
 31
0.0
 90
22
 91
7
 92
5
 93
0
 94
0
 95
0
 96
0
141
17.5
141
10.0
141
10.0
141
10.0
141
10.0
141
10.0
141
10.0
142
21.25
142
80.75
142
76.5
142
42.5
142
17.0
171
1
172
0
173
0
174
0
175
1
176
1
 91
33
178
0
145
0.0
301
CELL_VALUE
 90
4
  1
ITEM
304
ACVALUE_END
170
1
140
5.0
171
1
172
0
173
0
174
0
175
1
176
1
 91
33
178
0
145
0.0
301
CELL_VALUE
 90
4
  1
DESCRIPTION
304
ACVALUE_END
170
1
140
5.0
171
1
172
0
173
0
174
0
175
1
176
1
 91
33
178
0
145
0.0
301
CELL_VALUE
 90
4
  1
PART NO
304
ACVALUE_END
170
1
140
5.0
171
1
172
0
173
0
174
0
175
1
176
1
 91
33
178
0
145
0.0
301
CELL_VALUE
 90
4
  1
MATL
304
ACVALUE_END
170
1
140
5.0
171
1
172
0
173
0
174
0
175
1
176
1
 91
33
178
0
145
0.0
301
CELL_VALUE
 90
4
  1
QTY
304
ACVALUE_END
170
1
140
5.0
171
1
172
0
173
0
174
0
175
1
176
1
 91
33
178
0
145
0.0
301
CELL_VALUE
 90
4
  1
1
304
ACVALUE_END
170
1
140
5.0
171
1
172
0
173
0
174
0
175
1
176
1
 91
33
178
0
145
0.0
301
CELL_VALUE
 90
4
  1
 
304
ACVALUE_END
170
1
140
5.0
171
1
172
0
173
0
174
0
175
1
176
1
 91
33
178
0
145
0.0
301
CELL_VALUE
 90
4
  1
CENTRE_SHAFT
304
ACVALUE_END
170
1
140
5.0
171
1
172
0
173
0
174
0
175
1
176
1
 91
33
178
0
145
0.0
301
CELL_VALUE
 90
4
  1
220M07
304
ACVALUE_END
170
1
140
5.0
171
1
172
0
173
0
174
0
175
1
176
1
 91
33
178
0
145
0.0
301
CELL_VALUE
 90
4
  1
1
304
ACVALUE_END
170
1
140
5.0
171
1
172
0
173
0
174
0
175
1
176
1
 91
33
178
0
145
0.0
301
CELL_VALUE
 90
4
  1
2
304
ACVALUE_END
170
1
140
5.0
171
1
172
0
173
0
174
0
175
1
176
1
 91
33
178
0
145
0.0
301
CELL_VALUE
 90
4
  1
 
304
ACVALUE_END
170
1
140
5.0
171
1
172
0
173
0
174
0
175
1
176
1
 91
33
178
0
145
0.0
301
CELL_VALUE
 90
4
  1
FLAP
304
ACVALUE_END
170
1
140
5.0
171
1
172
0
173
0
174
0
175
1
176
1
 91
33
178
0
145
0.0
301
CELL_VALUE
 90
4
  1
220M07
304
ACVALUE_END
170
1
140
5.0
171
1
172
0
173
0
174
0
175
1
176
1
 91
33
178
0
145
0.0
301
CELL_VALUE
 90
4
  1
1
304
ACVALUE_END
170
1
140
5.0
171
1
172
0
173
0
174
0
175
1
176
1
 91
33
178
0
145
0.0
301
CELL_VALUE
 90
4
  1
3
304
ACVALUE_END
170
1
140
5.0
171
1
172
0
173
0
174
0
175
1
176
1
 91
33
178
0
145
0.0
301
CELL_VALUE
 90
4
  1
 
304
ACVALUE_END
170
1
140
5.0
171
1
172
0
173
0
174
0
175
1
176
1
 91
33
178
0
145
0.0
301
CELL_VALUE
 90
4
  1
RADIUS_ARM
304
ACVALUE_END
170
1
140
5.0
171
1
172
0
173
0
174
0
175
1
176
1
 91
33
178
0
145
0.0
301
CELL_VALUE
 90
4
  1
220M07
304
ACVALUE_END
170
1
140
5.0
171
1
172
0
173
0
174
0
175
1
176
1
 91
33
178
0
145
0.0
301
CELL_VALUE
 90
4
  1
1
304
ACVALUE_END
170
1
140
5.0
171
1
172
0
173
0
174
0
175
1
176
1
 91
33
178
0
145
0.0
301
CELL_VALUE
 90
4
  1
4
304
ACVALUE_END
170
1
140
5.0
171
1
172
0
173
0
174
0
175
1
176
1
 91
33
178
0
145
0.0
301
CELL_VALUE
 90
4
  1
 
304
ACVALUE_END
170
1
140
5.0
171
1
172
0
173
0
174
0
175
1
176
1
 91
33
178
0
145
0.0
301
CELL_VALUE
 90
4
  1
RADIUS_ARM_OH
304
ACVALUE_END
170
1
140
5.0
171
1
172
0
173
0
174
0
175
1
176
1
 91
33
178
0
145
0.0
301
CELL_VALUE
 90
4
  1
220M07
304
ACVALUE_END
170
1
140
5.0
171
1
172
0
173
0
174
0
175
1
176
1
 91
33
178
0
145
0.0
301
CELL_VALUE
 90
4
  1
1
304
ACVALUE_END
170
1
140
5.0
171
1
172
0
173
0
174
0
175
1
176
1
 91
33
178
0
145
0.0
301
CELL_VALUE
 90
4
  1
5
304
ACVALUE_END
170
1
140
5.0
171
1
172
0
173
0
174
0
175
1
176
1
 91
33
178
0
145
0.0
301
CELL_VALUE
 90
4
  1
 
304
ACVALUE_END
170
1
140
5.0
171
1
172
0
173
0
174
0
175
1
176
1
 91
33
178
0
145
0.0
301
CELL_VALUE
 90
4
  1
A500FM_1012_07_3
304
ACVALUE_END
170
1
140
5.0
171
1
172
0
173
0
174
0
175
1
176
1
 91
33
178
0
145
0.0
301
CELL_VALUE
 90
4
  1
 
304
ACVALUE_END
170
1
140
5.0
171
1
172
0
173
0
174
0
175
1
176
1
 91
33
178
0
145
0.0
301
CELL_VALUE
 90
4
  1
2
304
ACVALUE_END
170
1
140
5.0
171
1
172
0
173
0
174
0
175
1
176
1
 91
33
178
0
145
0.0
301
CELL_VALUE
 90
4
  1
6
304
ACVALUE_END
170
1
140
5.0
171
1
172
0
173
0
174
0
175
1
176
1
 91
33
178
0
145
0.0
301
CELL_VALUE
 90
4
  1
 
304
ACVALUE_END
170
1
140
5.0
171
1
172
0
173
0
174
0
175
1
176
1
 91
33
178
0
145
0.0
301
CELL_VALUE
 90
4
  1
A500FM_1012_07_3_SHORT
304
ACVALUE_END
170
1
140
5.0
171
1
172
0
173
0
174
0
175
1
176
1
 91
33
178
0
145
0.0
301
CELL_VALUE
 90
4
  1
 
304
ACVALUE_END
170
1
140
5.0
171
1
172
0
173
0
174
0
175
1
176
1
 91
33
178
0
145
0.0
301
CELL_VALUE
 90
4
  1
2
304
ACVALUE_END
170
1
140
5.0
  0
ACAD_TABLE
  5
3C4
100
AcDbEntity
  8
0
 62
2
  6
CONTINUOUS
100
AcDbBlockReference
  2
*T11
 10
922.0
 20
91.25
 30
0.0
100
AcDbTable
342
       56B
343
217
 11
1.0
 21
0.0
 31
0.0
 90
22
 91
8
 92
2
 93
0
 94
0
 95
0
 96
0
141
12.25
141
7.0
141
7.0
141
7.0
141
7.0
141
7.0
141
7.0
141
7.0
142
20.0
142
37.0
171
1
172
0
173
0
174
0
175
2
176
1
 91
33
178
0
145
0.0
301
CELL_VALUE
 90
4
  1
TOLERANCES UNLESS\POTHERWISE STATED
304
ACVALUE_END
170
5
140
3.5
171
1
172
0
173
1
174
0
175
1
176
1
 91
1
178
0
145
0.0
170
1
171
1
172
0
173
0
174
0
175
1
176
1
 91
33
178
0
145
0.0
301
CELL_VALUE
 90
4
  1
X
304
ACVALUE_END
170
5
140
3.5
171
1
172
0
173
0
174
0
175
1
176
1
 91
49
178
0
145
0.0
  7
TEXTSTYLE_4
301
CELL_VALUE
 90
4
  1
{\Fgdt;`}\Ftxt;1
304
ACVALUE_END
170
5
140
3.5
171
1
172
0
173
0
174
0
175
1
176
1
 91
33
178
0
145
0.0
301
CELL_VALUE
 90
4
  1
X.X
304
ACVALUE_END
170
5
140
3.5
171
1
172
0
173
0
174
0
175
1
176
1
 91
49
178
0
145
0.0
  7
TEXTSTYLE_4
301
CELL_VALUE
 90
4
  1
{\Fgdt;`}\Ftxt;0.5
304
ACVALUE_END
170
5
140
3.5
171
1
172
0
173
0
174
0
175
1
176
1
 91
33
178
0
145
0.0
301
CELL_VALUE
 90
4
  1
X.XX
304
ACVALUE_END
170
5
140
3.5
171
1
172
0
173
0
174
0
175
1
176
1
 91
49
178
0
145
0.0
  7
TEXTSTYLE_4
301
CELL_VALUE
 90
4
  1
{\Fgdt;`}\Ftxt;0.15
304
ACVALUE_END
170
5
140
3.5
171
1
172
0
173
0
174
0
175
2
176
1
 91
33
178
0
145
0.0
301
CELL_VALUE
 90
4
  1
ANGULAR TOLERANCES
304
ACVALUE_END
170
5
140
3.5
171
1
172
0
173
1
174
0
175
1
176
1
 91
1
178
0
145
0.0
170
1
171
1
172
0
173
0
174
0
175
1
176
1
 91
33
178
0
145
0.0
301
CELL_VALUE
 90
4
  1
X
304
ACVALUE_END
170
5
140
3.5
171
1
172
0
173
0
174
0
175
1
176
1
 91
49
178
0
145
0.0
  7
TEXTSTYLE_4
301
CELL_VALUE
 90
4
  1
{\Fgdt;`}\Ftxt;1\Fgdt;{\Fgdt;~}
304
ACVALUE_END
170
5
140
3.5
171
1
172
0
173
0
174
0
175
1
176
1
 91
33
178
0
145
0.0
301
CELL_VALUE
 90
4
  1
X.X
304
ACVALUE_END
170
5
140
3.5
171
1
172
0
173
0
174
0
175
1
176
1
 91
49
178
0
145
0.0
  7
TEXTSTYLE_4
301
CELL_VALUE
 90
4
  1
{\Fgdt;`}\Ftxt;0.5\Fgdt;{\Fgdt;~}
304
ACVALUE_END
170
5
140
3.5
171
1
172
0
173
0
174
0
175
1
176
1
 91
33
178
0
145
0.0
301
CELL_VALUE
 90
4
  1
X.XX
304
ACVALUE_END
170
5
140
3.5
171
1
172
0
173
0
174
0
175
1
176
1
 91
49
178
0
145
0.0
  7
TEXTSTYLE_4
301
CELL_VALUE
 90
4
  1
{\Fgdt;`}\Ftxt;0.15\Fgdt;{\Fgdt;~}
304
ACVALUE_END
170
5
140
3.5
  0
LEADER
  5
3C5
100
AcDbEntity
  8
0
100
AcDbLeader
 62
2
  6
CONTINUOUS
  3
STANDARD
 71
1
 72
0
 73
2
 75
0
 76
2
 10
205.8905784904
 20
545.1013542843
 30
0.0
 10
138.25271733
 20
591.8283332572
 30
0.0
340
3C6
212
6.5820536001
222
-4.5471497013
232
0.0
1001
ACAD
1000
DSTYLE
1002
{
1070
77
1070
0
1002
}
  0
INSERT
  5
3C6
102
{ACAD_REACTORS
330
3C5
102
}
100
AcDbEntity
  8
0
100
AcDbBlockReference
 62
2
  6
CONTINUOUS
  2
BALLOON_BL1
 10
131.6706637299
 20
596.3754829585
  0
LEADER
  5
3C7
100
AcDbEntity
  8
0
100
AcDbLeader
 62
2
  6
CONTINUOUS
  3
STANDARD
 71
1
 72
0
 73
2
 75
0
 76
2
 10
480.3380902352
 20
500.6553050506
 30
0.0
 10
521.3773852258
 20
500.9902485501
 30
0.0
340
3C8
212
-7.9997335709
222
-0.0652900777
232
0.0
1001
ACAD
1000
DSTYLE
1002
{
1070
77
1070
0
1002
}
  0
INSERT
  5
3C8
102
{ACAD_REACTORS
330
3C7
102
}
100
AcDbEntity
  8
0
100
AcDbBlockReference
 62
2
  6
CONTINUOUS
  2
BALLOON_BL2
 10
529.3771187967
 20
501.0555386278
  0
LEADER
  5
3C9
100
AcDbEntity
  8
0
100
AcDbLeader
 62
2
  6
CONTINUOUS
  3
STANDARD
 71
1
 72
0
 73
2
 75
0
 76
2
 10
359.0989771454
 20
723.801647541
 30
0.0
 10
404.0598087398
 20
762.8477771072
 30
0.0
340
3CA
212
-6.0401853445
222
-5.2455849058
232
0.0
1001
ACAD
1000
DSTYLE
1002
{
1070
77
1070
0
1002
}
  0
INSERT
  5
3CA
102
{ACAD_REACTORS
330
3C9
102
}
100
AcDbEntity
  8
0
100
AcDbBlockReference
 62
2
  6
CONTINUOUS
  2
BALLOON_BL3
 10
410.0999940843
 20
768.093362013
  0
LEADER
  5
3CB
100
AcDbEntity
  8
0
100
AcDbLeader
 62
2
  6
CONTINUOUS
  3
STANDARD
 71
1
 72
0
 73
2
 75
0
 76
2
 10
64.3124558612
 20
506.591675999
 30
0.0
 10
47.6014748712
 20
517.7505349902
 30
0.0
340
3CC
212
6.6530552971
222
-4.4426180585
232
0.0
1001
ACAD
1000
DSTYLE
1002
{
1070
77
1070
0
1002
}
  0
INSERT
  5
3CC
102
{ACAD_REACTORS
330
3CB
102
}
100
AcDbEntity
  8
0
100
AcDbBlockReference
 62
2
  6
CONTINUOUS
  2
BALLOON_BL4
 10
40.948419574
 20
522.1931530487
  0
LEADER
  5
3CD
100
AcDbEntity
  8
0
100
AcDbLeader
 62
2
  6
CONTINUOUS
  3
STANDARD
 71
1
 72
0
 73
2
 75
0
 76
2
 10
362.5560207973
 20
636.8536675023
 30
0.0
 10
420.6918519966
 20
724.1750124909
 30
0.0
340
3CE
212
-4.4334615959
222
-6.6591604785
232
0.0
1001
ACAD
1000
DSTYLE
1002
{
1070
77
1070
0
1002
}
  0
INSERT
  5
3CE
102
{ACAD_REACTORS
330
3CD
102
}
100
AcDbEntity
  8
0
100
AcDbBlockReference
 62
2
  6
CONTINUOUS
  2
BALLOON_BL5
 10
425.1253135925
 20
730.8341729694
  0
LEADER
  5
3CF
100
AcDbEntity
  8
0
100
AcDbLeader
 62
2
  6
CONTINUOUS
  3
STANDARD
 71
1
 72
0
 73
2
 75
0
 76
2
 10
355.4452172334
 20
636.2514861079
 30
0.0
 10
320.6926237426
 20
705.8240092115
 30
0.0
340
3D0
212
3.5749377967
222
-7.1568023411
232
0.0
1001
ACAD
1000
DSTYLE
1002
{
1070
77
1070
0
1002
}
  0
INSERT
  5
3D0
102
{ACAD_REACTORS
330
3CF
102
}
100
AcDbEntity
  8
0
100
AcDbBlockReference
 62
2
  6
CONTINUOUS
  2
BALLOON_BL6
 10
317.1176859459
 20
712.9808115526
  0
LINE
  5
3D1
100
AcDbEntity
  8
0
100
AcDbLine
 62
4
  6
CONTINUOUS
 10
0.0
 20
0.0
 11
0.0
 21
841.0
  0
LINE
  5
3D2
100
AcDbEntity
  8
0
100
AcDbLine
 62
7
  6
CONTINUOUS
 10
20.0
 20
20.0
 11
20.0
 21
821.0
  0
LINE
  5
3D3
100
AcDbEntity
  8
0
100
AcDbLine
 62
7
  6
CONTINUOUS
 10
30.0
 20
20.0
 11
30.0
 21
821.0
  0
LINE
  5
3D4
100
AcDbEntity
  8
0
100
AcDbLine
 62
4
  6
CONTINUOUS
 10
0.0
 20
0.0
 11
1189.0
 21
0.0
  0
LINE
  5
3D5
100
AcDbEntity
  8
0
100
AcDbLine
 62
7
  6
CONTINUOUS
 10
544.5
 20
10.0
 11
644.5
 21
10.0
  0
LINE
  5
3D6
100
AcDbEntity
  8
0
100
AcDbLine
 62
7
  6
CONTINUOUS
 10
20.0
 20
20.0
 11
1169.0
 21
20.0
  0
LINE
  5
3D7
100
AcDbEntity
  8
0
100
AcDbLine
 62
7
  6
CONTINUOUS
 10
20.0
 20
30.0
 11
1169.0
 21
30.0
  0
LINE
  5
3D8
100
AcDbEntity
  8
0
100
AcDbLine
 62
7
  6
CONTINUOUS
 10
979.0
 20
135.0
 11
1159.0
 21
135.0
  0
LINE
  5
3D9
100
AcDbEntity
  8
0
100
AcDbLine
 62
7
  6
CONTINUOUS
 10
544.5
 20
10.0
 11
544.5
 21
20.0
  0
LINE
  5
3DA
100
AcDbEntity
  8
0
100
AcDbLine
 62
7
  6
CONTINUOUS
 10
554.5
 20
10.0
 11
554.5
 21
20.0
  0
LINE
  5
3DB
100
AcDbEntity
  8
0
100
AcDbLine
 62
7
  6
CONTINUOUS
 10
564.5
 20
10.0
 11
564.5
 21
20.0
  0
LINE
  5
3DC
100
AcDbEntity
  8
0
100
AcDbLine
 62
7
  6
CONTINUOUS
 10
574.5
 20
10.0
 11
574.5
 21
20.0
  0
LINE
  5
3DD
100
AcDbEntity
  8
0
100
AcDbLine
 62
7
  6
CONTINUOUS
 10
584.5
 20
10.0
 11
584.5
 21
20.0
  0
LINE
  5
3DE
100
AcDbEntity
  8
0
100
AcDbLine
 62
7
  6
CONTINUOUS
 10
594.5
 20
10.0
 11
594.5
 21
20.0
  0
LINE
  5
3DF
100
AcDbEntity
  8
0
100
AcDbLine
 62
7
  6
CONTINUOUS
 10
604.5
 20
10.0
 11
604.5
 21
20.0
  0
LINE
  5
3E0
100
AcDbEntity
  8
0
100
AcDbLine
 62
7
  6
CONTINUOUS
 10
614.5
 20
10.0
 11
614.5
 21
20.0
  0
LINE
  5
3E1
100
AcDbEntity
  8
0
100
AcDbLine
 62
7
  6
CONTINUOUS
 10
624.5
 20
10.0
 11
624.5
 21
20.0
  0
LINE
  5
3E2
100
AcDbEntity
  8
0
100
AcDbLine
 62
7
  6
CONTINUOUS
 10
634.5
 20
10.0
 11
634.5
 21
20.0
  0
LINE
  5
3E3
100
AcDbEntity
  8
0
100
AcDbLine
 62
7
  6
CONTINUOUS
 10
644.5
 20
10.0
 11
644.5
 21
20.0
  0
LINE
  5
3E4
100
AcDbEntity
  8
0
100
AcDbLine
 62
7
  6
CONTINUOUS
 10
979.0
 20
30.0
 11
979.0
 21
135.0
  0
LINE
  5
3E5
100
AcDbEntity
  8
0
100
AcDbLine
 62
7
  6
CONTINUOUS
 10
20.0
 20
811.0
 11
1159.0
 21
811.0
  0
LINE
  5
3E6
100
AcDbEntity
  8
0
100
AcDbLine
 62
7
  6
CONTINUOUS
 10
20.0
 20
821.0
 11
1169.0
 21
821.0
  0
LINE
  5
3E7
100
AcDbEntity
  8
0
100
AcDbLine
 62
4
  6
CONTINUOUS
 10
0.0
 20
841.0
 11
1189.0
 21
841.0
  0
LINE
  5
3E8
100
AcDbEntity
  8
0
100
AcDbLine
 62
7
  6
CONTINUOUS
 10
1159.0
 20
20.0
 11
1159.0
 21
821.0
  0
LINE
  5
3E9
100
AcDbEntity
  8
0
100
AcDbLine
 62
7
  6
CONTINUOUS
 10
1169.0
 20
20.0
 11
1169.0
 21
821.0
  0
LINE
  5
3EA
100
AcDbEntity
  8
0
100
AcDbLine
 62
4
  6
CONTINUOUS
 10
1189.0
 20
0.0
 11
1189.0
 21
841.0
  0
LINE
  5
3EB
100
AcDbEntity
  8
0
100
AcDbLine
 62
7
  6
CONTINUOUS
 10
99.922619258
 20
165.480399735
 11
99.922619258
 21
317.480399735
  0
LINE
  5
3EC
100
AcDbEntity
  8
0
100
AcDbLine
 62
7
  6
CONTINUOUS
 10
110.922619258
 20
317.480399735
 11
110.922619258
 21
312.230399735
  0
LINE
  5
3ED
100
AcDbEntity
  8
0
100
AcDbLine
 62
7
  6
CONTINUOUS
 10
121.422619258
 20
317.480399735
 11
121.422619258
 21
312.230399735
  0
LINE
  5
3EE
100
AcDbEntity
  8
0
100
AcDbLine
 62
7
  6
CONTINUOUS
 10
132.922619258
 20
165.480399735
 11
132.922619258
 21
317.480399735
  0
LINE
  5
3EF
100
AcDbEntity
  8
0
100
AcDbLine
 62
7
  6
CONTINUOUS
 10
99.922619258
 20
165.480399735
 11
132.922619258
 21
165.480399735
  0
LINE
  5
3F0
100
AcDbEntity
  8
0
100
AcDbLine
 62
7
  6
CONTINUOUS
 10
114.2527462769
 20
177.980399735
 11
105.592492239
 21
177.980399735
  0
LINE
  5
3F1
100
AcDbEntity
  8
0
100
AcDbLine
 62
7
  6
CONTINUOUS
 10
132.922619258
 20
177.980399735
 11
354.092619258
 21
177.980399735
  0
LINE
  5
3F2
100
AcDbEntity
  8
0
100
AcDbLine
 62
7
  6
CONTINUOUS
 10
105.6536564299
 20
178.080399735
 11
114.1916200801
 21
178.080399735
  0
LINE
  5
3F3
100
AcDbEntity
  8
0
100
AcDbLine
 62
7
  6
CONTINUOUS
 10
132.922619258
 20
179.180399735
 11
354.092619258
 21
179.180399735
  0
LINE
  5
3F4
100
AcDbEntity
  8
0
100
AcDbLine
 62
9
  6
CONTINUOUS
 10
99.922619258
 20
284.280399735
 11
132.922619258
 21
284.280399735
  0
LINE
  5
3F5
100
AcDbEntity
  8
0
100
AcDbLine
 62
7
  6
CONTINUOUS
 10
99.922619258
 20
286.680399735
 11
132.922619258
 21
286.680399735
  0
LINE
  5
3F6
100
AcDbEntity
  8
0
100
AcDbLine
 62
9
  6
CONTINUOUS
 10
99.922619258
 20
287.880399735
 11
132.922619258
 21
287.880399735
  0
LINE
  5
3F7
100
AcDbEntity
  8
0
100
AcDbLine
 62
7
  6
CONTINUOUS
 10
109.922619258
 20
301.730399735
 11
122.422619258
 21
301.730399735
  0
LINE
  5
3F8
100
AcDbEntity
  8
0
100
AcDbLine
 62
7
  6
CONTINUOUS
 10
122.422619258
 20
312.230399735
 11
121.422619258
 21
312.230399735
  0
LINE
  5
3F9
100
AcDbEntity
  8
0
100
AcDbLine
 62
7
  6
CONTINUOUS
 10
110.922619258
 20
312.230399735
 11
109.922619258
 21
312.230399735
  0
LINE
  5
3FA
100
AcDbEntity
  8
0
100
AcDbLine
 62
7
  6
CONTINUOUS
 10
99.922619258
 20
317.480399735
 11
110.922619258
 21
317.480399735
  0
LINE
  5
3FB
100
AcDbEntity
  8
0
100
AcDbLine
 62
7
  6
CONTINUOUS
 10
121.422619258
 20
317.480399735
 11
132.922619258
 21
317.480399735
  0
LINE
  5
3FC
100
AcDbEntity
  8
0
100
AcDbLine
 62
7
  6
CONTINUOUS
 10
354.092619258
 20
177.980399735
 11
354.092619258
 21
179.180399735
  0
LINE
  5
3FD
100
AcDbEntity
  8
0
100
AcDbLine
 62
7
  6
CONTINUOUS
 10
556.2952074248
 20
170.480399735
 11
556.2952074248
 21
177.980399735
  0
LINE
  5
3FE
100
AcDbEntity
  8
0
100
AcDbLine
 62
7
  6
CONTINUOUS
 10
562.1952074248
 20
169.7691507225
 11
562.1952074248
 21
181.1916487475
  0
LINE
  5
3FF
100
AcDbEntity
  8
0
100
AcDbLine
 62
7
  6
CONTINUOUS
 10
562.6952074248
 20
169.480399735
 11
562.6952074248
 21
181.480399735
  0
LINE
  5
400
100
AcDbEntity
  8
0
100
AcDbLine
 62
9
  6
CONTINUOUS
 10
567.6952074248
 20
181.480399735
 11
567.6952074248
 21
169.480399735
  0
LINE
  5
401
100
AcDbEntity
  8
0
100
AcDbLine
 62
7
  6
CONTINUOUS
 10
568.1952074248
 20
166.4804756602
 11
568.1952074248
 21
184.4803238097
  0
LINE
  5
402
100
AcDbEntity
  8
0
100
AcDbLine
 62
7
  6
CONTINUOUS
 10
569.1952074248
 20
165.480399735
 11
569.1952074248
 21
284.280399735
  0
LINE
  5
403
100
AcDbEntity
  8
0
100
AcDbLine
 62
3
  6
CONTINUOUS
 10
570.3952074248
 20
165.480399735
 11
570.3952074248
 21
284.280399735
  0
LINE
  5
404
100
AcDbEntity
  8
0
100
AcDbLine
 62
7
  6
CONTINUOUS
 10
571.3952074248
 20
184.4803238097
 11
571.3952074248
 21
166.4804756602
  0
LINE
  5
405
100
AcDbEntity
  8
0
100
AcDbLine
 62
9
  6
CONTINUOUS
 10
571.5952074248
 20
285.480399735
 11
571.5952074248
 21
286.680399735
  0
LINE
  5
406
100
AcDbEntity
  8
0
100
AcDbLine
 62
9
  6
CONTINUOUS
 10
571.8952074248
 20
169.480399735
 11
571.8952074248
 21
181.480399735
  0
LINE
  5
407
100
AcDbEntity
  8
0
100
AcDbLine
 62
7
  6
CONTINUOUS
 10
572.6952074248
 20
169.4804700381
 11
572.6952074248
 21
181.4803294318
  0
LINE
  5
408
100
AcDbEntity
  8
0
100
AcDbLine
 62
7
  6
CONTINUOUS
 10
577.0952074248
 20
177.980399735
 11
577.0952074248
 21
179.180399735
  0
LINE
  5
409
100
AcDbEntity
  8
0
100
AcDbLine
 62
9
  6
CONTINUOUS
 10
579.9952074248
 20
285.480399735
 11
579.9952074248
 21
286.680399735
  0
LINE
  5
40A
100
AcDbEntity
  8
0
100
AcDbLine
 62
7
  6
CONTINUOUS
 10
581.1952074248
 20
287.880399735
 11
581.1952074248
 21
317.480399735
  0
LINE
  5
40B
100
AcDbEntity
  8
0
100
AcDbLine
 62
3
  6
CONTINUOUS
 10
582.3952074248
 20
287.880399735
 11
582.3952074248
 21
317.480399735
  0
LINE
  5
40C
100
AcDbEntity
  8
0
100
AcDbLine
 62
7
  6
CONTINUOUS
 10
562.1952074248
 20
169.7690748696
 11
562.6952074248
 21
169.480399735
  0
LINE
  5
40D
100
AcDbEntity
  8
0
100
AcDbLine
 62
7
  6
CONTINUOUS
 10
979.1952074248
 20
165.480399735
 11
977.9952074248
 21
165.480399735
  0
LINE
  5
40E
100
AcDbEntity
  8
0
100
AcDbLine
 62
7
  6
CONTINUOUS
 10
570.3952074248
 20
165.480399735
 11
569.1952074248
 21
165.480399735
  0
LINE
  5
40F
100
AcDbEntity
  8
0
100
AcDbLine
 62
7
  6
CONTINUOUS
 10
980.1952074248
 20
166.480399735
 11
979.1952074248
 21
166.480399735
  0
LINE
  5
410
100
AcDbEntity
  8
0
100
AcDbLine
 62
7
  6
CONTINUOUS
 10
571.3952074248
 20
166.480399735
 11
570.3952074248
 21
166.480399735
  0
LINE
  5
411
100
AcDbEntity
  8
0
100
AcDbLine
 62
7
  6
CONTINUOUS
 10
568.1952074248
 20
166.480399735
 11
569.1952074248
 21
166.480399735
  0
LINE
  5
412
100
AcDbEntity
  8
0
100
AcDbLine
 62
7
  6
CONTINUOUS
 10
976.9952074248
 20
166.480399735
 11
977.9952074248
 21
166.480399735
  0
LINE
  5
413
100
AcDbEntity
  8
0
100
AcDbLine
 62
7
  6
CONTINUOUS
 10
985.6952074248
 20
169.480399735
 11
980.6952074248
 21
169.480399735
  0
LINE
  5
414
100
AcDbEntity
  8
0
100
AcDbLine
 62
7
  6
CONTINUOUS
 10
572.6952074248
 20
169.480399735
 11
571.8952074248
 21
169.480399735
  0
LINE
  5
415
100
AcDbEntity
  8
0
100
AcDbLine
 62
7
  6
CONTINUOUS
 10
562.6952074248
 20
169.480399735
 11
567.6952074248
 21
169.480399735
  0
LINE
  5
416
100
AcDbEntity
  8
0
100
AcDbLine
 62
7
  6
CONTINUOUS
 10
975.6952074248
 20
169.480399735
 11
976.4952074248
 21
169.480399735
  0
LINE
  5
417
100
AcDbEntity
  8
0
100
AcDbLine
 62
7
  6
CONTINUOUS
 10
995.2952074248
 20
170.480399735
 11
986.1952074248
 21
170.480399735
  0
LINE
  5
418
100
AcDbEntity
  8
0
100
AcDbLine
 62
7
  6
CONTINUOUS
 10
975.6952074248
 20
170.480399735
 11
966.9440067187
 21
170.480399735
  0
LINE
  5
419
100
AcDbEntity
  8
0
100
AcDbLine
 62
7
  6
CONTINUOUS
 10
963.6469807006
 20
170.480399735
 11
903.2440067188
 21
170.480399735
  0
LINE
  5
41A
100
AcDbEntity
  8
0
100
AcDbLine
 62
7
  6
CONTINUOUS
 10
899.9469807006
 20
170.480399735
 11
839.5440067188
 21
170.480399735
  0
LINE
  5
41B
100
AcDbEntity
  8
0
100
AcDbLine
 62
7
  6
CONTINUOUS
 10
836.2469807006
 20
170.480399735
 11
775.8440067188
 21
170.480399735
  0
LINE
  5
41C
100
AcDbEntity
  8
0
100
AcDbLine
 62
7
  6
CONTINUOUS
 10
772.5469807006
 20
170.480399735
 11
712.1440067188
 21
170.480399735
  0
LINE
  5
41D
100
AcDbEntity
  8
0
100
AcDbLine
 62
7
  6
CONTINUOUS
 10
708.8469807006
 20
170.480399735
 11
648.4440067188
 21
170.480399735
  0
LINE
  5
41E
100
AcDbEntity
  8
0
100
AcDbLine
 62
7
  6
CONTINUOUS
 10
645.1469807006
 20
170.480399735
 11
584.7440067188
 21
170.480399735
  0
LINE
  5
41F
100
AcDbEntity
  8
0
100
AcDbLine
 62
7
  6
CONTINUOUS
 10
581.4469807006
 20
170.480399735
 11
572.6952074248
 21
170.480399735
  0
LINE
  5
420
100
AcDbEntity
  8
0
100
AcDbLine
 62
7
  6
CONTINUOUS
 10
562.1952074248
 20
170.480399735
 11
556.2952074248
 21
170.480399735
  0
LINE
  5
421
100
AcDbEntity
  8
0
100
AcDbLine
 62
7
  6
CONTINUOUS
 10
995.2952074248
 20
177.980399735
 11
986.1952074248
 21
177.980399735
  0
LINE
  5
422
100
AcDbEntity
  8
0
100
AcDbLine
 62
7
  6
CONTINUOUS
 10
562.1952074248
 20
177.980399735
 11
556.2952074248
 21
177.980399735
  0
LINE
  5
423
100
AcDbEntity
  8
0
100
AcDbLine
 62
7
  6
CONTINUOUS
 10
572.6952074248
 20
177.980399735
 11
975.6952074248
 21
177.980399735
  0
LINE
  5
424
100
AcDbEntity
  8
0
100
AcDbLine
 62
7
  6
CONTINUOUS
 10
577.0952074248
 20
179.180399735
 11
971.5952074248
 21
179.180399735
  0
LINE
  5
425
100
AcDbEntity
  8
0
100
AcDbLine
 62
7
  6
CONTINUOUS
 10
985.6952074248
 20
181.480399735
 11
980.6952074248
 21
181.480399735
  0
LINE
  5
426
100
AcDbEntity
  8
0
100
AcDbLine
 62
7
  6
CONTINUOUS
 10
572.6952074248
 20
181.480399735
 11
571.8952074248
 21
181.480399735
  0
LINE
  5
427
100
AcDbEntity
  8
0
100
AcDbLine
 62
7
  6
CONTINUOUS
 10
562.6952074248
 20
181.480399735
 11
567.6952074248
 21
181.480399735
  0
LINE
  5
428
100
AcDbEntity
  8
0
100
AcDbLine
 62
7
  6
CONTINUOUS
 10
975.6952074248
 20
181.480399735
 11
976.4952074248
 21
181.480399735
  0
LINE
  5
429
100
AcDbEntity
  8
0
100
AcDbLine
 62
7
  6
CONTINUOUS
 10
562.1952074248
 20
181.1917246004
 11
562.6952074248
 21
181.480399735
  0
LINE
  5
42A
100
AcDbEntity
  8
0
100
AcDbLine
 62
7
  6
CONTINUOUS
 10
980.1952074248
 20
184.480399735
 11
979.1952074248
 21
184.480399735
  0
LINE
  5
42B
100
AcDbEntity
  8
0
100
AcDbLine
 62
7
  6
CONTINUOUS
 10
571.3952074248
 20
184.480399735
 11
570.3952074248
 21
184.480399735
  0
LINE
  5
42C
100
AcDbEntity
  8
0
100
AcDbLine
 62
7
  6
CONTINUOUS
 10
568.1952074248
 20
184.480399735
 11
569.1952074248
 21
184.480399735
  0
LINE
  5
42D
100
AcDbEntity
  8
0
100
AcDbLine
 62
7
  6
CONTINUOUS
 10
976.9952074248
 20
184.480399735
 11
977.9952074248
 21
184.480399735
  0
LINE
  5
42E
100
AcDbEntity
  8
0
100
AcDbLine
 62
9
  6
CONTINUOUS
 10
979.1952074248
 20
283.080399735
 11
977.9952074248
 21
283.080399735
  0
LINE
  5
42F
100
AcDbEntity
  8
0
100
AcDbLine
 62
7
  6
CONTINUOUS
 10
976.7952074248
 20
284.280399735
 11
968.3952074248
 21
284.280399735
  0
LINE
  5
430
100
AcDbEntity
  8
0
100
AcDbLine
 62
9
  6
CONTINUOUS
 10
570.3952074248
 20
284.280399735
 11
569.1952074248
 21
284.280399735
  0
LINE
  5
431
100
AcDbEntity
  8
0
100
AcDbLine
 62
3
  6
CONTINUOUS
 10
976.7952074248
 20
285.480399735
 11
968.3952074248
 21
285.480399735
  0
LINE
  5
432
100
AcDbEntity
  8
0
100
AcDbLine
 62
3
  6
CONTINUOUS
 10
571.5952074248
 20
285.480399735
 11
579.9952074248
 21
285.480399735
  0
LINE
  5
433
100
AcDbEntity
  8
0
100
AcDbLine
 62
9
  6
CONTINUOUS
 10
967.1952074248
 20
286.680399735
 11
965.9952074248
 21
286.680399735
  0
LINE
  5
434
100
AcDbEntity
  8
0
100
AcDbLine
 62
7
  6
CONTINUOUS
 10
571.5952074248
 20
286.680399735
 11
579.9952074248
 21
286.680399735
  0
LINE
  5
435
100
AcDbEntity
  8
0
100
AcDbLine
 62
9
  6
CONTINUOUS
 10
582.3952074248
 20
287.880399735
 11
581.1952074248
 21
287.880399735
  0
LINE
  5
436
100
AcDbEntity
  8
0
100
AcDbLine
 62
7
  6
CONTINUOUS
 10
986.1952074248
 20
181.1917246004
 11
985.6952074248
 21
181.480399735
  0
LINE
  5
437
100
AcDbEntity
  8
0
100
AcDbLine
 62
7
  6
CONTINUOUS
 10
967.1952074248
 20
317.480399735
 11
965.9952074248
 21
317.480399735
  0
LINE
  5
438
100
AcDbEntity
  8
0
100
AcDbLine
 62
7
  6
CONTINUOUS
 10
582.3952074248
 20
317.480399735
 11
581.1952074248
 21
317.480399735
  0
LINE
  5
439
100
AcDbEntity
  8
0
100
AcDbLine
 62
7
  6
CONTINUOUS
 10
986.1952074248
 20
169.7690748696
 11
985.6952074248
 21
169.480399735
  0
LINE
  5
43A
100
AcDbEntity
  8
0
100
AcDbLine
 62
7
  6
CONTINUOUS
 10
965.9952074248
 20
286.680399735
 11
965.9952074248
 21
317.480399735
  0
LINE
  5
43B
100
AcDbEntity
  8
0
100
AcDbLine
 62
3
  6
CONTINUOUS
 10
967.1952074248
 20
286.680399735
 11
967.1952074248
 21
317.480399735
  0
LINE
  5
43C
100
AcDbEntity
  8
0
100
AcDbLine
 62
9
  6
CONTINUOUS
 10
968.3952074248
 20
285.480399735
 11
968.3952074248
 21
284.280399735
  0
LINE
  5
43D
100
AcDbEntity
  8
0
100
AcDbLine
 62
7
  6
CONTINUOUS
 10
971.5952074248
 20
177.980399735
 11
971.5952074248
 21
179.180399735
  0
LINE
  5
43E
100
AcDbEntity
  8
0
100
AcDbLine
 62
7
  6
CONTINUOUS
 10
975.6952074248
 20
181.4803294318
 11
975.6952074248
 21
169.4804700381
  0
LINE
  5
43F
100
AcDbEntity
  8
0
100
AcDbLine
 62
9
  6
CONTINUOUS
 10
976.4952074248
 20
181.480399735
 11
976.4952074248
 21
169.480399735
  0
LINE
  5
440
100
AcDbEntity
  8
0
100
AcDbLine
 62
9
  6
CONTINUOUS
 10
976.7952074248
 20
285.480399735
 11
976.7952074248
 21
284.280399735
  0
LINE
  5
441
100
AcDbEntity
  8
0
100
AcDbLine
 62
7
  6
CONTINUOUS
 10
976.9952074248
 20
166.4804756602
 11
976.9952074248
 21
184.4803238097
  0
LINE
  5
442
100
AcDbEntity
  8
0
100
AcDbLine
 62
7
  6
CONTINUOUS
 10
977.9952074248
 20
165.480399735
 11
977.9952074248
 21
283.080399735
  0
LINE
  5
443
100
AcDbEntity
  8
0
100
AcDbLine
 62
3
  6
CONTINUOUS
 10
979.1952074248
 20
165.480399735
 11
979.1952074248
 21
283.080399735
  0
LINE
  5
444
100
AcDbEntity
  8
0
100
AcDbLine
 62
7
  6
CONTINUOUS
 10
980.1952074248
 20
184.4803238097
 11
980.1952074248
 21
166.4804756602
  0
LINE
  5
445
100
AcDbEntity
  8
0
100
AcDbLine
 62
9
  6
CONTINUOUS
 10
980.6952074248
 20
169.480399735
 11
980.6952074248
 21
181.480399735
  0
LINE
  5
446
100
AcDbEntity
  8
0
100
AcDbLine
 62
7
  6
CONTINUOUS
 10
985.6952074248
 20
181.480399735
 11
985.6952074248
 21
169.480399735
  0
LINE
  5
447
100
AcDbEntity
  8
0
100
AcDbLine
 62
7
  6
CONTINUOUS
 10
986.1952074248
 20
181.1916487475
 11
986.1952074248
 21
169.7691507225
  0
LINE
  5
448
100
AcDbEntity
  8
0
100
AcDbLine
 62
7
  6
CONTINUOUS
 10
995.2952074248
 20
170.480399735
 11
995.2952074248
 21
177.980399735
  0
LINE
  5
449
100
AcDbEntity
  8
0
100
AcDbLine
 62
7
  6
CONTINUOUS
 10
556.2952074248
 20
646.8832651196
 11
556.2952074248
 21
656.8832151047
  0
LINE
  5
44A
100
AcDbEntity
  8
0
100
AcDbLine
 62
7
  6
CONTINUOUS
 10
562.1952074248
 20
646.1719152468
 11
562.1952074248
 21
657.5945649776
  0
LINE
  5
44B
100
AcDbEntity
  8
0
100
AcDbLine
 62
7
  6
CONTINUOUS
 10
562.6952074248
 20
645.8832401122
 11
562.6952074248
 21
657.8832401122
  0
LINE
  5
44C
100
AcDbEntity
  8
0
100
AcDbLine
 62
7
  6
CONTINUOUS
 10
568.1952074248
 20
642.8832401122
 11
568.1952074248
 21
660.8832401122
  0
LINE
  5
44D
100
AcDbEntity
  8
0
100
AcDbLine
 62
7
  6
CONTINUOUS
 10
569.1952074248
 20
661.8832401122
 11
569.1952074248
 21
628.8832401122
  0
LINE
  5
44E
100
AcDbEntity
  8
DEFAULT_2
100
AcDbLine
 62
8
  6
HIDDEN
 10
570.3952074248
 20
661.8832401122
 11
570.3952074248
 21
628.8832401122
  0
LINE
  5
44F
100
AcDbEntity
  8
DEFAULT_2
100
AcDbLine
 62
8
  6
HIDDEN
 10
571.3952074248
 20
660.8832401122
 11
571.3952074248
 21
642.8832401122
  0
LINE
  5
450
100
AcDbEntity
  8
DEFAULT_2
100
AcDbLine
 62
8
  6
HIDDEN
 10
572.6952074248
 20
645.8832401122
 11
572.6952074248
 21
657.8832401122
  0
LINE
  5
451
100
AcDbEntity
  8
0
100
AcDbLine
 62
7
  6
CONTINUOUS
 10
562.1952074248
 20
657.5945649776
 11
562.6952074248
 21
657.8832401122
  0
LINE
  5
452
100
AcDbEntity
  8
DEFAULT_2
100
AcDbLine
 62
8
  6
HIDDEN
 10
577.0952074248
 20
656.2132401122
 11
577.0952074248
 21
628.8832401122
  0
LINE
  5
453
100
AcDbEntity
  8
0
100
AcDbLine
 62
7
  6
CONTINUOUS
 10
577.0952074248
 20
628.8832401122
 11
577.0952074248
 21
407.7132401122
  0
LINE
  5
454
100
AcDbEntity
  8
0
100
AcDbLine
 62
7
  6
CONTINUOUS
 10
581.1952074248
 20
661.8832401122
 11
581.1952074248
 21
628.8832401122
  0
LINE
  5
455
100
AcDbEntity
  8
0
100
AcDbLine
 62
3
  6
CONTINUOUS
 10
582.3952074248
 20
661.8832401122
 11
582.3952074248
 21
628.8832401122
  0
LINE
  5
456
100
AcDbEntity
  8
0
100
AcDbLine
 62
7
  6
CONTINUOUS
 10
577.0952074248
 20
407.7132401122
 11
971.5952074248
 21
407.7132401122
  0
LINE
  5
457
100
AcDbEntity
  8
0
100
AcDbLine
 62
7
  6
CONTINUOUS
 10
562.1952074248
 20
646.1719152468
 11
562.6952074248
 21
645.8832401122
  0
LINE
  5
458
100
AcDbEntity
  8
0
100
AcDbLine
 62
7
  6
CONTINUOUS
 10
986.1952074248
 20
646.1719152468
 11
985.6952074248
 21
645.8832401122
  0
LINE
  5
459
100
AcDbEntity
  8
0
100
AcDbLine
 62
7
  6
CONTINUOUS
 10
967.1952074248
 20
628.8832401122
 11
965.9952074248
 21
628.8832401122
  0
LINE
  5
45A
100
AcDbEntity
  8
0
100
AcDbLine
 62
7
  6
CONTINUOUS
 10
569.1952074248
 20
628.8832401122
 11
582.3952074248
 21
628.8832401122
  0
LINE
  5
45B
100
AcDbEntity
  8
0
100
AcDbLine
 62
3
  6
CONTINUOUS
 10
967.1952074248
 20
628.8832401122
 11
979.1952074248
 21
628.8832401122
  0
LINE
  5
45C
100
AcDbEntity
  8
DEFAULT_2
100
AcDbLine
 62
8
  6
HIDDEN
 10
581.1952074248
 20
634.1332401122
 11
582.3952074248
 21
634.1332401122
  0
LINE
  5
45D
100
AcDbEntity
  8
DEFAULT_2
100
AcDbLine
 62
8
  6
HIDDEN
 10
965.9952074248
 20
634.1332401122
 11
967.1952074248
 21
634.1332401122
  0
LINE
  5
45E
100
AcDbEntity
  8
0
100
AcDbLine
 62
7
  6
CONTINUOUS
 10
967.1952074248
 20
640.3832401122
 11
965.9952074248
 21
640.3832401122
  0
LINE
  5
45F
100
AcDbEntity
  8
0
100
AcDbLine
 62
7
  6
CONTINUOUS
 10
582.3952074248
 20
640.3832401122
 11
581.1952074248
 21
640.3832401122
  0
LINE
  5
460
100
AcDbEntity
  8
0
100
AcDbLine
 62
7
  6
CONTINUOUS
 10
980.1952074248
 20
642.8832401122
 11
979.1952074248
 21
642.8832401122
  0
LINE
  5
461
100
AcDbEntity
  8
DEFAULT_2
100
AcDbLine
 62
8
  6
HIDDEN
 10
571.3952074248
 20
642.8832401122
 11
570.3952074248
 21
642.8832401122
  0
LINE
  5
462
100
AcDbEntity
  8
0
100
AcDbLine
 62
7
  6
CONTINUOUS
 10
568.1952074248
 20
642.8832401122
 11
569.1952074248
 21
642.8832401122
  0
LINE
  5
463
100
AcDbEntity
  8
DEFAULT_2
100
AcDbLine
 62
8
  6
HIDDEN
 10
976.9952074248
 20
642.8832401122
 11
977.9952074248
 21
642.8832401122
  0
LINE
  5
464
100
AcDbEntity
  8
0
100
AcDbLine
 62
7
  6
CONTINUOUS
 10
985.6952074248
 20
645.8832401122
 11
980.6952074248
 21
645.8832401122
  0
LINE
  5
465
100
AcDbEntity
  8
DEFAULT_2
100
AcDbLine
 62
8
  6
HIDDEN
 10
572.6952074248
 20
645.8832401122
 11
571.8952074248
 21
645.8832401122
  0
LINE
  5
466
100
AcDbEntity
  8
0
100
AcDbLine
 62
7
  6
CONTINUOUS
 10
562.6952074248
 20
645.8832401122
 11
567.6952074248
 21
645.8832401122
  0
LINE
  5
467
100
AcDbEntity
  8
DEFAULT_2
100
AcDbLine
 62
8
  6
HIDDEN
 10
975.6952074248
 20
645.8832401122
 11
976.4952074248
 21
645.8832401122
  0
LINE
  5
468
100
AcDbEntity
  8
DEFAULT_2
100
AcDbLine
 62
8
  6
HIDDEN
 10
979.1952074248
 20
646.7832401122
 11
977.9952074248
 21
646.7832401122
  0
LINE
  5
469
100
AcDbEntity
  8
DEFAULT_2
100
AcDbLine
 62
8
  6
HIDDEN
 10
570.3952074248
 20
646.7832401122
 11
569.1952074248
 21
646.7832401122
  0
LINE
  5
46A
100
AcDbEntity
  8
0
100
AcDbLine
 62
7
  6
CONTINUOUS
 10
995.2952074248
 20
646.8832401122
 11
986.1952074248
 21
646.8832401122
  0
LINE
  5
46B
100
AcDbEntity
  8
DEFAULT_2
100
AcDbLine
 62
8
  6
HIDDEN
 10
986.1952074248
 20
646.8832401122
 11
562.1952074248
 21
646.8832401122
  0
LINE
  5
46C
100
AcDbEntity
  8
0
100
AcDbLine
 62
7
  6
CONTINUOUS
 10
562.1952074248
 20
646.8832401122
 11
556.2952074248
 21
646.8832401122
  0
LINE
  5
46D
100
AcDbEntity
  8
DEFAULT_2
100
AcDbLine
 62
8
  6
HIDDEN
 10
979.1952074248
 20
647.4957579185
 11
977.9952074248
 21
647.4957579185
  0
LINE
  5
46E
100
AcDbEntity
  8
DEFAULT_2
100
AcDbLine
 62
8
  6
HIDDEN
 10
570.3952074248
 20
647.4957579185
 11
569.1952074248
 21
647.4957579185
  0
LINE
  5
46F
100
AcDbEntity
  8
0
100
AcDbLine
 62
7
  6
CONTINUOUS
 10
995.2952074248
 20
647.5531130932
 11
986.1952074248
 21
647.5531130932
  0
LINE
  5
470
100
AcDbEntity
  8
DEFAULT_2
100
AcDbLine
 62
8
  6
HIDDEN
 10
986.1952074248
 20
647.5531130932
 11
562.1952074248
 21
647.5531130932
  0
LINE
  5
471
100
AcDbEntity
  8
0
100
AcDbLine
 62
7
  6
CONTINUOUS
 10
562.1952074248
 20
647.5531130932
 11
556.2952074248
 21
647.5531130932
  0
LINE
  5
472
100
AcDbEntity
  8
0
100
AcDbLine
 62
7
  6
CONTINUOUS
 10
967.1952074248
 20
650.8832401122
 11
965.9952074248
 21
650.8832401122
  0
LINE
  5
473
100
AcDbEntity
  8
0
100
AcDbLine
 62
7
  6
CONTINUOUS
 10
582.3952074248
 20
650.8832401122
 11
581.1952074248
 21
650.8832401122
  0
LINE
  5
474
100
AcDbEntity
  8
0
100
AcDbLine
 62
7
  6
CONTINUOUS
 10
965.9952074248
 20
656.2132401122
 11
582.3952074248
 21
656.2132401122
  0
LINE
  5
475
100
AcDbEntity
  8
0
100
AcDbLine
 62
7
  6
CONTINUOUS
 10
995.2952074248
 20
656.2133671311
 11
986.1952074248
 21
656.2133671311
  0
LINE
  5
476
100
AcDbEntity
  8
DEFAULT_2
100
AcDbLine
 62
8
  6
HIDDEN
 10
986.1952074248
 20
656.2133671311
 11
965.9952074248
 21
656.2132401122
  0
LINE
  5
477
100
AcDbEntity
  8
DEFAULT_2
100
AcDbLine
 62
8
  6
HIDDEN
 10
582.3952074248
 20
656.2132401122
 11
562.1952074248
 21
656.2133671311
  0
LINE
  5
478
100
AcDbEntity
  8
0
100
AcDbLine
 62
7
  6
CONTINUOUS
 10
562.1952074248
 20
656.2133671311
 11
556.2952074248
 21
656.2133671311
  0
LINE
  5
479
100
AcDbEntity
  8
DEFAULT_2
100
AcDbLine
 62
8
  6
HIDDEN
 10
979.1952074248
 20
656.2707223059
 11
977.9952074248
 21
656.2707223059
  0
LINE
  5
47A
100
AcDbEntity
  8
DEFAULT_2
100
AcDbLine
 62
8
  6
HIDDEN
 10
570.3952074248
 20
656.2707223059
 11
569.1952074248
 21
656.2707223059
  0
LINE
  5
47B
100
AcDbEntity
  8
0
100
AcDbLine
 62
7
  6
CONTINUOUS
 10
995.2952074248
 20
656.8832401122
 11
986.1952074248
 21
656.8832401122
  0
LINE
  5
47C
100
AcDbEntity
  8
DEFAULT_2
100
AcDbLine
 62
8
  6
HIDDEN
 10
986.1952074248
 20
656.8832401122
 11
965.9952074248
 21
656.8832401122
  0
LINE
  5
47D
100
AcDbEntity
  8
0
100
AcDbLine
 62
7
  6
CONTINUOUS
 10
965.9952074248
 20
656.8832401122
 11
582.3952074248
 21
656.8832401122
  0
LINE
  5
47E
100
AcDbEntity
  8
DEFAULT_2
100
AcDbLine
 62
8
  6
HIDDEN
 10
582.3952074248
 20
656.8832401122
 11
562.1952074248
 21
656.8832401122
  0
LINE
  5
47F
100
AcDbEntity
  8
0
100
AcDbLine
 62
7
  6
CONTINUOUS
 10
562.1952074248
 20
656.8832401122
 11
556.2952074248
 21
656.8832401122
  0
LINE
  5
480
100
AcDbEntity
  8
DEFAULT_2
100
AcDbLine
 62
8
  6
HIDDEN
 10
979.1952074248
 20
656.9832401122
 11
977.9952074248
 21
656.9832401122
  0
LINE
  5
481
100
AcDbEntity
  8
DEFAULT_2
100
AcDbLine
 62
8
  6
HIDDEN
 10
570.3952074248
 20
656.9832401122
 11
569.1952074248
 21
656.9832401122
  0
LINE
  5
482
100
AcDbEntity
  8
DEFAULT_2
100
AcDbLine
 62
8
  6
HIDDEN
 10
581.1952074248
 20
657.1332401122
 11
582.3952074248
 21
657.1332401122
  0
LINE
  5
483
100
AcDbEntity
  8
DEFAULT_2
100
AcDbLine
 62
8
  6
HIDDEN
 10
965.9952074248
 20
657.1332401122
 11
967.1952074248
 21
657.1332401122
  0
LINE
  5
484
100
AcDbEntity
  8
0
100
AcDbLine
 62
7
  6
CONTINUOUS
 10
985.6952074248
 20
657.8832401122
 11
980.6952074248
 21
657.8832401122
  0
LINE
  5
485
100
AcDbEntity
  8
DEFAULT_2
100
AcDbLine
 62
8
  6
HIDDEN
 10
572.6952074248
 20
657.8832401122
 11
571.8952074248
 21
657.8832401122
  0
LINE
  5
486
100
AcDbEntity
  8
0
100
AcDbLine
 62
7
  6
CONTINUOUS
 10
562.6952074248
 20
657.8832401122
 11
567.6952074248
 21
657.8832401122
  0
LINE
  5
487
100
AcDbEntity
  8
DEFAULT_2
100
AcDbLine
 62
8
  6
HIDDEN
 10
975.6952074248
 20
657.8832401122
 11
976.4952074248
 21
657.8832401122
  0
LINE
  5
488
100
AcDbEntity
  8
0
100
AcDbLine
 62
7
  6
CONTINUOUS
 10
980.1952074248
 20
660.8832401122
 11
979.1952074248
 21
660.8832401122
  0
LINE
  5
489
100
AcDbEntity
  8
DEFAULT_2
100
AcDbLine
 62
8
  6
HIDDEN
 10
571.3952074248
 20
660.8832401122
 11
570.3952074248
 21
660.8832401122
  0
LINE
  5
48A
100
AcDbEntity
  8
0
100
AcDbLine
 62
7
  6
CONTINUOUS
 10
568.1952074248
 20
660.8832401122
 11
569.1952074248
 21
660.8832401122
  0
LINE
  5
48B
100
AcDbEntity
  8
DEFAULT_2
100
AcDbLine
 62
8
  6
HIDDEN
 10
976.9952074248
 20
660.8832401122
 11
977.9952074248
 21
660.8832401122
  0
LINE
  5
48C
100
AcDbEntity
  8
0
100
AcDbLine
 62
7
  6
CONTINUOUS
 10
967.1952074248
 20
661.8832401122
 11
965.9952074248
 21
661.8832401122
  0
LINE
  5
48D
100
AcDbEntity
  8
0
100
AcDbLine
 62
7
  6
CONTINUOUS
 10
569.1952074248
 20
661.8832401122
 11
582.3952074248
 21
661.8832401122
  0
LINE
  5
48E
100
AcDbEntity
  8
0
100
AcDbLine
 62
3
  6
CONTINUOUS
 10
967.1952074248
 20
661.8832401122
 11
979.1952074248
 21
661.8832401122
  0
LINE
  5
48F
100
AcDbEntity
  8
0
100
AcDbLine
 62
7
  6
CONTINUOUS
 10
965.9952074248
 20
661.8832401122
 11
965.9952074248
 21
628.8832401122
  0
LINE
  5
490
100
AcDbEntity
  8
0
100
AcDbLine
 62
3
  6
CONTINUOUS
 10
967.1952074248
 20
661.8832401122
 11
967.1952074248
 21
628.8832401122
  0
LINE
  5
491
100
AcDbEntity
  8
0
100
AcDbLine
 62
7
  6
CONTINUOUS
 10
971.5952074248
 20
407.7132401122
 11
971.5952074248
 21
628.8832401122
  0
LINE
  5
492
100
AcDbEntity
  8
DEFAULT_2
100
AcDbLine
 62
8
  6
HIDDEN
 10
971.5952074248
 20
628.8832401122
 11
971.5952074248
 21
656.2132401122
  0
LINE
  5
493
100
AcDbEntity
  8
DEFAULT_2
100
AcDbLine
 62
8
  6
HIDDEN
 10
975.6952074248
 20
657.8832401122
 11
975.6952074248
 21
645.8832401122
  0
LINE
  5
494
100
AcDbEntity
  8
DEFAULT_2
100
AcDbLine
 62
8
  6
HIDDEN
 10
976.9952074248
 20
642.8832401122
 11
976.9952074248
 21
660.8832401122
  0
LINE
  5
495
100
AcDbEntity
  8
DEFAULT_2
100
AcDbLine
 62
8
  6
HIDDEN
 10
977.9952074248
 20
628.8832401122
 11
977.9952074248
 21
661.8832401122
  0
LINE
  5
496
100
AcDbEntity
  8
0
100
AcDbLine
 62
3
  6
CONTINUOUS
 10
979.1952074248
 20
661.8832401122
 11
979.1952074248
 21
628.8832401122
  0
LINE
  5
497
100
AcDbEntity
  8
0
100
AcDbLine
 62
7
  6
CONTINUOUS
 10
980.1952074248
 20
660.8832401122
 11
980.1952074248
 21
642.8832401122
  0
LINE
  5
498
100
AcDbEntity
  8
0
100
AcDbLine
 62
7
  6
CONTINUOUS
 10
985.6952074248
 20
657.8832401122
 11
985.6952074248
 21
645.8832401122
  0
LINE
  5
499
100
AcDbEntity
  8
0
100
AcDbLine
 62
7
  6
CONTINUOUS
 10
986.1952074248
 20
657.5945649776
 11
986.1952074248
 21
646.1719152468
  0
LINE
  5
49A
100
AcDbEntity
  8
0
100
AcDbLine
 62
7
  6
CONTINUOUS
 10
995.2952074248
 20
646.8832651196
 11
995.2952074248
 21
656.8832151047
  0
LINE
  5
49B
100
AcDbEntity
  8
0
100
AcDbLine
 62
7
  6
CONTINUOUS
 10
986.1952074248
 20
657.5945649776
 11
985.6952074248
 21
657.8832401122
  0
CIRCLE
  5
49C
100
AcDbEntity
  8
0
100
AcDbCircle
 62
7
  6
CONTINUOUS
 10
109.922619258
 20
175.480399735
 40
9.0
  0
CIRCLE
  5
49D
100
AcDbEntity
  8
0
100
AcDbCircle
 62
9
  6
CONTINUOUS
 10
109.922619258
 20
175.480399735
 40
6.5
  0
CIRCLE
  5
49E
100
AcDbEntity
  8
0
100
AcDbCircle
 62
7
  6
CONTINUOUS
 10
109.922619258
 20
175.480399735
 40
6.0
  0
CIRCLE
  5
49F
100
AcDbEntity
  8
0
100
AcDbCircle
 62
7
  6
CONTINUOUS
 10
109.922619258
 20
175.480399735
 40
5.7113248654
  0
ARC
  5
4A0
100
AcDbEntity
  8
0
100
AcDbCircle
 62
7
  6
CONTINUOUS
 10
122.422619258
 20
306.980399735
 40
5.25
100
AcDbArc
 50
270.0
 51
90.0
  0
ARC
  5
4A1
100
AcDbEntity
  8
0
100
AcDbCircle
 62
7
  6
CONTINUOUS
 10
109.922619258
 20
306.980399735
 40
5.25
100
AcDbArc
 50
90.0
 51
270.0
  0
CIRCLE
  5
4A2
100
AcDbEntity
  8
0
100
AcDbCircle
 62
7
  6
CONTINUOUS
 10
109.922619258
 20
175.480399735
 40
5.0
  0
ARC
  5
4A3
100
AcDbEntity
  8
HOLES
100
AcDbCircle
 62
7
  6
CONTINUOUS
 10
583.6993143636
 20
163.5797380146
 40
7.2597353793
100
AcDbArc
 50
106.8526735355
 51
107.0567615871
  0
ARC
  5
4A4
100
AcDbEntity
  8
HOLES
100
AcDbCircle
 62
7
  6
CONTINUOUS
 10
647.3993143439
 20
163.5797380791
 40
7.2597353119
100
AcDbArc
 50
106.8526735344
 51
107.0567615882
  0
ARC
  5
4A5
100
AcDbEntity
  8
HOLES
100
AcDbCircle
 62
7
  6
CONTINUOUS
 10
647.3768199852
 20
163.6556033328
 40
7.1806093109
100
AcDbArc
 50
106.8556579071
 51
107.0636526391
  0
ARC
  5
4A6
100
AcDbEntity
  8
HOLES
100
AcDbCircle
 62
7
  6
CONTINUOUS
 10
583.6768199843
 20
163.6556033356
 40
7.180609308
100
AcDbArc
 50
106.8556579072
 51
107.063652639
  0
ARC
  5
4A7
100
AcDbEntity
  8
HOLES
100
AcDbCircle
 62
7
  6
CONTINUOUS
 10
646.374536314
 20
164.1705930856
 40
6.6410650018
100
AcDbArc
 50
72.3453566667
 51
72.974671985
  0
ARC
  5
4A8
100
AcDbEntity
  8
HOLES
100
AcDbCircle
 62
7
  6
CONTINUOUS
 10
582.6745363141
 20
164.1705930857
 40
6.6410650017
100
AcDbArc
 50
72.3453566667
 51
72.9746719849
  0
ARC
  5
4A9
100
AcDbEntity
  8
HOLES
100
AcDbCircle
 62
7
  6
CONTINUOUS
 10
647.2123991114
 20
164.1810617166
 40
6.6300357347
100
AcDbArc
 50
107.036763645
 51
107.6566341499
  0
ARC
  5
4AA
100
AcDbEntity
  8
HOLES
100
AcDbCircle
 62
7
  6
CONTINUOUS
 10
583.512399111
 20
164.1810617179
 40
6.6300357333
100
AcDbArc
 50
107.0367636449
 51
107.65663415
  0
ARC
  5
4AB
100
AcDbEntity
  8
HOLES
100
AcDbCircle
 62
7
  6
CONTINUOUS
 10
646.4427435809
 20
164.408340975
 40
6.3937671167
100
AcDbArc
 50
72.9353041815
 51
74.0772153895
  0
ARC
  5
4AC
100
AcDbEntity
  8
HOLES
100
AcDbCircle
 62
7
  6
CONTINUOUS
 10
582.7427435808
 20
164.4083409746
 40
6.3937671171
100
AcDbArc
 50
72.9353041815
 51
74.0772153895
  0
ARC
  5
4AD
100
AcDbEntity
  8
HOLES
100
AcDbCircle
 62
7
  6
CONTINUOUS
 10
647.0940086896
 20
164.5920066476
 40
6.2024311364
100
AcDbArc
 50
105.9242072898
 51
106.8636002511
  0
ARC
  5
4AE
100
AcDbEntity
  8
HOLES
100
AcDbCircle
 62
7
  6
CONTINUOUS
 10
583.3940086895
 20
164.5920066478
 40
6.2024311362
100
AcDbArc
 50
105.9242072897
 51
106.8636002515
  0
ARC
  5
4AF
100
AcDbEntity
  8
HOLES
100
AcDbCircle
 62
7
  6
CONTINUOUS
 10
646.9860049753
 20
164.9583731708
 40
5.8204861523
100
AcDbArc
 50
101.857958962
 51
106.893263555
  0
ARC
  5
4B0
100
AcDbEntity
  8
HOLES
100
AcDbCircle
 62
7
  6
CONTINUOUS
 10
583.2860049754
 20
164.9583731707
 40
5.8204861524
100
AcDbArc
 50
101.8579589621
 51
106.8932635553
  0
ARC
  5
4B1
100
AcDbEntity
  8
HOLES
100
AcDbCircle
 62
7
  6
CONTINUOUS
 10
646.6111019194
 20
164.9922561298
 40
5.7860679972
100
AcDbArc
 50
74.0941144532
 51
76.4779331323
  0
ARC
  5
4B2
100
AcDbEntity
  8
HOLES
100
AcDbCircle
 62
7
  6
CONTINUOUS
 10
582.9111019194
 20
164.9922561297
 40
5.7860679972
100
AcDbArc
 50
74.0941144533
 51
76.4779331323
  0
ARC
  5
4B3
100
AcDbEntity
  8
HOLES
100
AcDbCircle
 62
7
  6
CONTINUOUS
 10
646.9707556112
 20
165.0243822255
 40
5.7528313703
100
AcDbArc
 50
103.5101349573
 51
105.9252595493
  0
ARC
  5
4B4
100
AcDbEntity
  8
HOLES
100
AcDbCircle
 62
7
  6
CONTINUOUS
 10
583.2707556111
 20
165.0243822258
 40
5.75283137
100
AcDbArc
 50
103.5101349572
 51
105.9252595492
  0
ARC
  5
4B5
100
AcDbEntity
  8
HOLES
100
AcDbCircle
 62
7
  6
CONTINUOUS
 10
646.9226359133
 20
165.2262677345
 40
5.5452907296
100
AcDbArc
 50
101.8211193032
 51
103.514017856
  0
ARC
  5
4B6
100
AcDbEntity
  8
HOLES
100
AcDbCircle
 62
7
  6
CONTINUOUS
 10
583.2226359134
 20
165.2262677343
 40
5.5452907298
100
AcDbArc
 50
101.8211193033
 51
103.514017856
  0
ARC
  5
4B7
100
AcDbEntity
  8
HOLES
100
AcDbCircle
 62
7
  6
CONTINUOUS
 10
646.6686890623
 20
165.2303927901
 40
5.5410674913
100
AcDbArc
 50
76.4811359792
 51
78.21028441
  0
ARC
  5
4B8
100
AcDbEntity
  8
HOLES
100
AcDbCircle
 62
7
  6
CONTINUOUS
 10
582.9686890623
 20
165.2303927899
 40
5.5410674915
100
AcDbArc
 50
76.4811359793
 51
78.21028441
  0
ARC
  5
4B9
100
AcDbEntity
  8
HOLES
100
AcDbCircle
 62
7
  6
CONTINUOUS
 10
646.7900927002
 20
165.9611864231
 40
4.7993113773
100
AcDbArc
 50
84.7705329862
 51
89.9389386996
  0
ARC
  5
4BA
100
AcDbEntity
  8
HOLES
100
AcDbCircle
 62
7
  6
CONTINUOUS
 10
583.0900927002
 20
165.9611864231
 40
4.7993113772
100
AcDbArc
 50
84.7705329862
 51
89.9389386996
  0
ARC
  5
4BB
100
AcDbEntity
  8
0
100
AcDbCircle
 62
7
  6
CONTINUOUS
 10
571.8952074248
 20
168.980399735
 40
0.5
100
AcDbArc
 50
90.0
 51
180.0
  0
ARC
  5
4BC
100
AcDbEntity
  8
0
100
AcDbCircle
 62
7
  6
CONTINUOUS
 10
567.6952074248
 20
168.980399735
 40
0.5
100
AcDbArc
 50
0.0
 51
90.0
  0
ARC
  5
4BD
100
AcDbEntity
  8
0
100
AcDbCircle
 62
7
  6
CONTINUOUS
 10
571.8952074248
 20
181.980399735
 40
0.5
100
AcDbArc
 50
180.0
 51
270.0
  0
ARC
  5
4BE
100
AcDbEntity
  8
0
100
AcDbCircle
 62
7
  6
CONTINUOUS
 10
567.6952074248
 20
181.980399735
 40
0.5
100
AcDbArc
 50
270.0
 51
360.0
  0
ARC
  5
4BF
100
AcDbEntity
  8
HOLES
100
AcDbCircle
 62
7
  6
CONTINUOUS
 10
711.0993143552
 20
163.5797380421
 40
7.2597353506
100
AcDbArc
 50
106.8526735349
 51
107.0567615876
  0
ARC
  5
4C0
100
AcDbEntity
  8
HOLES
100
AcDbCircle
 62
7
  6
CONTINUOUS
 10
711.0768199884
 20
163.6556033223
 40
7.1806093219
100
AcDbArc
 50
106.8556579072
 51
107.0636526388
  0
ARC
  5
4C1
100
AcDbEntity
  8
HOLES
100
AcDbCircle
 62
7
  6
CONTINUOUS
 10
773.7745363141
 20
164.1705930857
 40
6.6410650016
100
AcDbArc
 50
72.3453566668
 51
72.9746719849
  0
ARC
  5
4C2
100
AcDbEntity
  8
HOLES
100
AcDbCircle
 62
7
  6
CONTINUOUS
 10
710.0745363148
 20
164.1705930879
 40
6.6410649994
100
AcDbArc
 50
72.3453566665
 51
72.974671985
  0
ARC
  5
4C3
100
AcDbEntity
  8
HOLES
100
AcDbCircle
 62
7
  6
CONTINUOUS
 10
710.91239911
 20
164.1810617211
 40
6.63003573
100
AcDbArc
 50
107.0367636448
 51
107.6566341501
  0
ARC
  5
4C4
100
AcDbEntity
  8
HOLES
100
AcDbCircle
 62
7
  6
CONTINUOUS
 10
773.8427435806
 20
164.408340974
 40
6.3937671177
100
AcDbArc
 50
72.9353041816
 51
74.0772153895
  0
ARC
  5
4C5
100
AcDbEntity
  8
HOLES
100
AcDbCircle
 62
7
  6
CONTINUOUS
 10
710.1427435808
 20
164.4083409743
 40
6.3937671174
100
AcDbArc
 50
72.9353041816
 51
74.0772153895
  0
ARC
  5
4C6
100
AcDbEntity
  8
HOLES
100
AcDbCircle
 62
7
  6
CONTINUOUS
 10
710.7940086896
 20
164.5920066476
 40
6.2024311364
100
AcDbArc
 50
105.92420729
 51
106.8636002512
  0
ARC
  5
4C7
100
AcDbEntity
  8
HOLES
100
AcDbCircle
 62
7
  6
CONTINUOUS
 10
710.6860049754
 20
164.9583731707
 40
5.8204861524
100
AcDbArc
 50
101.857958962
 51
106.893263555
  0
ARC
  5
4C8
100
AcDbEntity
  8
HOLES
100
AcDbCircle
 62
7
  6
CONTINUOUS
 10
774.0111019193
 20
164.9922561296
 40
5.7860679974
100
AcDbArc
 50
74.0941144534
 51
76.4779331323
  0
ARC
  5
4C9
100
AcDbEntity
  8
HOLES
100
AcDbCircle
 62
7
  6
CONTINUOUS
 10
710.3111019193
 20
164.9922561294
 40
5.7860679976
100
AcDbArc
 50
74.0941144533
 51
76.4779331322
  0
ARC
  5
4CA
100
AcDbEntity
  8
HOLES
100
AcDbCircle
 62
7
  6
CONTINUOUS
 10
710.6707556111
 20
165.024382226
 40
5.7528313698
100
AcDbArc
 50
103.5101349572
 51
105.9252595495
  0
ARC
  5
4CB
100
AcDbEntity
  8
HOLES
100
AcDbCircle
 62
7
  6
CONTINUOUS
 10
710.6226359134
 20
165.2262677341
 40
5.54529073
100
AcDbArc
 50
101.8211193033
 51
103.5140178559
  0
ARC
  5
4CC
100
AcDbEntity
  8
HOLES
100
AcDbCircle
 62
7
  6
CONTINUOUS
 10
774.0686890623
 20
165.2303927899
 40
5.5410674916
100
AcDbArc
 50
76.4811359792
 51
78.21028441
  0
ARC
  5
4CD
100
AcDbEntity
  8
HOLES
100
AcDbCircle
 62
7
  6
CONTINUOUS
 10
710.3686890624
 20
165.2303927904
 40
5.541067491
100
AcDbArc
 50
76.4811359792
 51
78.2102844101
  0
ARC
  5
4CE
100
AcDbEntity
  8
HOLES
100
AcDbCircle
 62
7
  6
CONTINUOUS
 10
774.1900927002
 20
165.9611864231
 40
4.7993113772
100
AcDbArc
 50
84.7705329862
 51
89.9389386996
  0
ARC
  5
4CF
100
AcDbEntity
  8
HOLES
100
AcDbCircle
 62
7
  6
CONTINUOUS
 10
710.4900927002
 20
165.9611864231
 40
4.7993113772
100
AcDbArc
 50
84.7705329862
 51
89.9389386997
  0
ARC
  5
4D0
100
AcDbEntity
  8
0
100
AcDbCircle
 62
7
  6
CONTINUOUS
 10
571.5952074248
 20
284.280399735
 40
2.4
100
AcDbArc
 50
90.0
 51
180.0
  0
ARC
  5
4D1
100
AcDbEntity
  8
0
100
AcDbCircle
 62
3
  6
CONTINUOUS
 10
579.9952074248
 20
287.880399735
 40
2.4
100
AcDbArc
 50
270.0
 51
360.0
  0
ARC
  5
4D2
100
AcDbEntity
  8
0
100
AcDbCircle
 62
7
  6
CONTINUOUS
 10
579.9952074248
 20
287.880399735
 40
1.2
100
AcDbArc
 50
270.0
 51
360.0
  0
ARC
  5
4D3
100
AcDbEntity
  8
0
100
AcDbCircle
 62
3
  6
CONTINUOUS
 10
571.5952074248
 20
284.280399735
 40
1.2
100
AcDbArc
 50
90.0
 51
180.0
  0
ARC
  5
4D4
100
AcDbEntity
  8
HOLES
100
AcDbCircle
 62
7
  6
CONTINUOUS
 10
838.4993143459
 20
163.5797380727
 40
7.2597353187
100
AcDbArc
 50
106.8526735358
 51
107.0567615881
  0
ARC
  5
4D5
100
AcDbEntity
  8
HOLES
100
AcDbCircle
 62
7
  6
CONTINUOUS
 10
774.7993143441
 20
163.5797380784
 40
7.2597353127
100
AcDbArc
 50
106.8526735349
 51
107.0567615882
  0
ARC
  5
4D6
100
AcDbEntity
  8
HOLES
100
AcDbCircle
 62
7
  6
CONTINUOUS
 10
774.7768199897
 20
163.6556033181
 40
7.1806093262
100
AcDbArc
 50
106.8556579079
 51
107.0636526388
  0
ARC
  5
4D7
100
AcDbEntity
  8
HOLES
100
AcDbCircle
 62
7
  6
CONTINUOUS
 10
838.4768199755
 20
163.6556033646
 40
7.1806092776
100
AcDbArc
 50
106.8556579079
 51
107.0636526395
  0
ARC
  5
4D8
100
AcDbEntity
  8
HOLES
100
AcDbCircle
 62
7
  6
CONTINUOUS
 10
837.4745363143
 20
164.1705930864
 40
6.641065001
100
AcDbArc
 50
72.3453566666
 51
72.974671985
  0
ARC
  5
4D9
100
AcDbEntity
  8
HOLES
100
AcDbCircle
 62
7
  6
CONTINUOUS
 10
838.3123991112
 20
164.1810617173
 40
6.630035734
100
AcDbArc
 50
107.036763645
 51
107.6566341499
  0
ARC
  5
4DA
100
AcDbEntity
  8
HOLES
100
AcDbCircle
 62
7
  6
CONTINUOUS
 10
774.6123991106
 20
164.1810617193
 40
6.6300357319
100
AcDbArc
 50
107.0367636449
 51
107.65663415
  0
ARC
  5
4DB
100
AcDbEntity
  8
HOLES
100
AcDbCircle
 62
7
  6
CONTINUOUS
 10
837.5427435808
 20
164.4083409744
 40
6.3937671173
100
AcDbArc
 50
72.9353041816
 51
74.0772153896
  0
ARC
  5
4DC
100
AcDbEntity
  8
HOLES
100
AcDbCircle
 62
7
  6
CONTINUOUS
 10
838.1940086897
 20
164.5920066471
 40
6.2024311369
100
AcDbArc
 50
105.9242072894
 51
106.8636002527
  0
ARC
  5
4DD
100
AcDbEntity
  8
HOLES
100
AcDbCircle
 62
7
  6
CONTINUOUS
 10
774.4940086897
 20
164.5920066471
 40
6.2024311369
100
AcDbArc
 50
105.9242072895
 51
106.8636002518
  0
ARC
  5
4DE
100
AcDbEntity
  8
HOLES
100
AcDbCircle
 62
7
  6
CONTINUOUS
 10
838.0860049754
 20
164.9583731705
 40
5.8204861527
100
AcDbArc
 50
101.8579589621
 51
106.8932635566
  0
ARC
  5
4DF
100
AcDbEntity
  8
HOLES
100
AcDbCircle
 62
7
  6
CONTINUOUS
 10
774.3860049754
 20
164.9583731706
 40
5.8204861525
100
AcDbArc
 50
101.8579589621
 51
106.8932635557
  0
ARC
  5
4E0
100
AcDbEntity
  8
HOLES
100
AcDbCircle
 62
7
  6
CONTINUOUS
 10
837.7111019193
 20
164.9922561296
 40
5.7860679974
100
AcDbArc
 50
74.0941144535
 51
76.4779331323
  0
ARC
  5
4E1
100
AcDbEntity
  8
HOLES
100
AcDbCircle
 62
7
  6
CONTINUOUS
 10
838.0707556111
 20
165.0243822257
 40
5.7528313701
100
AcDbArc
 50
103.5101349572
 51
105.9252595488
  0
ARC
  5
4E2
100
AcDbEntity
  8
HOLES
100
AcDbCircle
 62
7
  6
CONTINUOUS
 10
774.3707556112
 20
165.0243822256
 40
5.7528313702
100
AcDbArc
 50
103.5101349573
 51
105.9252595489
  0
ARC
  5
4E3
100
AcDbEntity
  8
HOLES
100
AcDbCircle
 62
7
  6
CONTINUOUS
 10
838.0226359134
 20
165.2262677342
 40
5.5452907299
100
AcDbArc
 50
101.8211193033
 51
103.514017856
  0
ARC
  5
4E4
100
AcDbEntity
  8
HOLES
100
AcDbCircle
 62
7
  6
CONTINUOUS
 10
774.3226359134
 20
165.2262677342
 40
5.5452907299
100
AcDbArc
 50
101.8211193033
 51
103.514017856
  0
ARC
  5
4E5
100
AcDbEntity
  8
HOLES
100
AcDbCircle
 62
7
  6
CONTINUOUS
 10
837.7686890623
 20
165.23039279
 40
5.5410674915
100
AcDbArc
 50
76.4811359793
 51
78.21028441
  0
ARC
  5
4E6
100
AcDbEntity
  8
HOLES
100
AcDbCircle
 62
7
  6
CONTINUOUS
 10
837.8900927002
 20
165.9611864231
 40
4.7993113772
100
AcDbArc
 50
84.7705329862
 51
89.9389386996
  0
ARC
  5
4E7
100
AcDbEntity
  8
HOLES
100
AcDbCircle
 62
7
  6
CONTINUOUS
 10
965.8993144462
 20
163.5797377445
 40
7.2597356619
100
AcDbArc
 50
106.8526737004
 51
107.056761589
  0
ARC
  5
4E8
100
AcDbEntity
  8
HOLES
100
AcDbCircle
 62
7
  6
CONTINUOUS
 10
902.1993143516
 20
163.579738054
 40
7.2597353382
100
AcDbArc
 50
106.8526735356
 51
107.0567615877
  0
ARC
  5
4E9
100
AcDbEntity
  8
HOLES
100
AcDbCircle
 62
7
  6
CONTINUOUS
 10
965.8768200882
 20
163.6556029957
 40
7.1806096634
100
AcDbArc
 50
106.8556580743
 51
107.0636526392
  0
ARC
  5
4EA
100
AcDbEntity
  8
HOLES
100
AcDbCircle
 62
7
  6
CONTINUOUS
 10
902.1768199839
 20
163.6556033371
 40
7.1806093064
100
AcDbArc
 50
106.855657908
 51
107.0636526391
  0
ARC
  5
4EB
100
AcDbEntity
  8
HOLES
100
AcDbCircle
 62
7
  6
CONTINUOUS
 10
901.1745363136
 20
164.1705930843
 40
6.6410650032
100
AcDbArc
 50
72.3453566668
 51
72.9746719849
  0
ARC
  5
4EC
100
AcDbEntity
  8
HOLES
100
AcDbCircle
 62
7
  6
CONTINUOUS
 10
964.8745363168
 20
164.1705930944
 40
6.6410649926
100
AcDbArc
 50
72.3453566652
 51
72.9746719767
  0
ARC
  5
4ED
100
AcDbEntity
  8
HOLES
100
AcDbCircle
 62
7
  6
CONTINUOUS
 10
902.0123991109
 20
164.1810617183
 40
6.6300357329
100
AcDbArc
 50
107.036763645
 51
107.65663415
  0
ARC
  5
4EE
100
AcDbEntity
  8
HOLES
100
AcDbCircle
 62
7
  6
CONTINUOUS
 10
965.7123991102
 20
164.1810617207
 40
6.6300357304
100
AcDbArc
 50
107.036763649
 51
107.6566341508
  0
ARC
  5
4EF
100
AcDbEntity
  8
HOLES
100
AcDbCircle
 62
7
  6
CONTINUOUS
 10
901.2427435809
 20
164.4083409747
 40
6.3937671169
100
AcDbArc
 50
72.9353041816
 51
74.0772153896
  0
ARC
  5
4F0
100
AcDbEntity
  8
HOLES
100
AcDbCircle
 62
7
  6
CONTINUOUS
 10
964.9427435993
 20
164.4083410357
 40
6.3937670532
100
AcDbArc
 50
72.9353041699
 51
74.0772155594
  0
ARC
  5
4F1
100
AcDbEntity
  8
HOLES
100
AcDbCircle
 62
7
  6
CONTINUOUS
 10
965.5940087032
 20
164.5920065998
 40
6.202431186
100
AcDbArc
 50
105.924207097
 51
106.8636004297
  0
ARC
  5
4F2
100
AcDbEntity
  8
HOLES
100
AcDbCircle
 62
7
  6
CONTINUOUS
 10
901.8940086896
 20
164.5920066475
 40
6.2024311365
100
AcDbArc
 50
105.9242072897
 51
106.8636002524
  0
ARC
  5
4F3
100
AcDbEntity
  8
HOLES
100
AcDbCircle
 62
7
  6
CONTINUOUS
 10
965.4860049832
 20
164.9583731394
 40
5.8204861847
100
AcDbArc
 50
101.85795898
 51
106.8932637378
  0
ARC
  5
4F4
100
AcDbEntity
  8
HOLES
100
AcDbCircle
 62
7
  6
CONTINUOUS
 10
901.7860049754
 20
164.9583731706
 40
5.8204861525
100
AcDbArc
 50
101.8579589621
 51
106.8932635563
  0
ARC
  5
4F5
100
AcDbEntity
  8
HOLES
100
AcDbCircle
 62
7
  6
CONTINUOUS
 10
901.4111019193
 20
164.9922561295
 40
5.7860679974
100
AcDbArc
 50
74.0941144534
 51
76.4779331323
  0
ARC
  5
4F6
100
AcDbEntity
  8
HOLES
100
AcDbCircle
 62
7
  6
CONTINUOUS
 10
965.1111019226
 20
164.9922561422
 40
5.7860679843
100
AcDbArc
 50
74.0941146286
 51
76.4779331353
  0
ARC
  5
4F7
100
AcDbEntity
  8
HOLES
100
AcDbCircle
 62
7
  6
CONTINUOUS
 10
901.7707556111
 20
165.0243822258
 40
5.75283137
100
AcDbArc
 50
103.5101349572
 51
105.9252595492
  0
ARC
  5
4F8
100
AcDbEntity
  8
HOLES
100
AcDbCircle
 62
7
  6
CONTINUOUS
 10
965.470755609
 20
165.0243822342
 40
5.7528313614
100
AcDbArc
 50
103.5101349565
 51
105.9252593443
  0
ARC
  5
4F9
100
AcDbEntity
  8
HOLES
100
AcDbCircle
 62
7
  6
CONTINUOUS
 10
965.4226359134
 20
165.2262677341
 40
5.54529073
100
AcDbArc
 50
101.8211192972
 51
103.5140178559
  0
ARC
  5
4FA
100
AcDbEntity
  8
HOLES
100
AcDbCircle
 62
7
  6
CONTINUOUS
 10
901.7226359135
 20
165.2262677336
 40
5.5452907305
100
AcDbArc
 50
101.8211193034
 51
103.5140178559
  0
ARC
  5
4FB
100
AcDbEntity
  8
HOLES
100
AcDbCircle
 62
7
  6
CONTINUOUS
 10
965.1686890621
 20
165.2303927893
 40
5.5410674922
100
AcDbArc
 50
76.48113598
 51
78.2102844047
  0
ARC
  5
4FC
100
AcDbEntity
  8
HOLES
100
AcDbCircle
 62
7
  6
CONTINUOUS
 10
901.4686890623
 20
165.2303927899
 40
5.5410674916
100
AcDbArc
 50
76.4811359793
 51
78.21028441
  0
ARC
  5
4FD
100
AcDbEntity
  8
HOLES
100
AcDbCircle
 62
7
  6
CONTINUOUS
 10
965.2900927002
 20
165.9611864233
 40
4.799311377
100
AcDbArc
 50
84.7705329928
 51
89.9389386999
  0
ARC
  5
4FE
100
AcDbEntity
  8
HOLES
100
AcDbCircle
 62
7
  6
CONTINUOUS
 10
901.5900927002
 20
165.9611864231
 40
4.7993113772
100
AcDbArc
 50
84.7705329862
 51
89.9389386997
  0
ARC
  5
4FF
100
AcDbEntity
  8
0
100
AcDbCircle
 62
7
  6
CONTINUOUS
 10
976.4952074248
 20
168.980399735
 40
0.5
100
AcDbArc
 50
0.0
 51
90.0
  0
ARC
  5
500
100
AcDbEntity
  8
0
100
AcDbCircle
 62
7
  6
CONTINUOUS
 10
980.6952074248
 20
168.980399735
 40
0.5
100
AcDbArc
 50
90.0
 51
180.0
  0
ARC
  5
501
100
AcDbEntity
  8
0
100
AcDbCircle
 62
7
  6
CONTINUOUS
 10
976.4952074248
 20
181.980399735
 40
0.5
100
AcDbArc
 50
270.0
 51
360.0
  0
ARC
  5
502
100
AcDbEntity
  8
0
100
AcDbCircle
 62
7
  6
CONTINUOUS
 10
980.6952074248
 20
181.980399735
 40
0.5
100
AcDbArc
 50
180.0
 51
270.0
  0
ARC
  5
503
100
AcDbEntity
  8
0
100
AcDbCircle
 62
7
  6
CONTINUOUS
 10
968.3952074248
 20
286.680399735
 40
2.4
100
AcDbArc
 50
180.0
 51
270.0
  0
ARC
  5
504
100
AcDbEntity
  8
0
100
AcDbCircle
 62
3
  6
CONTINUOUS
 10
976.7952074248
 20
283.080399735
 40
2.4
100
AcDbArc
 50
0.0
 51
90.0
  0
ARC
  5
505
100
AcDbEntity
  8
0
100
AcDbCircle
 62
7
  6
CONTINUOUS
 10
976.7952074248
 20
283.080399735
 40
1.2
100
AcDbArc
 50
0.0
 51
90.0
  0
ARC
  5
506
100
AcDbEntity
  8
0
100
AcDbCircle
 62
3
  6
CONTINUOUS
 10
968.3952074248
 20
286.680399735
 40
1.2
100
AcDbArc
 50
180.0
 51
270.0
  0
ARC
  5
507
100
AcDbEntity
  8
DEFAULT_2
100
AcDbCircle
 62
8
  6
HIDDEN
 10
571.8952074248
 20
645.3832401122
 40
0.5
100
AcDbArc
 50
90.0
 51
180.0
  0
ARC
  5
508
100
AcDbEntity
  8
0
100
AcDbCircle
 62
7
  6
CONTINUOUS
 10
567.6952074248
 20
645.3832401122
 40
0.5
100
AcDbArc
 50
0.0
 51
90.0
  0
ARC
  5
509
100
AcDbEntity
  8
DEFAULT_2
100
AcDbCircle
 62
8
  6
HIDDEN
 10
583.0952074248
 20
651.8832401122
 40
2.1
100
AcDbArc
 50
109.5197869241
 51
250.4802130759
  0
ARC
  5
50A
100
AcDbEntity
  8
0
100
AcDbCircle
 62
7
  6
CONTINUOUS
 10
583.0952074248
 20
651.8832401122
 40
2.1
100
AcDbArc
 50
250.4802130759
 51
109.5197869241
  0
ARC
  5
50B
100
AcDbEntity
  8
DEFAULT_2
100
AcDbCircle
 62
8
  6
HIDDEN
 10
583.0952074248
 20
651.8832401122
 40
2.0
100
AcDbArc
 50
110.4890185833
 51
255.0
  0
ARC
  5
50C
100
AcDbEntity
  8
0
100
AcDbCircle
 62
2
  6
CONTINUOUS
 10
583.0952074248
 20
651.8832401122
 40
2.0
100
AcDbArc
 50
255.0
 51
110.4890185833
  0
ARC
  5
50D
100
AcDbEntity
  8
HOLES
100
AcDbCircle
 62
8
  6
HIDDEN
 10
583.0952074248
 20
651.8832401122
 40
1.65
100
AcDbArc
 50
115.1304826674
 51
244.8695173326
  0
ARC
  5
50E
100
AcDbEntity
  8
HOLES
100
AcDbCircle
 62
7
  6
CONTINUOUS
 10
583.0952074248
 20
651.8832401122
 40
1.65
100
AcDbArc
 50
244.8695173326
 51
115.1304826674
  0
ARC
  5
50F
100
AcDbEntity
  8
DEFAULT_2
100
AcDbCircle
 62
8
  6
HIDDEN
 10
571.8952074248
 20
658.3832401122
 40
0.5
100
AcDbArc
 50
180.0
 51
270.0
  0
ARC
  5
510
100
AcDbEntity
  8
0
100
AcDbCircle
 62
7
  6
CONTINUOUS
 10
567.6952074248
 20
658.3832401122
 40
0.5
100
AcDbArc
 50
270.0
 51
360.0
  0
CIRCLE
  5
511
100
AcDbEntity
  8
0
100
AcDbCircle
 62
7
  6
CONTINUOUS
 10
710.4952074248
 20
651.8832401122
 40
2.1
  0
CIRCLE
  5
512
100
AcDbEntity
  8
0
100
AcDbCircle
 62
7
  6
CONTINUOUS
 10
646.7952074248
 20
651.8832401122
 40
2.1
  0
ARC
  5
513
100
AcDbEntity
  8
DEFAULT_2
100
AcDbCircle
 62
8
  6
HIDDEN
 10
646.7952074248
 20
651.8832401122
 40
2.0
100
AcDbArc
 50
195.0
 51
255.0
  0
ARC
  5
514
100
AcDbEntity
  8
DEFAULT_2
100
AcDbCircle
 62
8
  6
HIDDEN
 10
710.4952074248
 20
651.8832401122
 40
2.0
100
AcDbArc
 50
195.0
 51
255.0
  0
ARC
  5
515
100
AcDbEntity
  8
0
100
AcDbCircle
 62
2
  6
CONTINUOUS
 10
646.7952074248
 20
651.8832401122
 40
2.0
100
AcDbArc
 50
255.0
 51
195.0
  0
ARC
  5
516
100
AcDbEntity
  8
0
100
AcDbCircle
 62
2
  6
CONTINUOUS
 10
710.4952074248
 20
651.8832401122
 40
2.0
100
AcDbArc
 50
255.0
 51
195.0
  0
CIRCLE
  5
517
100
AcDbEntity
  8
HOLES
100
AcDbCircle
 62
7
  6
CONTINUOUS
 10
710.4952074248
 20
651.8832401122
 40
1.65
  0
CIRCLE
  5
518
100
AcDbEntity
  8
HOLES
100
AcDbCircle
 62
7
  6
CONTINUOUS
 10
646.7952074248
 20
651.8832401122
 40
1.65
  0
ARC
  5
519
100
AcDbEntity
  8
DEFAULT_2
100
AcDbCircle
 62
8
  6
HIDDEN
 10
976.4952074248
 20
645.3832401122
 40
0.5
100
AcDbArc
 50
0.0
 51
90.0
  0
ARC
  5
51A
100
AcDbEntity
  8
0
100
AcDbCircle
 62
7
  6
CONTINUOUS
 10
980.6952074248
 20
645.3832401122
 40
0.5
100
AcDbArc
 50
90.0
 51
180.0
  0
CIRCLE
  5
51B
100
AcDbEntity
  8
0
100
AcDbCircle
 62
7
  6
CONTINUOUS
 10
837.8952074248
 20
651.8832401122
 40
2.1
  0
CIRCLE
  5
51C
100
AcDbEntity
  8
0
100
AcDbCircle
 62
7
  6
CONTINUOUS
 10
774.1952074248
 20
651.8832401122
 40
2.1
  0
ARC
  5
51D
100
AcDbEntity
  8
DEFAULT_2
100
AcDbCircle
 62
8
  6
HIDDEN
 10
774.1952074248
 20
651.8832401122
 40
2.0
100
AcDbArc
 50
195.0
 51
255.0
  0
ARC
  5
51E
100
AcDbEntity
  8
DEFAULT_2
100
AcDbCircle
 62
8
  6
HIDDEN
 10
837.8952074248
 20
651.8832401122
 40
2.0
100
AcDbArc
 50
195.0
 51
255.0
  0
ARC
  5
51F
100
AcDbEntity
  8
0
100
AcDbCircle
 62
2
  6
CONTINUOUS
 10
774.1952074248
 20
651.8832401122
 40
2.0
100
AcDbArc
 50
255.0
 51
195.0
  0
ARC
  5
520
100
AcDbEntity
  8
0
100
AcDbCircle
 62
2
  6
CONTINUOUS
 10
837.8952074248
 20
651.8832401122
 40
2.0
100
AcDbArc
 50
255.0
 51
195.0
  0
CIRCLE
  5
521
100
AcDbEntity
  8
HOLES
100
AcDbCircle
 62
7
  6
CONTINUOUS
 10
837.8952074248
 20
651.8832401122
 40
1.65
  0
CIRCLE
  5
522
100
AcDbEntity
  8
HOLES
100
AcDbCircle
 62
7
  6
CONTINUOUS
 10
774.1952074248
 20
651.8832401122
 40
1.65
  0
ARC
  5
523
100
AcDbEntity
  8
DEFAULT_2
100
AcDbCircle
 62
8
  6
HIDDEN
 10
965.2952074248
 20
651.8832401122
 40
2.1
100
AcDbArc
 50
289.5197869241
 51
70.4802130759
  0
ARC
  5
524
100
AcDbEntity
  8
0
100
AcDbCircle
 62
7
  6
CONTINUOUS
 10
965.2952074248
 20
651.8832401122
 40
2.1
100
AcDbArc
 50
70.4802130759
 51
289.5197869241
  0
CIRCLE
  5
525
100
AcDbEntity
  8
0
100
AcDbCircle
 62
7
  6
CONTINUOUS
 10
901.5952074248
 20
651.8832401122
 40
2.1
  0
ARC
  5
526
100
AcDbEntity
  8
DEFAULT_2
100
AcDbCircle
 62
8
  6
HIDDEN
 10
901.5952074248
 20
651.8832401122
 40
2.0
100
AcDbArc
 50
195.0
 51
255.0
  0
ARC
  5
527
100
AcDbEntity
  8
DEFAULT_2
100
AcDbCircle
 62
8
  6
HIDDEN
 10
965.2952074248
 20
651.8832401122
 40
2.0
100
AcDbArc
 50
195.0
 51
255.0
  0
ARC
  5
528
100
AcDbEntity
  8
0
100
AcDbCircle
 62
2
  6
CONTINUOUS
 10
901.5952074248
 20
651.8832401122
 40
2.0
100
AcDbArc
 50
255.0
 51
195.0
  0
ARC
  5
529
100
AcDbEntity
  8
0
100
AcDbCircle
 62
2
  6
CONTINUOUS
 10
965.2952074248
 20
651.8832401122
 40
2.0
100
AcDbArc
 50
69.5080297177
 51
195.0
  0
ARC
  5
52A
100
AcDbEntity
  8
0
100
AcDbCircle
 62
2
  6
CONTINUOUS
 10
965.2952074248
 20
651.8832401122
 40
2.0
100
AcDbArc
 50
255.0
 51
290.4919702823
  0
ARC
  5
52B
100
AcDbEntity
  8
DEFAULT_2
100
AcDbCircle
 62
8
  6
HIDDEN
 10
965.2952074248
 20
651.8832401122
 40
2.0
100
AcDbArc
 50
290.4919702823
 51
69.5080297177
  0
ARC
  5
52C
100
AcDbEntity
  8
HOLES
100
AcDbCircle
 62
8
  6
HIDDEN
 10
965.2952074248
 20
651.8832401122
 40
1.65
100
AcDbArc
 50
295.1304826674
 51
64.8695173326
  0
ARC
  5
52D
100
AcDbEntity
  8
HOLES
100
AcDbCircle
 62
7
  6
CONTINUOUS
 10
965.2952074248
 20
651.8832401122
 40
1.65
100
AcDbArc
 50
64.8695173326
 51
295.1304826674
  0
CIRCLE
  5
52E
100
AcDbEntity
  8
HOLES
100
AcDbCircle
 62
7
  6
CONTINUOUS
 10
901.5952074248
 20
651.8832401122
 40
1.65
  0
ARC
  5
52F
100
AcDbEntity
  8
DEFAULT_2
100
AcDbCircle
 62
8
  6
HIDDEN
 10
976.4952074248
 20
658.3832401122
 40
0.5
100
AcDbArc
 50
270.0
 51
360.0
  0
ARC
  5
530
100
AcDbEntity
  8
0
100
AcDbCircle
 62
7
  6
CONTINUOUS
 10
980.6952074248
 20
658.3832401122
 40
0.5
100
AcDbArc
 50
180.0
 51
270.0
  0
SPLINE
  5
531
100
AcDbEntity
  8
HOLES
100
AcDbSpline
 62
7
  6
CONTINUOUS
 70
0
 71
3
 72
9
 73
5
 74
0
 42
0.0000001
 43
0.0000001
 44
0.0000000001
 40
0.0
 40
0.0
 40
0.0
 40
0.0
 40
0.2671853642
 40
1.0
 40
1.0
 40
1.0
 40
1.0
 10
965.7275247255
 20
170.7405214102
 30
0.0
 10
965.7792548158
 20
170.7358399657
 30
0.0
 10
965.9725954827
 20
170.7153586046
 30
0.0
 10
966.1646197183
 20
170.6830678374
 30
0.0
 10
966.304061278
 20
170.6538929237
 30
0.0
  0
SPLINE
  5
532
100
AcDbEntity
  8
HOLES
100
AcDbSpline
 62
7
  6
CONTINUOUS
 70
0
 71
3
 72
9
 73
5
 74
0
 42
0.0000001
 43
0.0000001
 44
0.0000000001
 40
0.0
 40
0.0
 40
0.0
 40
0.0
 40
0.3086344057
 40
1.0
 40
1.0
 40
1.0
 40
1.0
 10
966.304061278
 20
170.6538929237
 30
0.0
 10
966.3576359554
 20
170.6426836645
 30
0.0
 10
966.5306790813
 20
170.6037613689
 30
0.0
 10
966.701783882
 20
170.5565627063
 30
0.0
 10
966.8190060807
 20
170.5206152702
 30
0.0
  0
SPLINE
  5
533
100
AcDbEntity
  8
HOLES
100
AcDbSpline
 62
7
  6
CONTINUOUS
 70
0
 71
3
 72
9
 73
5
 74
0
 42
0.0000001
 43
0.0000001
 44
0.0000000001
 40
0.0
 40
0.0
 40
0.0
 40
0.0
 40
0.7444570315
 40
1.0
 40
1.0
 40
1.0
 40
1.0
 10
966.8190060807
 20
170.5206152702
 30
0.0
 10
966.8504308422
 20
170.5109785323
 30
0.0
 10
966.8701055024
 20
170.5179546078
 30
0.0
 10
966.9499357968
 20
170.4701564672
 30
0.0
 10
966.9452067276
 20
170.4804002567
 30
0.0
  0
LINE
  5
534
100
AcDbEntity
  8
HOLES
100
AcDbLine
 62
7
  6
CONTINUOUS
 10
963.7697855816
 20
170.5201175981
 11
963.6452315756
 21
170.4804077047
  0
SPLINE
  5
535
100
AcDbEntity
  8
HOLES
100
AcDbSpline
 62
7
  6
CONTINUOUS
 70
0
 71
3
 72
9
 73
5
 74
0
 42
0.0000001
 43
0.0000001
 44
0.0000000001
 40
0.0
 40
0.0
 40
0.0
 40
0.0
 40
0.2671853642
 40
1.0
 40
1.0
 40
1.0
 40
1.0
 10
902.027524726
 20
170.7405214102
 30
0.0
 10
902.0792548164
 20
170.7358399656
 30
0.0
 10
902.2725954832
 20
170.7153586045
 30
0.0
 10
902.4646197189
 20
170.6830678373
 30
0.0
 10
902.6040612786
 20
170.6538929236
 30
0.0
  0
SPLINE
  5
536
100
AcDbEntity
  8
HOLES
100
AcDbSpline
 62
7
  6
CONTINUOUS
 70
0
 71
3
 72
9
 73
5
 74
0
 42
0.0000001
 43
0.0000001
 44
0.0000000001
 40
0.0
 40
0.0
 40
0.0
 40
0.0
 40
0.3086344054
 40
1.0
 40
1.0
 40
1.0
 40
1.0
 10
902.6040612786
 20
170.6538929236
 30
0.0
 10
902.6576359558
 20
170.6426836644
 30
0.0
 10
902.8306790811
 20
170.6037613689
 30
0.0
 10
903.0017838813
 20
170.5565627065
 30
0.0
 10
903.1190060797
 20
170.5206152705
 30
0.0
  0
SPLINE
  5
537
100
AcDbEntity
  8
HOLES
100
AcDbSpline
 62
7
  6
CONTINUOUS
 70
0
 71
3
 72
9
 73
5
 74
0
 42
0.0000001
 43
0.0000001
 44
0.0000000001
 40
0.0
 40
0.0
 40
0.0
 40
0.0
 40
0.7444570315
 40
1.0
 40
1.0
 40
1.0
 40
1.0
 10
903.1190060797
 20
170.5206152705
 30
0.0
 10
903.1504308414
 20
170.5109785326
 30
0.0
 10
903.1701055018
 20
170.5179546081
 30
0.0
 10
903.2499357969
 20
170.4701564672
 30
0.0
 10
903.2452067276
 20
170.4804002567
 30
0.0
  0
LINE
  5
538
100
AcDbEntity
  8
HOLES
100
AcDbLine
 62
7
  6
CONTINUOUS
 10
900.069785582
 20
170.5201175982
 11
899.9452315756
 21
170.4804077047
  0
SPLINE
  5
539
100
AcDbEntity
  8
HOLES
100
AcDbSpline
 62
7
  6
CONTINUOUS
 70
0
 71
3
 72
9
 73
5
 74
0
 42
0.0000001
 43
0.0000001
 44
0.0000000001
 40
0.0
 40
0.0
 40
0.0
 40
0.0
 40
0.2671853642
 40
1.0
 40
1.0
 40
1.0
 40
1.0
 10
838.327524726
 20
170.7405214102
 30
0.0
 10
838.3792548164
 20
170.7358399656
 30
0.0
 10
838.5725954832
 20
170.7153586045
 30
0.0
 10
838.7646197189
 20
170.6830678373
 30
0.0
 10
838.9040612786
 20
170.6538929236
 30
0.0
  0
SPLINE
  5
53A
100
AcDbEntity
  8
HOLES
100
AcDbSpline
 62
7
  6
CONTINUOUS
 70
0
 71
3
 72
9
 73
5
 74
0
 42
0.0000001
 43
0.0000001
 44
0.0000000001
 40
0.0
 40
0.0
 40
0.0
 40
0.0
 40
0.3086344054
 40
1.0
 40
1.0
 40
1.0
 40
1.0
 10
838.9040612786
 20
170.6538929236
 30
0.0
 10
838.9576359558
 20
170.6426836644
 30
0.0
 10
839.1306790811
 20
170.6037613689
 30
0.0
 10
839.3017838813
 20
170.5565627065
 30
0.0
 10
839.4190060797
 20
170.5206152705
 30
0.0
  0
SPLINE
  5
53B
100
AcDbEntity
  8
HOLES
100
AcDbSpline
 62
7
  6
CONTINUOUS
 70
0
 71
3
 72
9
 73
5
 74
0
 42
0.0000001
 43
0.0000001
 44
0.0000000001
 40
0.0
 40
0.0
 40
0.0
 40
0.0
 40
0.7444570315
 40
1.0
 40
1.0
 40
1.0
 40
1.0
 10
839.4190060797
 20
170.5206152705
 30
0.0
 10
839.4504308414
 20
170.5109785326
 30
0.0
 10
839.4701055017
 20
170.5179546081
 30
0.0
 10
839.549935797
 20
170.4701564672
 30
0.0
 10
839.5452067276
 20
170.4804002567
 30
0.0
  0
LINE
  5
53C
100
AcDbEntity
  8
HOLES
100
AcDbLine
 62
7
  6
CONTINUOUS
 10
836.369785582
 20
170.5201175982
 11
836.2452315756
 21
170.4804077047
  0
SPLINE
  5
53D
100
AcDbEntity
  8
HOLES
100
AcDbSpline
 62
7
  6
CONTINUOUS
 70
0
 71
3
 72
9
 73
5
 74
0
 42
0.0000001
 43
0.0000001
 44
0.0000000001
 40
0.0
 40
0.0
 40
0.0
 40
0.0
 40
0.2671853642
 40
1.0
 40
1.0
 40
1.0
 40
1.0
 10
774.627524726
 20
170.7405214102
 30
0.0
 10
774.6792548164
 20
170.7358399656
 30
0.0
 10
774.8725954832
 20
170.7153586045
 30
0.0
 10
775.0646197189
 20
170.6830678373
 30
0.0
 10
775.2040612786
 20
170.6538929236
 30
0.0
  0
SPLINE
  5
53E
100
AcDbEntity
  8
HOLES
100
AcDbSpline
 62
7
  6
CONTINUOUS
 70
0
 71
3
 72
9
 73
5
 74
0
 42
0.0000001
 43
0.0000001
 44
0.0000000001
 40
0.0
 40
0.0
 40
0.0
 40
0.0
 40
0.3086344054
 40
1.0
 40
1.0
 40
1.0
 40
1.0
 10
775.2040612786
 20
170.6538929236
 30
0.0
 10
775.2576359558
 20
170.6426836644
 30
0.0
 10
775.4306790811
 20
170.6037613689
 30
0.0
 10
775.6017838813
 20
170.5565627065
 30
0.0
 10
775.7190060797
 20
170.5206152705
 30
0.0
  0
SPLINE
  5
53F
100
AcDbEntity
  8
HOLES
100
AcDbSpline
 62
7
  6
CONTINUOUS
 70
0
 71
3
 72
9
 73
5
 74
0
 42
0.0000001
 43
0.0000001
 44
0.0000000001
 40
0.0
 40
0.0
 40
0.0
 40
0.0
 40
0.7444570315
 40
1.0
 40
1.0
 40
1.0
 40
1.0
 10
775.7190060797
 20
170.5206152705
 30
0.0
 10
775.7504308414
 20
170.5109785326
 30
0.0
 10
775.7701055018
 20
170.5179546081
 30
0.0
 10
775.8499357969
 20
170.4701564672
 30
0.0
 10
775.8452067276
 20
170.4804002567
 30
0.0
  0
LINE
  5
540
100
AcDbEntity
  8
HOLES
100
AcDbLine
 62
7
  6
CONTINUOUS
 10
772.6697855821
 20
170.5201175982
 11
772.5452315756
 21
170.4804077047
  0
SPLINE
  5
541
100
AcDbEntity
  8
HOLES
100
AcDbSpline
 62
7
  6
CONTINUOUS
 70
0
 71
3
 72
9
 73
5
 74
0
 42
0.0000001
 43
0.0000001
 44
0.0000000001
 40
0.0
 40
0.0
 40
0.0
 40
0.0
 40
0.2671853642
 40
1.0
 40
1.0
 40
1.0
 40
1.0
 10
710.927524726
 20
170.7405214102
 30
0.0
 10
710.9792548164
 20
170.7358399656
 30
0.0
 10
711.1725954832
 20
170.7153586045
 30
0.0
 10
711.3646197189
 20
170.6830678373
 30
0.0
 10
711.5040612786
 20
170.6538929236
 30
0.0
  0
SPLINE
  5
542
100
AcDbEntity
  8
HOLES
100
AcDbSpline
 62
7
  6
CONTINUOUS
 70
0
 71
3
 72
9
 73
5
 74
0
 42
0.0000001
 43
0.0000001
 44
0.0000000001
 40
0.0
 40
0.0
 40
0.0
 40
0.0
 40
0.3086344054
 40
1.0
 40
1.0
 40
1.0
 40
1.0
 10
711.5040612786
 20
170.6538929236
 30
0.0
 10
711.5576359558
 20
170.6426836644
 30
0.0
 10
711.7306790811
 20
170.6037613689
 30
0.0
 10
711.9017838813
 20
170.5565627065
 30
0.0
 10
712.0190060797
 20
170.5206152705
 30
0.0
  0
SPLINE
  5
543
100
AcDbEntity
  8
HOLES
100
AcDbSpline
 62
7
  6
CONTINUOUS
 70
0
 71
3
 72
9
 73
5
 74
0
 42
0.0000001
 43
0.0000001
 44
0.0000000001
 40
0.0
 40
0.0
 40
0.0
 40
0.0
 40
0.7444570315
 40
1.0
 40
1.0
 40
1.0
 40
1.0
 10
712.0190060797
 20
170.5206152705
 30
0.0
 10
712.0504308414
 20
170.5109785326
 30
0.0
 10
712.0701055017
 20
170.517954608
 30
0.0
 10
712.149935797
 20
170.4701564672
 30
0.0
 10
712.1452067276
 20
170.4804002567
 30
0.0
  0
LINE
  5
544
100
AcDbEntity
  8
HOLES
100
AcDbLine
 62
7
  6
CONTINUOUS
 10
708.9697855821
 20
170.5201175982
 11
708.8452315756
 21
170.4804077047
  0
SPLINE
  5
545
100
AcDbEntity
  8
HOLES
100
AcDbSpline
 62
7
  6
CONTINUOUS
 70
0
 71
3
 72
9
 73
5
 74
0
 42
0.0000001
 43
0.0000001
 44
0.0000000001
 40
0.0
 40
0.0
 40
0.0
 40
0.0
 40
0.2671853642
 40
1.0
 40
1.0
 40
1.0
 40
1.0
 10
647.227524726
 20
170.7405214102
 30
0.0
 10
647.2792548164
 20
170.7358399656
 30
0.0
 10
647.4725954832
 20
170.7153586045
 30
0.0
 10
647.6646197189
 20
170.6830678373
 30
0.0
 10
647.8040612786
 20
170.6538929236
 30
0.0
  0
SPLINE
  5
546
100
AcDbEntity
  8
HOLES
100
AcDbSpline
 62
7
  6
CONTINUOUS
 70
0
 71
3
 72
9
 73
5
 74
0
 42
0.0000001
 43
0.0000001
 44
0.0000000001
 40
0.0
 40
0.0
 40
0.0
 40
0.0
 40
0.3086344054
 40
1.0
 40
1.0
 40
1.0
 40
1.0
 10
647.8040612786
 20
170.6538929236
 30
0.0
 10
647.8576359558
 20
170.6426836644
 30
0.0
 10
648.0306790811
 20
170.6037613689
 30
0.0
 10
648.2017838813
 20
170.5565627065
 30
0.0
 10
648.3190060797
 20
170.5206152705
 30
0.0
  0
SPLINE
  5
547
100
AcDbEntity
  8
HOLES
100
AcDbSpline
 62
7
  6
CONTINUOUS
 70
0
 71
3
 72
9
 73
5
 74
0
 42
0.0000001
 43
0.0000001
 44
0.0000000001
 40
0.0
 40
0.0
 40
0.0
 40
0.0
 40
0.7444570315
 40
1.0
 40
1.0
 40
1.0
 40
1.0
 10
648.3190060797
 20
170.5206152705
 30
0.0
 10
648.3504308414
 20
170.5109785326
 30
0.0
 10
648.3701055017
 20
170.5179546081
 30
0.0
 10
648.449935797
 20
170.4701564672
 30
0.0
 10
648.4452067276
 20
170.4804002567
 30
0.0
  0
LINE
  5
548
100
AcDbEntity
  8
HOLES
100
AcDbLine
 62
7
  6
CONTINUOUS
 10
645.2697855821
 20
170.5201175982
 11
645.1452315756
 21
170.4804077047
  0
SPLINE
  5
549
100
AcDbEntity
  8
HOLES
100
AcDbSpline
 62
7
  6
CONTINUOUS
 70
0
 71
3
 72
9
 73
5
 74
0
 42
0.0000001
 43
0.0000001
 44
0.0000000001
 40
0.0
 40
0.0
 40
0.0
 40
0.0
 40
0.2671853642
 40
1.0
 40
1.0
 40
1.0
 40
1.0
 10
583.527524726
 20
170.7405214102
 30
0.0
 10
583.5792548164
 20
170.7358399656
 30
0.0
 10
583.7725954832
 20
170.7153586045
 30
0.0
 10
583.9646197189
 20
170.6830678373
 30
0.0
 10
584.1040612786
 20
170.6538929236
 30
0.0
  0
SPLINE
  5
54A
100
AcDbEntity
  8
HOLES
100
AcDbSpline
 62
7
  6
CONTINUOUS
 70
0
 71
3
 72
9
 73
5
 74
0
 42
0.0000001
 43
0.0000001
 44
0.0000000001
 40
0.0
 40
0.0
 40
0.0
 40
0.0
 40
0.3086344054
 40
1.0
 40
1.0
 40
1.0
 40
1.0
 10
584.1040612786
 20
170.6538929236
 30
0.0
 10
584.1576359558
 20
170.6426836644
 30
0.0
 10
584.3306790811
 20
170.6037613689
 30
0.0
 10
584.5017838813
 20
170.5565627065
 30
0.0
 10
584.6190060797
 20
170.5206152705
 30
0.0
  0
SPLINE
  5
54B
100
AcDbEntity
  8
HOLES
100
AcDbSpline
 62
7
  6
CONTINUOUS
 70
0
 71
3
 72
9
 73
5
 74
0
 42
0.0000001
 43
0.0000001
 44
0.0000000001
 40
0.0
 40
0.0
 40
0.0
 40
0.0
 40
0.7444570315
 40
1.0
 40
1.0
 40
1.0
 40
1.0
 10
584.6190060797
 20
170.5206152705
 30
0.0
 10
584.6504308414
 20
170.5109785326
 30
0.0
 10
584.6701055018
 20
170.5179546081
 30
0.0
 10
584.7499357969
 20
170.4701564672
 30
0.0
 10
584.7452067276
 20
170.4804002567
 30
0.0
  0
LINE
  5
54C
100
AcDbEntity
  8
HOLES
100
AcDbLine
 62
7
  6
CONTINUOUS
 10
581.5697855821
 20
170.5201175982
 11
581.4452315756
 21
170.4804077047
  0
LINE
  5
54D
100
AcDbEntity
  8
HOLES
100
AcDbLine
 62
7
  6
CONTINUOUS
 10
966.9452067166
 20
170.4804002699
 11
966.8886306504
 21
170.4988762937
  0
LINE
  5
54E
100
AcDbEntity
  8
HOLES
100
AcDbLine
 62
7
  6
CONTINUOUS
 10
963.6452088644
 20
170.4804008249
 11
963.7014302001
 21
170.4987652457
  0
SPLINE
  5
54F
100
AcDbEntity
  8
HOLES
100
AcDbSpline
 62
7
  6
CONTINUOUS
 70
0
 71
3
 72
9
 73
5
 74
0
 42
0.0000001
 43
0.0000001
 44
0.0000000001
 40
0.0
 40
0.0
 40
0.0
 40
0.0
 40
0.2263598613
 40
1.0
 40
1.0
 40
1.0
 40
1.0
 10
964.289975716
 20
170.6546502936
 30
0.0
 10
964.3647054016
 20
170.6702322641
 30
0.0
 10
964.6962219859
 20
170.732088467
 30
0.0
 10
965.0343073839
 20
170.7604950749
 30
0.0
 10
965.2952074248
 20
170.7604950749
 30
0.0
  0
LINE
  5
550
100
AcDbEntity
  8
HOLES
100
AcDbLine
 62
7
  6
CONTINUOUS
 10
903.2452067166
 20
170.4804002699
 11
903.1886306503
 21
170.4988762938
  0
LINE
  5
551
100
AcDbEntity
  8
HOLES
100
AcDbLine
 62
7
  6
CONTINUOUS
 10
899.9452088644
 20
170.4804008249
 11
900.0014302002
 21
170.4987652457
  0
SPLINE
  5
552
100
AcDbEntity
  8
HOLES
100
AcDbSpline
 62
7
  6
CONTINUOUS
 70
0
 71
3
 72
9
 73
5
 74
0
 42
0.0000001
 43
0.0000001
 44
0.0000000001
 40
0.0
 40
0.0
 40
0.0
 40
0.0
 40
0.2263598613
 40
1.0
 40
1.0
 40
1.0
 40
1.0
 10
900.5899757165
 20
170.6546502937
 30
0.0
 10
900.6647054021
 20
170.6702322642
 30
0.0
 10
900.9962219863
 20
170.732088467
 30
0.0
 10
901.3343073841
 20
170.7604950749
 30
0.0
 10
901.5952074248
 20
170.7604950749
 30
0.0
  0
LINE
  5
553
100
AcDbEntity
  8
HOLES
100
AcDbLine
 62
7
  6
CONTINUOUS
 10
839.5452067166
 20
170.4804002699
 11
839.4886306503
 21
170.4988762938
  0
LINE
  5
554
100
AcDbEntity
  8
HOLES
100
AcDbLine
 62
7
  6
CONTINUOUS
 10
836.2452088644
 20
170.4804008249
 11
836.3014302002
 21
170.4987652457
  0
SPLINE
  5
555
100
AcDbEntity
  8
HOLES
100
AcDbSpline
 62
7
  6
CONTINUOUS
 70
0
 71
3
 72
9
 73
5
 74
0
 42
0.0000001
 43
0.0000001
 44
0.0000000001
 40
0.0
 40
0.0
 40
0.0
 40
0.0
 40
0.2263598613
 40
1.0
 40
1.0
 40
1.0
 40
1.0
 10
836.8899757165
 20
170.6546502937
 30
0.0
 10
836.9647054021
 20
170.6702322642
 30
0.0
 10
837.2962219863
 20
170.732088467
 30
0.0
 10
837.6343073841
 20
170.7604950749
 30
0.0
 10
837.8952074248
 20
170.7604950749
 30
0.0
  0
LINE
  5
556
100
AcDbEntity
  8
HOLES
100
AcDbLine
 62
7
  6
CONTINUOUS
 10
775.8452067166
 20
170.4804002699
 11
775.7886306503
 21
170.4988762938
  0
LINE
  5
557
100
AcDbEntity
  8
HOLES
100
AcDbLine
 62
7
  6
CONTINUOUS
 10
772.5452088644
 20
170.4804008249
 11
772.6014302002
 21
170.4987652457
  0
SPLINE
  5
558
100
AcDbEntity
  8
HOLES
100
AcDbSpline
 62
7
  6
CONTINUOUS
 70
0
 71
3
 72
9
 73
5
 74
0
 42
0.0000001
 43
0.0000001
 44
0.0000000001
 40
0.0
 40
0.0
 40
0.0
 40
0.0
 40
0.2263598613
 40
1.0
 40
1.0
 40
1.0
 40
1.0
 10
773.1899757165
 20
170.6546502937
 30
0.0
 10
773.2647054021
 20
170.6702322642
 30
0.0
 10
773.5962219863
 20
170.732088467
 30
0.0
 10
773.9343073841
 20
170.7604950749
 30
0.0
 10
774.1952074248
 20
170.7604950749
 30
0.0
  0
LINE
  5
559
100
AcDbEntity
  8
HOLES
100
AcDbLine
 62
7
  6
CONTINUOUS
 10
712.1452067166
 20
170.4804002699
 11
712.0886306503
 21
170.4988762938
  0
LINE
  5
55A
100
AcDbEntity
  8
HOLES
100
AcDbLine
 62
7
  6
CONTINUOUS
 10
708.8452088644
 20
170.4804008249
 11
708.9014302002
 21
170.4987652457
  0
SPLINE
  5
55B
100
AcDbEntity
  8
HOLES
100
AcDbSpline
 62
7
  6
CONTINUOUS
 70
0
 71
3
 72
9
 73
5
 74
0
 42
0.0000001
 43
0.0000001
 44
0.0000000001
 40
0.0
 40
0.0
 40
0.0
 40
0.0
 40
0.2263598613
 40
1.0
 40
1.0
 40
1.0
 40
1.0
 10
709.4899757165
 20
170.6546502937
 30
0.0
 10
709.5647054021
 20
170.6702322642
 30
0.0
 10
709.8962219863
 20
170.732088467
 30
0.0
 10
710.2343073841
 20
170.7604950749
 30
0.0
 10
710.4952074248
 20
170.7604950749
 30
0.0
  0
LINE
  5
55C
100
AcDbEntity
  8
HOLES
100
AcDbLine
 62
7
  6
CONTINUOUS
 10
648.4452067166
 20
170.4804002699
 11
648.3886306503
 21
170.4988762938
  0
LINE
  5
55D
100
AcDbEntity
  8
HOLES
100
AcDbLine
 62
7
  6
CONTINUOUS
 10
645.1452088644
 20
170.4804008249
 11
645.2014302002
 21
170.4987652457
  0
SPLINE
  5
55E
100
AcDbEntity
  8
HOLES
100
AcDbSpline
 62
7
  6
CONTINUOUS
 70
0
 71
3
 72
9
 73
5
 74
0
 42
0.0000001
 43
0.0000001
 44
0.0000000001
 40
0.0
 40
0.0
 40
0.0
 40
0.0
 40
0.2263598613
 40
1.0
 40
1.0
 40
1.0
 40
1.0
 10
645.7899757165
 20
170.6546502937
 30
0.0
 10
645.8647054021
 20
170.6702322642
 30
0.0
 10
646.1962219863
 20
170.732088467
 30
0.0
 10
646.5343073841
 20
170.7604950749
 30
0.0
 10
646.7952074248
 20
170.7604950749
 30
0.0
  0
LINE
  5
55F
100
AcDbEntity
  8
HOLES
100
AcDbLine
 62
7
  6
CONTINUOUS
 10
584.7452067166
 20
170.4804002699
 11
584.6886306503
 21
170.4988762938
  0
LINE
  5
560
100
AcDbEntity
  8
HOLES
100
AcDbLine
 62
7
  6
CONTINUOUS
 10
581.4452088644
 20
170.4804008249
 11
581.5014302002
 21
170.4987652457
  0
SPLINE
  5
561
100
AcDbEntity
  8
HOLES
100
AcDbSpline
 62
7
  6
CONTINUOUS
 70
0
 71
3
 72
9
 73
5
 74
0
 42
0.0000001
 43
0.0000001
 44
0.0000000001
 40
0.0
 40
0.0
 40
0.0
 40
0.0
 40
0.2263598613
 40
1.0
 40
1.0
 40
1.0
 40
1.0
 10
582.0899757165
 20
170.6546502937
 30
0.0
 10
582.1647054021
 20
170.6702322642
 30
0.0
 10
582.4962219863
 20
170.732088467
 30
0.0
 10
582.8343073841
 20
170.7604950749
 30
0.0
 10
583.0952074248
 20
170.7604950749
 30
0.0
  0
ENDSEC
  0
SECTION
  2
OBJECTS
  0
DICTIONARY
  5
C
100
AcDbDictionary
280
0
281
1
  3
ACAD_GROUP
350
D
  3
ACAD_MLINESTYLE
350
17
  3
ACAD_LAYOUT
350
1A
  3
ACAD_PLOTSETTINGS
350
19
  3
ACAD_PLOTSTYLENAME
350
E
  3
ACAD_IMAGE_DICT
350
       564
  3
ACAD_IMAGE_VARS
350
       565
  3
ACAD_TABLESTYLE
350
       566
  0
IMAGEDEF_REACTOR
  5
562
100
AcDbRasterImageDefReactor
 90
2
330
3B6
  0
IMAGEDEF_REACTOR
  5
563
100
AcDbRasterImageDefReactor
 90
2
330
3B9
  0
DICTIONARY
  5
D
102
{ACAD_REACTORS
330
C
102
}
100
AcDbDictionary
280
0
281
1
  0
ACDBDICTIONARYWDFLT
  5
E
102
{ACAD_REACTORS
330
C
102
}
100
AcDbDictionary
281
1
  3
Normal
350
F
100
AcDbDictionaryWithDefault
340
F
  0
DICTIONARY
  5
564
330
C
100
AcDbDictionary
281
1
  3
cage_and_flap_holder_img_1
350
       569
  3
cage_and_flap_holder_img_2
350
       56A
  0
RASTERVARIABLES
  5
565
330
C
100
AcDbRasterVariables
 90
0
 70
0
 71
1
 72
1
  0
DICTIONARY
  5
17
102
{ACAD_REACTORS
330
C
102
}
100
AcDbDictionary
280
0
281
1
  3
Standard
350
18
  0
DICTIONARY
  5
566
330
C
100
AcDbDictionary
281
1
  3
Standard
350
       56B
  3
Standard1
350
       56C
  0
DICTIONARY
  5
19
102
{ACAD_REACTORS
330
C
102
}
100
AcDbDictionary
281
1
  0
DICTIONARY
  5
1A
102
{ACAD_REACTORS
330
C
102
}
100
AcDbDictionary
281
1
  3
Model
350
567
  3
Layout1
350
568
  0
ACDBPLACEHOLDER
  5
F
102
{ACAD_REACTORS
330
E
102
}
  0
MLINESTYLE
  5
18
102
{ACAD_REACTORS
330
17
102
}
100
AcDbMlineStyle
  2
STANDARD
 70
0
  3

 62
256
 51
90.0
 52
90.0
 71
2
 49
0.5
 62
256
  6
BYLAYER
 49
-0.5
 62
256
  6
BYLAYER
  0
LAYOUT
  5
567
102
{ACAD_REACTORS
330
1A
102
}
100
AcDbPlotSettings
  1

  2
none_device
  4
ISO_A0_(1189.00_x_841.00_MM)
  6

 40
0.0
 41
0.0
 42
0.0
 43
0.0
 44
1189.0
 45
841.0
 46
0.0
 47
0.0
 48
0.0
 49
0.0
140
0.0
141
0.0
142
1.0
143
1.0
 70
1024
 72
1
 73
0
 74
0
  7

 75
0
147
1.0
148
0.0
149
0.0
100
AcDbLayout
  1
Model
 70
0
 71
0
 10
0.0
 20
0.0
 11
1189.0
 21
841.0
 12
0.0
 22
0.0
 32
0.0
 14
0.0
 24
0.0
 34
0.0
 15
0.0
 25
0.0
 35
0.0
146
0.0
 13
0.0
 23
0.0
 33
0.0
 16
1.0
 26
0.0
 36
0.0
 17
0.0
 27
1.0
 37
0.0
 76
0
330
203
345
0
346
0
  0
LAYOUT
  5
568
102
{ACAD_REACTORS
330
1A
102
}
100
AcDbPlotSettings
  1

  2
none_device
  4
ISO_A0_(1189.00_x_841.00_MM)
  6

 40
0.0
 41
0.0
 42
0.0
 43
0.0
 44
1189.0
 45
841.0
 46
0.0
 47
0.0
 48
0.0
 49
0.0
140
0.0
141
0.0
142
1.0
143
1.0
 70
0
 72
1
 73
0
 74
0
  7

 75
0
147
1.0
148
0.0
149
0.0
100
AcDbLayout
  1
Layout1
 70
0
 71
1
 10
0.0
 20
0.0
 11
1189.0
 21
841.0
 12
0.0
 22
0.0
 32
0.0
 14
0.0
 24
0.0
 34
0.0
 15
0.0
 25
0.0
 35
0.0
146
0.0
 13
0.0
 23
0.0
 33
0.0
 16
1.0
 26
0.0
 36
0.0
 17
0.0
 27
1.0
 37
0.0
 76
0
330
204
345
0
346
0
  0
IMAGEDEF
  5
569
102
{ACAD_REACTORS
330
564
330
562
102
}
100
AcDbRasterImageDef
 90
0
  1
cage_and_flap_holder_img_1.png
 10
1162.0
 20
164.0
 11
0.1693333333
 21
0.1693333333
280
1
281
0
  0
IMAGEDEF
  5
56A
102
{ACAD_REACTORS
330
564
330
563
102
}
100
AcDbRasterImageDef
 90
0
  1
cage_and_flap_holder_img_2.png
 10
2775.0
 20
2226.0
 11
0.1693333333
 21
0.1693333333
280
1
281
0
  0
TABLESTYLE
  5
56B
102
{ACAD_REACTORS
330
566
330
3BA
330
3BB
330
3BC
330
3BD
330
3BE
330
3BF
330
3C2
330
3C3
330
3C4
102
}
330
566
100
AcDbTableStyle
  3
Standard
 70
0
 71
0
 40
0.06
 41
0.06
280
1
281
1
  7
Standard
140
0.18
170
1
 62
0
 63
7
283
0
  7
Standard
140
0.18
170
1
 62
0
 63
7
283
0
  7
Standard
140
0.18
170
1
 62
0
 63
7
283
0
  0
TABLESTYLE
  5
56C
102
{ACAD_REACTORS
330
566
330
3C0
330
3C1
102
}
330
566
100
AcDbTableStyle
  3
Standard1
 70
1
 71
0
 40
0.06
 41
0.06
280
1
281
1
  7
Standard
140
0.18
170
1
 62
0
 63
7
283
0
  7
Standard
140
0.18
170
1
 62
0
 63
7
283
0
  7
Standard
140
0.18
170
1
 62
0
 63
7
283
0
  0
ENDSEC
  0
EOF
